<?xml version="1.0" encoding="UTF-8"?>
<svg version="1.1" xmlns="http://www.w3.org/2000/svg" width="512" height="512">
<path d="M0 0 C0.92644841 -0.00382555 1.85289682 -0.00765109 2.80741942 -0.01159257 C5.90720354 -0.02189911 9.00680163 -0.01793484 12.1065979 -0.01396179 C14.33092927 -0.01830957 16.55525915 -0.02349294 18.77958679 -0.02944946 C24.81884911 -0.04284386 30.85804886 -0.04341761 36.89732313 -0.04088616 C41.93960627 -0.03981672 46.98187674 -0.04469918 52.02415717 -0.04949158 C64.60048257 -0.06122286 77.17676967 -0.06036082 89.75309451 -0.05393478 C100.66607411 -0.04876671 111.57896442 -0.06001891 122.49192636 -0.07903299 C133.70640475 -0.09842211 144.92084209 -0.10637422 156.13534129 -0.10290974 C162.42778746 -0.10109662 168.72015185 -0.10373603 175.01258469 -0.11762428 C180.93054335 -0.13019714 186.84832331 -0.12826348 192.76627922 -0.11521339 C194.93665184 -0.11284687 197.10703702 -0.11558499 199.27739525 -0.12383652 C202.24348698 -0.13429906 205.20897852 -0.12620694 208.17504883 -0.11352539 C209.45882355 -0.12458682 209.45882355 -0.12458682 210.76853311 -0.13587171 C216.63762958 -0.08319667 222.63911178 0.5533614 227.24316251 4.60640258 C231.96372227 9.96841604 233.18683826 14.71929211 233.03091431 21.69429016 C232.37130118 27.04448555 230.10879073 30.86641373 226.33950806 34.63569641 C220.48014264 38.26292262 215.11577916 38.55076759 208.42901611 38.52139282 C207.5025677 38.52521837 206.5761193 38.52904392 205.62159669 38.53298539 C202.52181257 38.54329194 199.42221449 38.53932766 196.32241821 38.53535461 C194.09808684 38.53970239 191.87375697 38.54488576 189.64942932 38.55084229 C183.61016701 38.56423669 177.57096726 38.56481043 171.53169298 38.56227899 C166.48940984 38.56120954 161.44713937 38.566092 156.40485895 38.57088441 C143.82853355 38.58261568 131.25224644 38.58175364 118.6759216 38.5753276 C107.762942 38.57015953 96.8500517 38.58141173 85.93708976 38.60042582 C74.72261136 38.61981494 63.50817403 38.62776704 52.29367483 38.62430257 C46.00122866 38.62248944 39.70886426 38.62512886 33.41643143 38.63901711 C27.49847276 38.65158997 21.58069281 38.6496563 15.66273689 38.63660622 C13.49236427 38.63423969 11.32197909 38.63697782 9.15162086 38.64522934 C6.18552913 38.65569189 3.22003759 38.64759976 0.25396729 38.63491821 C-1.02980743 38.64597964 -1.02980743 38.64597964 -2.339517 38.65726453 C-8.20861347 38.60458949 -14.21009567 37.96803142 -18.8141464 33.91499025 C-23.53470616 28.55297678 -24.75782214 23.80210071 -24.60189819 16.82710266 C-23.94228506 11.47690728 -21.67977462 7.65497909 -17.91049194 3.88569641 C-12.05112653 0.2584702 -6.68676305 -0.02937477 0 0 Z " fill="#000000" transform="translate(243.28549194335938,236.7393035888672)"/>
<path d="M0 0 C0.94909201 -0.00367669 1.89818403 -0.00735338 2.87603641 -0.01114148 C6.07033746 -0.02219339 9.26460601 -0.02602471 12.45892334 -0.02983093 C14.74354659 -0.0360944 17.02816881 -0.04274109 19.31278992 -0.04974365 C25.52982261 -0.06716317 31.7468476 -0.07770784 37.96389866 -0.08594918 C41.84634345 -0.09109692 45.72878584 -0.09717273 49.61122894 -0.10346031 C60.36173391 -0.12033038 71.11223517 -0.13496557 81.86275101 -0.14220905 C84.65213268 -0.14411892 87.44151435 -0.14603926 90.230896 -0.147995 C91.27081684 -0.14872061 91.27081684 -0.14872061 92.33174619 -0.14946087 C103.56246723 -0.15776122 114.79308176 -0.18309868 126.0237563 -0.21557567 C137.55566861 -0.24865176 149.08751078 -0.26632554 160.61947227 -0.26985329 C167.09361747 -0.27220644 173.56759431 -0.28120162 180.04169464 -0.30631447 C186.13199516 -0.32955675 192.22201598 -0.33384373 198.31234932 -0.32355309 C200.54765057 -0.3230567 202.78296541 -0.32940734 205.01822472 -0.34310913 C208.07034767 -0.36077135 211.12146071 -0.3537493 214.17358398 -0.34057617 C215.49981604 -0.35703004 215.49981604 -0.35703004 216.85284066 -0.37381631 C222.67274365 -0.31318884 226.06924283 0.76015871 230.84075928 4.14717102 C235.90036991 10.67140579 236.45229108 16.11648917 235.84075928 24.14717102 C234.09306176 29.59587506 230.44797766 32.93258911 225.84075928 36.14717102 C221.83130388 37.48365615 217.97616332 37.29172289 213.79541016 37.28761292 C212.39014812 37.2920696 212.39014812 37.2920696 210.95649695 37.29661632 C207.80365097 37.30531797 204.65084289 37.30681281 201.49798584 37.30830383 C199.24291909 37.31293098 196.98785313 37.3179555 194.73278809 37.323349 C188.59632809 37.33648526 182.45987904 37.34292039 176.32340717 37.34735966 C172.49121515 37.35028851 168.65902614 37.35439296 164.82683563 37.35886383 C154.21529897 37.37097442 143.60376493 37.38135579 132.99222183 37.38473892 C131.9734454 37.38506827 131.9734454 37.38506827 130.93408762 37.38540427 C130.2532821 37.38562255 129.57247658 37.38584083 128.87104058 37.38606572 C127.49148067 37.38650919 126.11192075 37.38695575 124.73236084 37.3874054 C123.70589776 37.38773754 123.70589776 37.38773754 122.65869805 37.38807639 C111.57349447 37.39202337 100.48835666 37.40947412 89.40317848 37.43276492 C78.0204298 37.45648772 66.63772522 37.46868331 55.25494742 37.47010684 C48.86467177 37.47115579 42.47448886 37.47708278 36.08423615 37.49492645 C30.072763 37.51138545 24.06145253 37.51357311 18.0499649 37.50478745 C15.84369471 37.5040159 13.63741585 37.50837519 11.4311676 37.5182457 C8.41859837 37.53093295 5.40660809 37.52510563 2.39404297 37.5146637 C1.52156111 37.5227201 0.64907925 37.53077651 -0.24984145 37.53907704 C-6.98524757 37.48450061 -11.6496434 36.21061771 -16.97174072 31.83467102 C-20.84962962 27.07040752 -21.57677432 22.44216842 -21.40533447 16.45185852 C-20.82902725 11.05469562 -19.31351754 6.81624467 -15.15924072 3.20967102 C-10.17373194 -0.21786627 -5.84420137 -0.00120645 0 0 Z " fill="#000000" transform="translate(57.15924072265625,383.8528289794922)"/>
<path d="M0 0 C1.20816747 -0.00576172 1.20816747 -0.00576172 2.44074237 -0.01163983 C3.3199164 -0.01077335 4.19909042 -0.00990687 5.10490608 -0.00901413 C6.04330743 -0.01198525 6.98170878 -0.01495637 7.94854653 -0.01801753 C11.10062043 -0.02670603 14.25265635 -0.0282129 17.40474129 -0.02970505 C19.66157805 -0.03433305 21.91841403 -0.03935768 24.1752491 -0.04475021 C30.31158274 -0.05787642 36.44790544 -0.06431941 42.58425093 -0.06876087 C46.41627303 -0.07169075 50.24829213 -0.07579535 54.08031273 -0.08026505 C64.69189199 -0.09237273 75.30346863 -0.10275561 85.91505432 -0.10614014 C86.59395505 -0.1063597 87.27285579 -0.10657927 87.97232927 -0.10680549 C88.65284215 -0.10702377 89.33335503 -0.10724204 90.03448951 -0.10746694 C91.41344063 -0.1079104 92.79239174 -0.10835696 94.17134285 -0.10880661 C94.85534838 -0.10902804 95.53935391 -0.10924947 96.24408688 -0.10947761 C107.32990242 -0.11342649 118.41565226 -0.13088438 129.50144242 -0.15416613 C140.88534794 -0.1778809 152.26920938 -0.19008403 163.653144 -0.19150805 C170.0439318 -0.19255735 176.43462689 -0.19849178 182.82539177 -0.21632767 C188.83523353 -0.23277429 194.84491255 -0.23498039 200.85476875 -0.22618866 C203.06145983 -0.22541651 205.26815954 -0.22978438 207.47482872 -0.23964691 C210.48550533 -0.2523147 213.49560102 -0.24651758 216.50627327 -0.23606491 C217.38098585 -0.24412132 218.25569843 -0.25217772 219.15691745 -0.26047826 C225.01477539 -0.21285984 229.33479818 0.73515719 233.79585457 4.85017776 C234.27409676 5.43799026 234.75233894 6.02580276 235.24507332 6.63142776 C235.73620613 7.21924026 236.22733894 7.80705276 236.73335457 8.41267776 C239.94974786 13.02249226 239.46024588 18.76675676 238.93257332 24.13142776 C237.30266046 29.48179388 234.68768845 33.08327704 229.93257332 36.13142776 C225.89086478 37.47866394 221.98839832 37.27946892 217.7733326 37.27859879 C216.34969458 37.28411382 216.34969458 37.28411382 214.89729619 37.28974026 C211.70299513 37.30079218 208.50872659 37.30462349 205.31440926 37.30842972 C203.02978601 37.31469319 200.74516378 37.32133988 198.46054268 37.32834244 C192.24350999 37.34576195 186.02648499 37.35630662 179.80943394 37.36454797 C175.92698914 37.3696957 172.04454675 37.37577151 168.16210365 37.3820591 C157.41159868 37.39892916 146.66109742 37.41356436 135.91058159 37.42080784 C133.12119991 37.42271771 130.33181824 37.42463805 127.5424366 37.42659378 C126.50251575 37.42731939 126.50251575 37.42731939 125.44158641 37.42805966 C114.21086536 37.43636 102.98025083 37.46169747 91.7495763 37.49417446 C80.21766399 37.52725055 68.68582181 37.54492432 57.15386033 37.54845208 C50.67971512 37.55080523 44.20573828 37.5598004 37.73163795 37.58491325 C31.64133744 37.60815554 25.55131661 37.61244252 19.46098328 37.60215187 C17.22568203 37.60165548 14.99036719 37.60800612 12.75510788 37.62170792 C9.70298492 37.63937014 6.65187188 37.63234809 3.59974861 37.61917496 C2.71559391 37.6301442 1.8314392 37.64111345 0.92049193 37.6524151 C-4.90009978 37.59178045 -8.29310586 36.5143045 -13.06742668 33.13142776 C-17.86387381 27.0727577 -18.74525487 21.67706232 -18.06742668 14.13142776 C-16.34668247 8.15943314 -13.23699259 4.44439688 -8.06742668 1.13142776 C-5.32373596 0.29836537 -2.86007479 0.00513763 0 0 Z " fill="#000000" transform="translate(54.067426681518555,90.86857223510742)"/>
<path d="M0 0 C3.9614221 2.97106658 6.9035406 6.08562181 8.5 10.875 C8.60660859 13.59656537 8.65725144 16.29289817 8.66113281 19.01489258 C8.66609772 19.84449997 8.67106262 20.67410736 8.67617798 21.52885437 C8.69079303 24.27575508 8.69760071 27.02259803 8.703125 29.76953125 C8.70887724 31.67901104 8.71463496 33.58849082 8.72039795 35.49797058 C8.73090623 39.50361398 8.73674995 43.50923733 8.74023438 47.51489258 C8.74571705 52.64291988 8.76974099 57.77068139 8.79820633 62.89862537 C8.81684796 66.84405792 8.82203914 70.78942666 8.82357025 74.73489952 C8.82659414 76.62510315 8.83461376 78.51530572 8.84775543 80.40546608 C8.8648469 83.05282315 8.8629281 85.69953367 8.85644531 88.34692383 C8.8656601 89.12480255 8.87487488 89.90268127 8.8843689 90.70413208 C8.84217249 96.21648588 7.76344852 100.39345879 4 104.51953125 C-2.52755582 109.60218539 -8.4413924 109.54655063 -16.5 108.875 C-21.75628796 107.4322776 -24.73742983 103.85794867 -27.47021484 99.35351562 C-29.47463581 94.52921935 -29.01216984 89.51112257 -28.8125 84.375 C-28.78994141 83.26640625 -28.76738281 82.1578125 -28.74414062 81.015625 C-28.68562829 78.30065247 -28.60370491 75.5885587 -28.5 72.875 C-30.25860352 72.88499275 -30.25860352 72.88499275 -32.05273438 72.89518738 C-43.11675382 72.956077 -54.18073914 73.00101039 -65.24488831 73.03043652 C-70.93269856 73.04607349 -76.62037323 73.067276 -82.30810547 73.10131836 C-87.79998096 73.13398172 -93.29172626 73.15186782 -98.78369141 73.15963173 C-100.8759974 73.16516269 -102.9682965 73.1759633 -105.06054688 73.19219017 C-107.99755088 73.21405697 -110.93402107 73.21696303 -113.87109375 73.21557617 C-114.7306517 73.226362 -115.59020966 73.23714783 -116.47581482 73.2482605 C-122.38060127 73.21820985 -128.39275306 72.61126639 -133.02830505 68.52916241 C-137.74971578 63.16803455 -138.97232192 58.41603384 -138.81640625 51.44140625 C-138.15679312 46.09121087 -135.89428268 42.26928268 -132.125 38.5 C-126.22102828 34.84516036 -120.8339118 34.59206925 -114.09814453 34.64794922 C-113.17067917 34.64765717 -112.24321381 34.64736511 -111.28764343 34.64706421 C-108.23593645 34.64845249 -105.1844766 34.66399013 -102.1328125 34.6796875 C-100.01146579 34.68341941 -97.89011736 34.68626554 -95.76876831 34.68826294 C-90.19567067 34.69588535 -84.6226779 34.71552194 -79.04962158 34.7376709 C-73.35861632 34.75815929 -67.66759405 34.76727106 -61.9765625 34.77734375 C-50.81766236 34.7987691 -39.65883991 34.83288829 -28.5 34.875 C-28.52618408 34.18986328 -28.55236816 33.50472656 -28.5793457 32.79882812 C-28.68406463 29.65779067 -28.74856148 26.51712158 -28.8125 23.375 C-28.85439453 22.29734375 -28.89628906 21.2196875 -28.93945312 20.109375 C-29.04688779 13.0616608 -28.25602911 8.2496927 -23.5 2.875 C-16.8307658 -2.68269516 -8.08084253 -2.59741367 0 0 Z " fill="#000000" transform="translate(174.5,202.125)"/>
<path d="M0 0 C4.6209371 2.66082649 6.89459424 6.37128273 8.5625 11.375 C8.64489169 13.22110532 8.66993359 15.07005164 8.66015625 16.91796875 C8.65693359 17.99111328 8.65371094 19.06425781 8.65039062 20.16992188 C8.63782227 21.84924805 8.63782227 21.84924805 8.625 23.5625 C8.62048828 24.69365234 8.61597656 25.82480469 8.61132812 26.99023438 C8.59953498 29.78520927 8.5830765 32.5800782 8.5625 35.375 C9.77470718 35.36611755 10.98691437 35.35723511 12.2358551 35.3480835 C23.66806691 35.26694433 35.10022018 35.20700883 46.53265476 35.16775131 C52.40999428 35.14689 58.28710106 35.11859841 64.16430664 35.07324219 C69.8377352 35.02973332 75.51094009 35.00585194 81.18452263 34.99549103 C83.34744728 34.98810878 85.5103599 34.97369294 87.67318916 34.95207977 C90.70630325 34.92297938 93.73849695 34.91904685 96.77172852 34.92089844 C98.10853668 34.89932678 98.10853668 34.89932678 99.47235107 34.87731934 C105.34206408 34.91600929 108.75293658 35.95515174 113.5625 39.375 C117.82834189 44.76343186 118.93948695 49.26854842 118.83984375 56 C118.20397657 61.44517251 115.6303924 65.7092146 111.5625 69.3125 C107.76171801 71.92553762 104.97980822 72.50120067 100.43695068 72.49525452 C99.62369324 72.49662918 98.81043579 72.49800385 97.97253418 72.49942017 C97.08924438 72.49582489 96.20595459 72.49222961 95.29589844 72.48852539 C94.35897156 72.48867142 93.42204468 72.48881744 92.45672607 72.4889679 C89.36175212 72.48827157 86.26683844 72.48049223 83.171875 72.47265625 C81.02524854 72.47079108 78.87862166 72.46936764 76.73199463 72.46836853 C71.08328068 72.46455118 65.43459246 72.45472754 59.78588867 72.44366455 C54.02132516 72.43343364 48.25675748 72.4288673 42.4921875 72.42382812 C31.18228037 72.4131046 19.87239232 72.39603753 8.5625 72.375 C8.57821045 73.07061035 8.5939209 73.7662207 8.61010742 74.48291016 C8.67272863 77.65518971 8.71157677 80.82733885 8.75 84 C8.77513672 85.09441406 8.80027344 86.18882812 8.82617188 87.31640625 C8.91898515 97.52586616 8.91898515 97.52586616 5.5625 102.375 C0.92683297 107.01066703 -3.25431499 109.32179574 -9.89453125 109.40625 C-16.85743599 108.9886845 -21.00445457 107.07107737 -25.75 101.8125 C-28.77531894 97.44259487 -28.60244235 93.38592606 -28.63037109 88.2668457 C-28.63854858 87.4404509 -28.64672607 86.61405609 -28.65515137 85.76261902 C-28.67998002 83.02534708 -28.69651657 80.288127 -28.7109375 77.55078125 C-28.71626118 76.61471731 -28.72158485 75.67865337 -28.72706985 74.71422386 C-28.75379283 69.75781448 -28.77316885 64.80143018 -28.78759766 59.8449707 C-28.80092754 55.74871443 -28.8287638 51.6529574 -28.86962891 47.55688477 C-28.91901873 42.60613602 -28.94372673 37.65583955 -28.95082474 32.70485497 C-28.95752608 30.82185111 -28.97271902 28.9388569 -28.99671555 27.05599403 C-29.02846674 24.4135083 -29.02838908 21.77275471 -29.02099609 19.13012695 C-29.03740143 18.35943878 -29.05380676 17.58875061 -29.07070923 16.79470825 C-29.00437337 10.97108645 -27.20936926 6.83161864 -23.4375 2.375 C-16.64964733 -2.83487682 -7.78725606 -3.45133509 0 0 Z " fill="#000000" transform="translate(357.4375,348.625)"/>
<path d="M0 0 C3.58298006 3.07112577 6.12179621 5.74038863 7.625 10.25 C7.70739169 12.09610532 7.73243359 13.94505164 7.72265625 15.79296875 C7.71943359 16.86611328 7.71621094 17.93925781 7.71289062 19.04492188 C7.70032227 20.72424805 7.70032227 20.72424805 7.6875 22.4375 C7.68298828 23.56865234 7.67847656 24.69980469 7.67382812 25.86523438 C7.66203498 28.66020927 7.6455765 31.4550782 7.625 34.25 C8.81215103 34.24333817 9.99930206 34.23667633 11.22242737 34.22981262 C22.4192041 34.16895404 33.6159472 34.12400449 44.81285191 34.09456348 C50.5690711 34.07891867 56.32515658 34.05770176 62.08129883 34.02368164 C67.63800811 33.99104636 73.19458891 33.97313807 78.75138664 33.96536827 C80.86963867 33.95983228 82.98788379 33.94902184 85.10608101 33.93280983 C88.0768151 33.91098043 91.04702066 33.90803542 94.01782227 33.90942383 C95.32657822 33.89324509 95.32657822 33.89324509 96.66177368 33.8767395 C102.62946006 33.9068487 107.59666849 34.71368574 112.33203125 38.6796875 C117.01438856 44.80149741 118.46322975 49.62734825 117.625 57.25 C115.78821593 63.05037076 113.04319513 67.2294384 107.72743607 70.37168694 C105.44436385 71.3254625 103.88661554 71.49682466 101.42352295 71.49050903 C100.59343719 71.49325836 99.76335144 71.49600769 98.90811157 71.49884033 C98.0061203 71.49164978 97.10412903 71.48445923 96.17480469 71.47705078 C95.21837067 71.47734283 94.26193665 71.47763489 93.27651978 71.47793579 C90.11654576 71.47654294 86.9568078 71.46098366 83.796875 71.4453125 C81.60540903 71.44158222 79.41394138 71.43873532 77.22247314 71.43673706 C71.45535678 71.42910183 65.6883412 71.4094542 59.92126465 71.3873291 C54.0360653 71.36686836 48.15084967 71.35773485 42.265625 71.34765625 C30.71870573 71.32620828 19.17186125 71.29207358 7.625 71.25 C7.64594727 71.93513672 7.66689453 72.62027344 7.68847656 73.32617188 C7.77225399 76.46729522 7.82385414 79.60818264 7.875 82.75 C7.90851563 83.82765625 7.94203125 84.9053125 7.9765625 86.015625 C8.05645896 92.56713507 7.66489035 97.88125403 3.625 103.25 C-2.76755553 108.33795236 -8.43039386 108.99990126 -16.375 108.25 C-22.27588252 106.69296041 -25.29176324 103.61258108 -28.34822083 98.47989273 C-30.02703942 94.83394288 -30.05883109 91.50405806 -29.99023438 87.54248047 C-29.99578339 86.71214294 -30.0013324 85.88180542 -30.00704956 85.02630615 C-30.01877517 82.30599631 -29.99464798 79.58737853 -29.96875 76.8671875 C-29.96703722 74.96485469 -29.96710628 73.06251953 -29.96887207 71.16018677 C-29.96722297 67.18419647 -29.94859733 63.20877282 -29.91699219 59.23291016 C-29.8772619 54.1441735 -29.87295584 49.05617616 -29.88045502 43.96731377 C-29.8835281 40.04327659 -29.87139301 36.11940473 -29.85432434 32.19540787 C-29.84730939 30.319185 -29.84416798 28.4429434 -29.84501648 26.56670761 C-29.84321325 23.94370549 -29.82178866 21.32158036 -29.79492188 18.69873047 C-29.79785248 17.92870697 -29.80078308 17.15868347 -29.80380249 16.36532593 C-29.70277967 9.9540072 -28.14310135 6.01810135 -23.625 1.5 C-16.24402317 -3.60990704 -7.95417122 -4.12438507 0 0 Z " fill="#000000" transform="translate(358.375,56.75)"/>
</svg>
