<svg width="36" height="43" viewBox="0 0 36 43" fill="none" xmlns="http://www.w3.org/2000/svg">
<path d="M17.9377 0.104947C18.5374 0.390886 18.9401 0.898698 19.3434 1.35785C19.475 1.50717 19.609 1.6549 19.743 1.80269C19.7697 1.83213 19.7963 1.86158 19.8237 1.89192C19.9599 2.04237 20.097 2.19209 20.2359 2.34072C20.6598 2.7943 21.0668 3.25715 21.4695 3.72441C21.6386 3.92053 21.8103 4.11473 21.9836 4.30822C22.24 4.59721 22.4808 4.89443 22.7206 5.19345C22.8682 5.37721 23.0169 5.55895 23.1764 5.73556C23.3732 5.95403 23.5496 6.1831 23.7279 6.41264C23.8872 6.61681 24.0518 6.81782 24.216 7.01913C24.495 7.36196 24.7645 7.70936 25.0296 8.06003C25.2295 8.32416 25.4327 8.58615 25.6385 8.84694C25.8834 9.15749 26.1227 9.46968 26.3472 9.79122C26.4685 9.96124 26.5952 10.128 26.7225 10.2948C26.9572 10.6036 27.1864 10.9149 27.4116 11.2288C27.5129 11.3695 27.6169 11.5085 27.7219 11.6473C27.7513 11.6864 27.7807 11.7256 27.811 11.7659C27.8685 11.8423 27.9264 11.9184 27.9847 11.9943C28.1272 12.1845 28.2293 12.3383 28.2578 12.5676C28.3004 12.5676 28.3429 12.5676 28.3868 12.5676C28.9296 13.3639 29.4701 14.1612 30.0009 14.9634C30.1235 15.1485 30.2475 15.3329 30.3732 15.5166C30.4144 15.5773 30.4144 15.5773 30.4564 15.6393C30.5068 15.7133 30.5575 15.7871 30.6087 15.8607C30.7323 16.0435 30.7724 16.1292 30.7724 16.3464C30.8149 16.3464 30.8575 16.3464 30.9013 16.3464C31.0344 16.5646 31.1674 16.7827 31.3003 17.0009C31.3455 17.075 31.3906 17.149 31.4358 17.223C32.0979 18.3085 32.0979 18.3085 32.3198 18.7561C32.4531 19.0173 32.5925 19.2754 32.7372 19.5322C32.9405 19.8948 33.1169 20.2599 33.2781 20.6373C33.4069 20.9356 33.5651 21.2135 33.7382 21.4944C33.9139 21.8049 34.0148 22.1225 34.1228 22.4543C34.1785 22.613 34.2414 22.7598 34.3185 22.9115C34.4849 23.2477 34.5762 23.6006 34.6733 23.9549C34.703 24.0603 34.7359 24.1649 34.7691 24.2696C34.841 24.5143 34.8774 24.7577 34.9058 25.0084C34.914 25.0794 34.914 25.0794 34.9223 25.1518C34.9793 25.6918 34.9831 26.2306 34.9794 26.7725C34.9791 26.8497 34.9791 26.8497 34.9788 26.9285C34.9754 27.6771 34.9624 28.4197 34.8343 29.1616C34.8256 29.2129 34.817 29.2642 34.8081 29.317C34.6865 30.0147 34.5066 30.681 34.254 31.3523C34.2108 31.48 34.1678 31.6078 34.1251 31.7356C33.9775 32.1514 33.7952 32.5428 33.5748 32.9347C33.5102 33.051 33.4488 33.1685 33.3901 33.287C33.0181 34.0305 32.5191 34.7315 31.9974 35.4049C31.9549 35.4601 31.9549 35.4601 31.9115 35.5164C31.5057 36.0398 31.0667 36.5233 30.5789 36.9931C30.5349 37.0366 30.4908 37.0801 30.4454 37.1249C30.2405 37.3269 30.0279 37.517 29.8052 37.7051C29.7388 37.7626 29.6725 37.8203 29.6063 37.8779C29.5356 37.939 29.4649 38 29.3942 38.0611C29.3595 38.0915 29.3247 38.1219 29.2889 38.1533C29.0484 38.36 28.8027 38.5319 28.5157 38.6909C28.4732 38.6909 28.4306 38.6909 28.3868 38.6909C28.3868 38.727 28.3868 38.7632 28.3868 38.8004C27.789 39.2842 26.9961 39.6894 26.283 40.0395C26.1778 40.0913 26.0739 40.1451 25.9712 40.2004C25.3593 40.5225 24.6981 40.7502 24.0362 40.9874C23.8971 41.0373 23.7583 41.0879 23.6196 41.1389C23.4244 41.2093 23.2279 41.2725 23.0285 41.3335C22.9055 41.3721 22.9055 41.3721 22.7934 41.4276C22.6199 41.495 22.4579 41.5218 22.2702 41.5507C22.1971 41.5622 22.1241 41.5737 22.0488 41.5856C21.9727 41.5972 21.8967 41.6088 21.8183 41.6208C21.668 41.644 21.5177 41.6674 21.3675 41.691C21.301 41.7012 21.2344 41.7114 21.1658 41.7219C20.9661 41.7589 20.779 41.8123 20.5853 41.8673C18.7535 42.1865 16.6804 42.1372 14.847 41.8673C14.7772 41.8576 14.7075 41.8479 14.6357 41.8379C12.2912 41.5104 12.2912 41.5104 11.4942 41.1553C11.4942 41.1192 11.4942 41.0831 11.4942 41.0458C11.413 41.0504 11.413 41.0504 11.33 41.055C11.0742 41.0444 10.8724 40.9826 10.6399 40.8986C10.5612 40.8713 10.4824 40.844 10.4012 40.8158C9.18477 40.3664 8.02293 39.7699 6.98097 39.0742C6.92188 39.0356 6.86278 38.9969 6.8019 38.957C6.4687 38.7355 6.15282 38.5001 5.84056 38.2577C5.71404 38.1606 5.5853 38.0676 5.45371 37.9755C5.25297 37.8304 5.08388 37.67 4.91348 37.4995C4.77377 37.3617 4.62834 37.2291 4.48255 37.0958C3.60304 36.272 2.90782 35.358 2.26974 34.3888C2.18163 34.2551 2.09226 34.1228 2.00076 33.9909C1.40235 33.1215 1.01811 32.2008 0.662391 31.2427C0.644039 31.1935 0.625687 31.1442 0.606778 31.0935C0.589143 31.0451 0.571507 30.9967 0.553337 30.9469C0.537416 30.9033 0.521495 30.8598 0.505091 30.8149C0.459284 30.663 0.454473 30.5224 0.468966 30.3665C0.426412 30.3665 0.383858 30.3665 0.340015 30.3665C0.310019 30.2228 0.280563 30.079 0.251361 29.9352C0.243216 29.8964 0.235071 29.8577 0.226679 29.8177C0.0510766 28.9452 -0.00323359 28.0891 0.000827041 27.2048C0.00151872 27.026 0.000829377 26.8473 8.50698e-06 26.6685C-0.000679571 25.8278 0.0400077 24.9948 0.255391 24.1711C0.26604 24.1294 0.276689 24.0877 0.28766 24.0448C0.57377 22.9672 0.967083 21.9125 1.53026 20.9162C1.6859 20.6395 1.81401 20.3572 1.94006 20.0701C2.03362 19.8692 2.14624 19.68 2.26319 19.4884C2.33646 19.3625 2.39698 19.2365 2.45561 19.1053C2.62257 18.7394 2.83738 18.3933 3.04697 18.0441C3.15587 17.8621 3.26303 17.6792 3.37035 17.4965C3.41291 17.4965 3.45546 17.4965 3.4993 17.4965C3.50775 17.466 3.5162 17.4354 3.5249 17.4039C3.65133 16.9981 3.86614 16.6424 4.10282 16.2764C4.16821 16.1753 4.23277 16.0738 4.29719 15.9723C4.49231 15.6661 4.6928 15.3648 4.91392 15.0716C5.02368 14.9201 5.11306 14.761 5.20387 14.6008C5.35912 14.3317 5.52437 14.0719 5.70935 13.8167C5.85407 13.6163 5.99444 13.4138 6.13473 13.2111C6.17653 13.1508 6.17653 13.1508 6.21917 13.0893C6.39145 12.8403 6.56016 12.5899 6.7271 12.3383C6.91793 12.0533 7.12011 11.7762 7.33103 11.5018C7.53541 11.2352 7.73012 10.9641 7.92392 10.6919C8.13913 10.3901 8.36078 10.097 8.60428 9.811C8.73551 9.64797 8.8528 9.47935 8.97013 9.30902C9.317 8.8124 9.6932 8.33279 10.0711 7.85296C10.1879 7.70467 10.3041 7.55611 10.4203 7.40752C10.8528 6.85624 11.296 6.31328 11.7563 5.77854C11.9534 5.54958 12.1451 5.3176 12.3364 5.08521C12.8148 4.50758 13.3162 3.9455 13.8226 3.38548C13.8588 3.34547 13.8949 3.30547 13.9322 3.26425C13.9678 3.22484 14.0035 3.18544 14.0402 3.14484C14.2595 2.90144 14.4706 2.65463 14.6752 2.40212C15.1724 1.79742 15.7169 1.22159 16.2946 0.671217C16.3862 0.58185 16.4706 0.489803 16.5555 0.395891C16.9414 0.0354143 17.3927 -0.094369 17.9377 0.104947Z" fill="#E3665B"/>
<path d="M7.10996 21.7134C7.05268 22.1373 6.92023 22.5461 6.79866 22.9594C6.78171 23.018 6.76475 23.0767 6.74728 23.1371C6.73182 23.1897 6.71637 23.2423 6.70044 23.2965C6.60642 23.6773 6.58332 24.0477 6.58106 24.4354C6.58051 24.5108 6.58051 24.5108 6.57994 24.5877C6.57934 24.694 6.57892 24.8002 6.57867 24.9064C6.57805 25.0651 6.57605 25.2236 6.57401 25.3823C6.56791 26.2851 6.68231 27.1614 6.95683 28.0354C6.97272 28.0869 6.98862 28.1383 7.005 28.1913C7.17661 28.7188 7.42772 29.2135 7.69653 29.7097C7.76382 29.8358 7.8237 29.9639 7.88366 30.0925C8.57265 31.4014 9.75832 32.75 11.0467 33.6688C11.1748 33.764 11.2891 33.8653 11.4056 33.9706C11.7233 34.2448 12.0916 34.4567 12.464 34.6732C12.5549 34.7267 12.6449 34.7814 12.7344 34.8366C14.1314 35.6929 15.7601 36.2192 17.426 36.5549C17.4473 36.6272 17.4686 36.6995 17.4905 36.774C17.2971 36.8174 17.1036 36.8607 16.9102 36.904C16.8561 36.9162 16.802 36.9283 16.7462 36.9408C16.6372 36.9652 16.5281 36.9893 16.4188 37.0131C16.2888 37.0425 16.16 37.0762 16.0317 37.1107C15.6491 37.1909 15.25 37.1736 14.8584 37.1716C14.7201 37.171 14.582 37.1716 14.4438 37.1723C13.817 37.1729 13.2099 37.1265 12.5904 37.0478C12.5355 37.0409 12.4807 37.034 12.4242 37.0269C11.8757 36.9537 11.3647 36.8416 10.8495 36.6644C10.7669 36.6389 10.6843 36.6133 10.6017 36.5879C10.3426 36.5055 10.0967 36.4079 9.85016 36.3016C9.80618 36.2827 9.76219 36.2638 9.71688 36.2443C9.57826 36.1841 9.4401 36.1232 9.30212 36.062C9.2571 36.0421 9.21209 36.0221 9.16571 36.0016C8.5785 35.7385 8.05661 35.4559 7.56128 35.0762C7.52695 35.05 7.49261 35.0238 7.45724 34.9967C7.05188 34.686 6.6478 34.3722 6.27178 34.0357C6.23729 34.0055 6.20279 33.9753 6.16726 33.9441C5.54994 33.3774 5.10524 32.7027 4.72037 32.0084C4.66038 31.9007 4.59875 31.7938 4.53674 31.687C4.20204 31.1039 3.97072 30.5097 3.82172 29.8735C3.80489 29.8059 3.80489 29.8059 3.78772 29.737C3.65469 29.1943 3.61627 28.672 3.61634 28.1186C3.6162 27.9988 3.61503 27.879 3.61381 27.7592C3.6116 27.3041 3.64542 26.8697 3.75724 26.4232C3.769 26.3747 3.78075 26.3262 3.79286 26.2762C4.23821 24.5059 5.22518 23.0062 6.78758 21.7681C6.91653 21.7134 6.91653 21.7134 7.10996 21.7134Z" fill="#FCFAF9"/>
<path d="M34.3186 23.0825C34.4972 23.2342 34.521 23.4069 34.5765 23.6096C34.5871 23.6473 34.5978 23.6849 34.6087 23.7237C34.6291 23.7957 34.6493 23.8678 34.6692 23.9399C34.7004 24.0505 34.7347 24.1605 34.7695 24.2704C34.8413 24.5148 34.8775 24.7579 34.9059 25.0083C34.9113 25.0556 34.9168 25.1029 34.9223 25.1517C34.9794 25.6917 34.9832 26.2305 34.9795 26.7724C34.9792 26.8496 34.9792 26.8496 34.9789 26.9284C34.9754 27.677 34.9625 28.4196 34.8344 29.1615C34.8257 29.2128 34.8171 29.264 34.8082 29.3169C34.6868 30.0134 34.5121 30.683 34.2541 31.3522C34.2328 31.3522 34.2116 31.3522 34.1896 31.3522C34.218 30.9846 34.2958 30.6403 34.3982 30.2827C34.4802 29.9666 34.5283 29.6467 34.5765 29.3258C34.619 29.3258 34.6616 29.3258 34.7054 29.3258C34.8022 28.4454 34.8483 27.5707 34.8505 26.6868C34.8508 26.6418 34.8512 26.5969 34.8515 26.5506C34.8606 25.9298 34.8606 25.9298 34.7373 25.3205C34.683 25.1467 34.6673 24.969 34.645 24.7905C34.6015 24.4646 34.5272 24.1575 34.4259 23.8405C34.357 23.5904 34.3358 23.3384 34.3186 23.0825Z" fill="#D68077"/>
<path d="M6.78766 22.7539C6.80894 22.7539 6.83022 22.7539 6.85214 22.7539C6.84464 22.9125 6.83648 23.0711 6.82796 23.2297C6.82597 23.2733 6.82397 23.317 6.82192 23.362C6.80733 23.6232 6.77402 23.875 6.72193 24.1329C6.64478 24.5399 6.63737 24.9402 6.63856 25.3518C6.63752 25.4232 6.63649 25.4945 6.63542 25.568C6.63516 25.9964 6.6901 26.3829 6.80691 26.7993C6.86486 27.0191 6.88723 27.2324 6.89646 27.4569C6.89867 27.4952 6.90087 27.5336 6.90314 27.5731C6.90829 27.6644 6.91256 27.7557 6.91661 27.8471C6.77522 27.6454 6.73405 27.4315 6.68692 27.2036C6.67882 27.1665 6.67071 27.1293 6.66236 27.0911C6.56829 26.6509 6.51924 26.2235 6.51667 25.7765C6.5163 25.7258 6.51593 25.6752 6.51555 25.623C6.51495 25.516 6.51452 25.4091 6.51427 25.3022C6.51365 25.1418 6.51165 24.9814 6.50961 24.821C6.50497 24.11 6.57532 23.4431 6.78766 22.7539Z" fill="#D2857E"/>
<path d="M34.9633 25.7113C34.9846 25.7113 35.0059 25.7113 35.0278 25.7113C35.0803 26.3138 35.0992 26.9144 35.1003 27.5186C35.1006 27.5869 35.1009 27.6551 35.1012 27.7255C35.1011 27.7894 35.1009 27.8532 35.1008 27.919C35.1007 27.9764 35.1007 28.0338 35.1006 28.093C35.0923 28.2305 35.0923 28.2305 35.0278 28.3401C35.0025 28.4793 34.9798 28.6179 34.9593 28.7577C34.9534 28.7963 34.9476 28.835 34.9415 28.8749C34.9271 28.9704 34.9129 29.066 34.8988 29.1615C34.8775 29.1615 34.8563 29.1615 34.8344 29.1615C34.8383 29.1006 34.8422 29.0397 34.8462 28.9769C34.9117 27.8891 34.9348 26.8002 34.9633 25.7113Z" fill="#F6D7D0"/>
<path d="M7.69025 35.1858C7.93081 35.2988 8.16171 35.4153 8.38739 35.5486C9.05162 35.9286 9.7708 36.2741 10.5272 36.5002C10.6348 36.5364 10.7423 36.5728 10.8495 36.6097C10.5136 36.7048 10.2003 36.5781 9.88987 36.45C9.67503 36.3558 9.46328 36.2573 9.25201 36.1575C9.05168 36.0589 9.05168 36.0589 8.8508 36.0073C8.82952 35.9711 8.80825 35.935 8.78633 35.8977C8.68001 35.8478 8.68001 35.8478 8.5526 35.8019C8.30402 35.7013 8.11448 35.5773 7.91238 35.4196C7.81963 35.3445 7.81963 35.3445 7.69025 35.2953C7.69025 35.2592 7.69025 35.223 7.69025 35.1858Z" fill="#D37E75"/>
<path d="M12.9773 41.5386C13.2339 41.5725 13.4904 41.6069 13.747 41.6413C13.819 41.6508 13.891 41.6603 13.9652 41.6701C14.2762 41.712 14.5849 41.7544 14.8914 41.8158C15.198 41.8763 15.5053 41.9036 15.8182 41.9288C15.874 41.9335 15.9299 41.9382 15.9874 41.9431C16.123 41.9546 16.2588 41.9657 16.3945 41.9767C16.3945 41.9948 16.3945 42.0128 16.3945 42.0315C15.8273 42.0479 15.281 42.0039 14.7209 41.9369C14.5911 41.9222 14.4613 41.9097 14.331 41.898C13.8423 41.8511 13.4212 41.7761 12.9773 41.5933C12.9773 41.5753 12.9773 41.5572 12.9773 41.5386Z" fill="#F5D0CA"/>
<path d="M20.5853 41.8124C20.5853 41.8305 20.5853 41.8486 20.5853 41.8672C19.1866 42.0523 17.8056 42.0495 16.3944 42.0315C16.3944 42.0134 16.3944 41.9953 16.3944 41.9767C16.4423 41.9756 16.4901 41.9745 16.5394 41.9734C17.4899 41.951 18.4351 41.9192 19.3825 41.8486C19.7848 41.8193 20.1816 41.806 20.5853 41.8124Z" fill="#DA8881"/>
<path d="M13.1063 37.1026C14.351 37.1297 14.351 37.1297 15.6208 37.1574C15.3765 37.2957 15.1833 37.2808 14.9007 37.2776C14.8239 37.2774 14.8239 37.2774 14.7455 37.2771C14.5819 37.2765 14.4183 37.2751 14.2547 37.2737C14.1438 37.2732 14.0328 37.2727 13.9219 37.2722C13.65 37.271 13.3781 37.2691 13.1063 37.2669C13.1063 37.2127 13.1063 37.1585 13.1063 37.1026Z" fill="#D67F75"/>
<path d="M0.146645 28.7781C0.167921 28.7781 0.189198 28.7781 0.21112 28.7781C0.22021 28.8187 0.229301 28.8592 0.238667 28.901C0.280437 29.0871 0.322342 29.2732 0.364249 29.4593C0.378544 29.5231 0.392839 29.5869 0.407568 29.6526C0.469655 29.9279 0.532246 30.2026 0.606031 30.4759C0.652679 30.6502 0.684987 30.8211 0.702744 30.9996C0.707565 31.046 0.712385 31.0923 0.717352 31.1401C0.72051 31.1739 0.723668 31.2078 0.726922 31.2426C0.705645 31.2426 0.684368 31.2426 0.662447 31.2426C0.440382 30.6745 0.440382 30.6745 0.469021 30.3663C0.426467 30.3663 0.383914 30.3663 0.34007 30.3663C0.109606 29.3072 0.109606 29.3072 0.146645 28.7781Z" fill="#D98176"/>
<path d="M0.469034 23.4659C0.490311 23.4659 0.511588 23.4659 0.533509 23.4659C0.549495 23.8257 0.489916 24.1542 0.404559 24.5064C0.362005 24.5064 0.319451 24.5064 0.275608 24.5064C0.276855 24.5617 0.278101 24.617 0.279386 24.6739C0.275774 24.8803 0.250953 25.0726 0.215162 25.2765C0.148874 25.6767 0.109999 26.0744 0.0821822 26.478C0.0609053 26.478 0.0396285 26.478 0.0177069 26.478C-0.0137122 25.4727 0.0925658 24.4252 0.469034 23.4659Z" fill="#D38177"/>
<path d="M3.95071 30.3664C4.0401 30.5108 4.10771 30.6504 4.16353 30.8064C4.28265 31.1172 4.44455 31.409 4.60755 31.7047C4.66645 31.8118 4.72515 31.919 4.7836 32.0262C4.80938 32.073 4.83516 32.1198 4.86172 32.168C4.91784 32.2832 4.91784 32.2832 4.91784 32.3927C4.85401 32.3746 4.79018 32.3566 4.72441 32.3379C4.61179 32.1466 4.53099 32.0056 4.53099 31.7903C4.48843 31.7903 4.44588 31.7903 4.40203 31.7903C4.40203 31.6999 4.40203 31.6095 4.40203 31.5164C4.35948 31.5164 4.31693 31.5164 4.27308 31.5164C4.14641 31.3243 4.08432 31.1254 4.01518 30.914C3.99391 30.8779 3.97263 30.8417 3.95071 30.8045C3.94206 30.6581 3.94792 30.513 3.95071 30.3664Z" fill="#D27E76"/>
<path d="M29.6763 14.4843C29.7965 14.4943 29.7965 14.4943 29.9342 14.539C30.0095 14.6574 30.0095 14.6574 30.0753 14.8163C30.2076 15.1079 30.3644 15.3742 30.5467 15.6446C30.5844 15.7007 30.5844 15.7007 30.6228 15.758C30.73 15.9167 30.8384 16.0747 30.9482 16.2321C30.978 16.2754 31.0077 16.3188 31.0384 16.3634C31.0638 16.3994 31.0892 16.4353 31.1154 16.4723C31.1593 16.5654 31.1593 16.5654 31.0948 16.7297C30.9014 16.4695 30.9014 16.4695 30.9014 16.3463C30.8588 16.3463 30.8163 16.3463 30.7724 16.3463C30.7501 16.2982 30.7277 16.25 30.7047 16.2004C30.5358 15.8657 30.3209 15.5498 30.1156 15.2305C30.0325 15.1012 29.9497 14.9718 29.867 14.8424C29.8304 14.7855 29.7938 14.7285 29.7561 14.6699C29.6763 14.539 29.6763 14.539 29.6763 14.4843Z" fill="#FAE1D8"/>
<path d="M17.9378 0.104848C18.2727 0.260386 18.5236 0.502091 18.78 0.738077C18.7587 0.774223 18.7375 0.810368 18.7155 0.847609C18.6703 0.805816 18.6251 0.764023 18.5785 0.720963C18.3947 0.574975 18.2302 0.502453 18.0063 0.409482C17.9638 0.355264 17.9212 0.301046 17.8774 0.245185C17.5362 0.162545 17.1892 0.189319 16.8458 0.245185C17.0435 -0.0907618 17.5934 -0.0230179 17.9378 0.104848Z" fill="#D97A72"/>
<path d="M7.23896 28.5591C7.35962 28.7529 7.45139 28.9539 7.54521 29.1581C7.70371 29.5022 7.88165 29.8329 8.07688 30.1633C8.14486 30.319 8.14902 30.3792 8.07713 30.5306C7.89282 30.2291 7.73212 29.9236 7.58123 29.609C7.52354 29.4902 7.46383 29.3722 7.40241 29.2547C7.37241 29.1969 7.3424 29.139 7.31149 29.0793C7.28373 29.0268 7.25597 28.9743 7.22737 28.9202C7.1714 28.7699 7.17372 28.7041 7.23896 28.5591Z" fill="#D67B72"/>
<path d="M33.4804 20.8919C33.8519 21.3652 34.1295 21.9767 34.2541 22.5349C34.2247 22.6568 34.2247 22.6568 34.1896 22.7539C33.9462 22.1987 33.9462 22.1987 33.8753 21.9667C33.7787 21.7023 33.6345 21.4621 33.4897 21.2145C33.4159 21.0562 33.4159 21.0562 33.4804 20.8919Z" fill="#F6D8D1"/>
<path d="M2.72565 18.5917C2.74692 18.5917 2.7682 18.5917 2.79012 18.5917C2.76197 18.8786 2.74107 19.0218 2.53222 19.2489C2.49453 19.3568 2.46662 19.4654 2.43803 19.5754C2.38858 19.7342 2.30271 19.8722 2.20984 20.0156C2.14601 20.0156 2.08218 20.0156 2.01642 20.0156C2.12123 19.7266 2.26127 19.4556 2.4073 19.1804C2.43078 19.1358 2.45426 19.0912 2.47845 19.0452C2.64823 18.7232 2.64823 18.7232 2.72565 18.5917Z" fill="#DE8E88"/>
<path d="M33.8028 32.1189C33.8453 32.1189 33.8879 32.1189 33.9317 32.1189C33.8328 32.4297 33.7212 32.7171 33.5431 33.0018C33.4815 33.1028 33.43 33.2046 33.3797 33.31C33.2996 33.4638 33.22 33.5792 33.0936 33.7071C33.1249 33.536 33.158 33.3787 33.2225 33.2142C33.2651 33.2142 33.3076 33.2142 33.3515 33.2142C33.3834 32.9702 33.3834 32.9702 33.4159 32.7213C33.4798 32.7032 33.5436 32.6851 33.6094 32.6665C33.659 32.5529 33.659 32.5529 33.6819 32.4201C33.7333 32.1779 33.7333 32.1779 33.8028 32.1189Z" fill="#DA7D74"/>
<path d="M17.4261 36.5549C17.4686 36.5549 17.5112 36.5549 17.555 36.5549C17.5671 36.685 17.5671 36.685 17.555 36.8288C17.347 36.9465 17.2168 36.9588 16.9747 36.9931C16.9109 37.0292 16.8471 37.0653 16.7813 37.1026C16.5464 37.1559 16.3265 37.1633 16.0842 37.1608C15.9898 37.16 15.9898 37.16 15.8935 37.1593C15.8223 37.1583 15.8223 37.1583 15.7497 37.1574C15.8903 37.0379 15.9413 37.0256 16.1292 36.9911C16.1792 36.9818 16.2291 36.9726 16.2805 36.963C16.3588 36.9491 16.3588 36.9491 16.4388 36.9349C16.4898 36.9254 16.5408 36.9159 16.5933 36.9061C16.8914 36.8515 17.1881 36.8073 17.4905 36.774C17.4693 36.7017 17.448 36.6294 17.4261 36.5549Z" fill="#D88780"/>
<path d="M4.14411 24.9993C4.22515 25.2058 4.17746 25.278 4.09575 25.482C3.8976 26.0038 3.75705 26.5345 3.69278 27.0804C3.6715 27.0804 3.65023 27.0804 3.62831 27.0804C3.62657 26.9629 3.62532 26.8454 3.62428 26.7279C3.62353 26.6624 3.62278 26.597 3.62201 26.5296C3.62831 26.3685 3.62831 26.3685 3.69278 26.3137C3.72284 26.1862 3.75064 26.0584 3.7774 25.9303C3.85134 25.5932 3.95989 25.3069 4.14411 24.9993Z" fill="#D77C71"/>
<path d="M34.3185 23.0825C34.4971 23.2342 34.5209 23.4069 34.5764 23.6096C34.587 23.6473 34.5977 23.6849 34.6086 23.7237C34.6302 23.7999 34.6515 23.8763 34.6726 23.9526C34.7057 24.0697 34.7418 24.1859 34.7779 24.3023C34.8343 24.5064 34.8343 24.5064 34.8343 24.7255C34.7705 24.7074 34.7066 24.6893 34.6409 24.6707C34.5867 24.4472 34.5331 24.2235 34.4797 23.9998C34.4643 23.9364 34.4489 23.8729 34.4331 23.8075C34.4185 23.7465 34.404 23.6854 34.389 23.6225C34.3755 23.5663 34.362 23.5101 34.3481 23.4521C34.3185 23.3016 34.3185 23.3016 34.3185 23.0825Z" fill="#D98983"/>
<path d="M31.0948 36.4454C31.1333 36.5487 31.1333 36.5487 31.1592 36.6644C31.0585 36.7637 31.0585 36.7637 30.9013 36.8835C30.802 36.9793 30.7056 37.0769 30.6089 37.1747C30.5171 37.2643 30.4211 37.3482 30.3211 37.4312C30.2572 37.4131 30.1934 37.395 30.1276 37.3764C30.4479 37.0644 30.7706 36.7544 31.0948 36.4454Z" fill="#F7E2D9"/>
<path d="M32.5778 34.3095C32.6204 34.3095 32.6629 34.3095 32.7068 34.3095C32.482 34.8223 32.1037 35.2849 31.7396 35.7334C31.7184 35.6611 31.6971 35.5888 31.6752 35.5143C31.7177 35.5143 31.7603 35.5143 31.8041 35.5143C31.8041 35.4601 31.8041 35.4059 31.8041 35.35C31.8467 35.35 31.8892 35.35 31.9331 35.35C31.953 35.2981 31.973 35.2461 31.9935 35.1926C32.062 35.0214 32.062 35.0214 32.1265 34.9119C32.1691 34.9119 32.2116 34.9119 32.2554 34.9119C32.2679 34.8776 32.2804 34.8433 32.2932 34.8079C32.31 34.7632 32.3268 34.7184 32.3441 34.6723C32.3688 34.6056 32.3688 34.6056 32.394 34.5375C32.4489 34.419 32.4489 34.419 32.5778 34.3095Z" fill="#D67C75"/>
<path d="M25.6144 40.3885C25.6144 40.4246 25.6144 40.4608 25.6144 40.498C25.4437 40.578 25.3633 40.6076 25.1631 40.6076C25.1418 40.6618 25.1205 40.716 25.0986 40.7718C24.9714 40.8007 24.8438 40.8289 24.715 40.8521C24.571 40.8782 24.571 40.8782 24.4176 40.967C24.2176 41.0671 24.038 41.0814 23.8091 41.1004C23.8931 40.9578 23.9622 40.9495 24.1342 40.8902C24.1875 40.8715 24.2409 40.8528 24.2958 40.8336C24.3519 40.8143 24.4081 40.7951 24.4659 40.7753C24.5757 40.7372 24.6854 40.6991 24.7951 40.6608C24.8473 40.6426 24.8996 40.6244 24.9534 40.6057C25.0788 40.56 25.2015 40.5088 25.3235 40.4567C25.4854 40.3885 25.4854 40.3885 25.6144 40.3885Z" fill="#F6D9D3"/>
<path d="M11.043 6.6528C11.0833 6.75206 11.0833 6.75206 11.1075 6.87186C11.0437 6.95319 11.0437 6.95319 10.9785 7.03616C10.936 7.03616 10.8934 7.03616 10.8496 7.03616C10.8469 7.07231 10.8443 7.10845 10.8415 7.14569C10.7599 7.38328 10.5971 7.56831 10.3983 7.74812C10.3344 7.76619 10.2706 7.78426 10.2048 7.80288C10.3111 7.5272 10.5018 7.30856 10.6965 7.07381C10.7297 7.03326 10.7629 6.9927 10.7972 6.95091C10.8789 6.85137 10.9608 6.75201 11.043 6.6528Z" fill="#DB8881"/>
<path d="M29.5474 37.8693C29.5687 37.9235 29.5899 37.9778 29.6119 38.0336C29.5113 38.1205 29.4105 38.2072 29.3096 38.2938C29.2535 38.342 29.1974 38.3903 29.1396 38.4401C28.6994 38.8003 28.6994 38.8003 28.3868 38.8003C28.3868 38.7642 28.3868 38.7281 28.3868 38.6908C28.4725 38.6429 28.5584 38.5954 28.6452 38.549C28.9715 38.3528 29.2651 38.1091 29.5474 37.8693Z" fill="#F8E4DC"/>
<path d="M4.85331 23.5754C4.91714 23.5935 4.98097 23.6116 5.04673 23.6302C5.00709 23.6923 4.96744 23.7545 4.9266 23.8185C4.87394 23.9017 4.8213 23.985 4.76868 24.0683C4.74263 24.1091 4.71657 24.1498 4.68972 24.1918C4.52372 24.4554 4.38968 24.7172 4.27303 24.9994C4.20393 24.7994 4.22376 24.6563 4.27303 24.4517C4.31558 24.4517 4.35814 24.4517 4.40198 24.4517C4.40996 24.4212 4.41794 24.3907 4.42616 24.3593C4.47031 24.2205 4.53037 24.0914 4.5954 23.9588C4.63796 23.9588 4.68051 23.9588 4.72435 23.9588C4.72435 23.9046 4.72435 23.8504 4.72435 23.7945C4.76691 23.7945 4.80946 23.7945 4.85331 23.7945C4.85331 23.7222 4.85331 23.6499 4.85331 23.5754Z" fill="#D37E77"/>
<path d="M12.2681 41.3195C12.3823 41.3258 12.4965 41.3328 12.6106 41.3401C12.706 41.3458 12.706 41.3458 12.8033 41.3516C12.9773 41.3743 12.9773 41.3743 13.1707 41.4838C13.2894 41.5059 13.4092 41.5237 13.5294 41.5386C13.8851 41.585 14.2369 41.6407 14.5892 41.7029C14.5892 41.721 14.5892 41.739 14.5892 41.7576C14.2066 41.7683 13.8728 41.7335 13.5012 41.6584C13.4506 41.6485 13.4001 41.6387 13.3481 41.6285C12.9836 41.5561 12.6235 41.4744 12.2681 41.3743C12.2681 41.3562 12.2681 41.3381 12.2681 41.3195Z" fill="#DE8177"/>
<path d="M10.914 36.6644C10.9888 36.6829 11.0636 36.7014 11.1407 36.7204C11.7065 36.8583 12.2632 36.9824 12.8483 37.0477C12.8483 37.0658 12.8483 37.0839 12.8483 37.1025C12.2065 37.0885 11.5693 37.0676 10.9785 36.8287C10.9572 36.7744 10.9359 36.7202 10.914 36.6644Z" fill="#D37D74"/>
<path d="M3.11249 35.5144C3.34482 35.5802 3.37209 35.6333 3.49934 35.8053C3.59598 35.9346 3.69075 36.0598 3.80157 36.1808C3.88619 36.2811 3.88619 36.2811 3.88619 36.3906C3.92874 36.3906 3.9713 36.3906 4.01514 36.3906C4.15215 36.4899 4.15215 36.4899 4.27304 36.6097C4.27304 36.6639 4.27304 36.7181 4.27304 36.774C4.3156 36.774 4.35815 36.774 4.40199 36.774C4.38072 36.8282 4.35944 36.8824 4.33752 36.9383C3.11249 35.7679 3.11249 35.7679 3.11249 35.5144Z" fill="#D68276"/>
<path d="M10.0759 40.6076C10.5501 40.5628 10.8628 40.6852 11.2364 40.9362C11.2364 40.9723 11.2364 41.0085 11.2364 41.0457C10.8226 40.9506 10.4538 40.8348 10.0759 40.6624C10.0759 40.6443 10.0759 40.6262 10.0759 40.6076Z" fill="#DD8C85"/>
<path d="M1.17822 32.3927C1.22078 32.3927 1.26333 32.3927 1.30717 32.3927C1.40351 32.5688 1.49948 32.745 1.59479 32.9215C1.65063 33.0245 1.70698 33.1274 1.76505 33.2296C1.86837 33.4166 1.89491 33.5111 1.82298 33.707C1.73953 33.5668 1.65628 33.4264 1.57313 33.286C1.54961 33.2465 1.52609 33.207 1.50186 33.1663C1.17822 32.619 1.17822 32.619 1.17822 32.3927Z" fill="#DA837A"/>
<path d="M4.33759 31.1879C4.55373 31.3558 4.64361 31.5535 4.75265 31.78C4.88875 32.0619 5.03837 32.3033 5.24024 32.557C5.2886 32.7418 5.2886 32.7418 5.30471 32.8856C5.11369 32.689 4.98877 32.473 4.85742 32.2455C4.82338 32.1871 4.82338 32.1871 4.78866 32.1274C4.33759 31.3485 4.33759 31.3485 4.33759 31.1879Z" fill="#FBE3DD"/>
<path d="M34.5764 23.7397C34.8717 23.9864 34.887 24.2136 34.9149 24.5475C34.9199 24.5944 34.9249 24.6412 34.93 24.6895C34.9605 24.9944 34.9676 25.2959 34.9633 25.6017C34.942 25.6017 34.9207 25.6017 34.8988 25.6017C34.8959 25.5714 34.893 25.5411 34.89 25.5099C34.8297 24.773 34.8297 24.773 34.6142 24.0614C34.5764 23.9587 34.5764 23.9587 34.5764 23.7397Z" fill="#F4D6D2"/>
<path d="M1.04931 21.8776C1.12264 22.064 1.10346 22.1939 1.05334 22.3842C1.04079 22.4331 1.02824 22.4819 1.01531 22.5322C1.00525 22.5692 0.995197 22.6062 0.984835 22.6443C0.942282 22.6443 0.899728 22.6443 0.855885 22.6443C0.84882 22.6866 0.841756 22.7288 0.834477 22.7723C0.824254 22.8272 0.814031 22.8821 0.803499 22.9387C0.793774 22.9934 0.78405 23.048 0.774031 23.1043C0.726934 23.2468 0.726934 23.2468 0.533508 23.3563C0.673671 22.8516 0.822836 22.3606 1.04931 21.8776Z" fill="#DA817C"/>
<path d="M7.17453 21.6038C7.20065 21.99 7.16676 22.3411 6.98111 22.6991C6.93855 22.7172 6.896 22.7353 6.85216 22.7539C6.88694 22.3875 6.97383 22.062 7.11006 21.7134C6.9824 21.7495 6.85474 21.7856 6.72321 21.8229C6.74448 21.7687 6.76576 21.7144 6.78768 21.6586C6.91663 21.6038 6.91663 21.6038 7.17453 21.6038Z" fill="#D7847A"/>
<path d="M3.56388 27.409C3.58516 27.409 3.60644 27.409 3.62836 27.409C3.62836 27.897 3.62836 28.385 3.62836 28.8877C3.3859 28.6818 3.4367 28.3449 3.43493 28.0662C3.4636 27.8441 3.50786 27.6273 3.56388 27.409Z" fill="#D48076"/>
<path d="M6.65867 26.4232C6.67995 26.4232 6.70123 26.4232 6.72315 26.4232C6.8605 26.8945 6.88978 27.3644 6.91658 27.8472C6.63139 27.381 6.64331 26.9394 6.65867 26.4232Z" fill="#D6807A"/>
<path d="M3.95065 25.6565C3.97193 25.6565 3.9932 25.6565 4.01513 25.6565C4.00777 25.8163 3.9996 25.976 3.99095 26.1357C3.98895 26.1809 3.98696 26.2261 3.9849 26.2726C3.98241 26.3164 3.97992 26.3601 3.97735 26.4052C3.97431 26.4655 3.97431 26.4655 3.97121 26.5269C3.94822 26.6559 3.89671 26.7482 3.8217 26.8613C3.77915 26.8613 3.73659 26.8613 3.69275 26.8613C3.74085 26.4528 3.84539 26.0569 3.95065 25.6565Z" fill="#F7D9D1"/>
<path d="M32.8357 19.8513C33.0041 19.9228 33.0083 19.9773 33.0714 20.1256C33.0908 20.1706 33.1102 20.2157 33.1301 20.2621C33.15 20.3095 33.1698 20.3569 33.1903 20.4058C33.2102 20.452 33.23 20.4982 33.2505 20.5457C33.3609 20.8049 33.4601 21.064 33.5449 21.33C33.0655 20.9458 32.9762 20.3744 32.8357 19.8513Z" fill="#D9857E"/>
<path d="M14.2667 2.87393C14.288 2.92815 14.3092 2.98237 14.3312 3.03823C14.2893 3.06703 14.2893 3.06703 14.2465 3.09642C14.1219 3.20623 14.1219 3.20623 14.0491 3.39078C13.9382 3.59734 13.8403 3.67964 13.6219 3.80495C13.5794 3.78688 13.5368 3.76881 13.493 3.75018C13.7483 3.46102 14.0036 3.17186 14.2667 2.87393Z" fill="#D7817C"/>
<path d="M18.78 0.847595C18.9657 1.00068 19.146 1.15727 19.32 1.31995C19.3706 1.36676 19.3706 1.36676 19.4223 1.41451C19.4444 1.4443 19.4665 1.47409 19.4893 1.50478C19.468 1.559 19.4467 1.61322 19.4248 1.66908C19.3822 1.66908 19.3397 1.66908 19.2958 1.66908C19.2746 1.61486 19.2533 1.56065 19.2314 1.50478C19.1994 1.47881 19.1675 1.45283 19.1346 1.42606C19.0223 1.32669 19.0006 1.25529 18.9735 1.12142C18.9309 1.12142 18.8883 1.12142 18.8445 1.12142C18.8232 1.03106 18.802 0.940697 18.78 0.847595Z" fill="#D5827C"/>
<path d="M16.0721 36.2263C16.5761 36.1843 16.967 36.3337 17.4261 36.5001C17.2248 36.5553 17.1044 36.5534 16.9032 36.5003C16.8303 36.4815 16.8303 36.4815 16.7559 36.4624C16.6807 36.4421 16.6807 36.4421 16.604 36.4214C16.5529 36.4081 16.5018 36.3948 16.4491 36.3811C16.3233 36.3482 16.1976 36.3147 16.0721 36.2811C16.0721 36.263 16.0721 36.2449 16.0721 36.2263Z" fill="#D47D73"/>
<path d="M10.8494 40.9362C11.1686 40.9904 11.1686 40.9904 11.4942 41.0457C11.4942 41.0818 11.4942 41.118 11.4942 41.1552C11.5311 41.1631 11.568 41.1709 11.606 41.179C11.6542 41.1892 11.7024 41.1994 11.7521 41.21C11.7976 41.2197 11.8432 41.2293 11.8901 41.2393C12.016 41.266 12.142 41.2928 12.2679 41.3195C12.2679 41.3376 12.2679 41.3557 12.2679 41.3743C11.859 41.354 11.54 41.3085 11.1718 41.1552C11.0645 41.1184 10.9571 41.0817 10.8494 41.0457C10.8494 41.0095 10.8494 40.9734 10.8494 40.9362Z" fill="#F5D6CE"/>
<path d="M31.5461 35.7334C31.5887 35.7515 31.6312 35.7696 31.6751 35.7882C31.5828 35.9048 31.4901 36.0212 31.397 36.1373C31.371 36.1704 31.3449 36.2034 31.3181 36.2374C31.1897 36.397 31.0929 36.5012 30.9014 36.6097C30.8801 36.5555 30.8588 36.5012 30.8369 36.4454C30.8768 36.4431 30.9167 36.4409 30.9578 36.4385C31.003 36.4227 31.0482 36.4069 31.0948 36.3906C31.1396 36.2816 31.1823 36.172 31.2238 36.062C31.3227 35.9438 31.4312 35.8413 31.5461 35.7334Z" fill="#D87C73"/>
<path d="M1.88749 19.9609C1.93005 19.9789 1.9726 19.997 2.01644 20.0156C1.8675 20.341 1.71857 20.6663 1.56512 21.0014C1.54384 21.0014 1.52256 21.0014 1.50064 21.0014C1.48343 20.7481 1.52725 20.5854 1.6578 20.3579C1.68697 20.3063 1.71614 20.2546 1.7462 20.2013C1.79324 20.1212 1.84033 20.041 1.88749 19.9609Z" fill="#FCE6E1"/>
<path d="M14.9759 2.05246C14.9972 2.12475 15.0185 2.19704 15.0404 2.27152C14.9766 2.2896 14.9127 2.30767 14.847 2.32629C14.8247 2.39915 14.8034 2.47222 14.7825 2.54535C14.6995 2.6565 14.6139 2.76633 14.5246 2.87395C14.4608 2.85587 14.3969 2.8378 14.3312 2.81918C14.4023 2.73244 14.4735 2.64573 14.5448 2.55904C14.6042 2.48661 14.6042 2.48661 14.6649 2.41272C14.7663 2.291 14.8698 2.1712 14.9759 2.05246Z" fill="#DD8C84"/>
<path d="M29.354 37.8145C29.4391 37.8326 29.5242 37.8507 29.6119 37.8693C29.5089 37.9598 29.4054 38.0498 29.3016 38.1397C29.244 38.1899 29.1864 38.2401 29.1271 38.2918C28.9672 38.417 28.9672 38.417 28.7737 38.4717C28.7737 38.4175 28.7737 38.3633 28.7737 38.3074C28.8801 38.2713 28.9865 38.2351 29.0961 38.1979C29.0961 38.1437 29.0961 38.0895 29.0961 38.0336C29.1387 38.0336 29.1812 38.0336 29.2251 38.0336C29.2251 37.9975 29.2251 37.9613 29.2251 37.9241C29.2676 37.9241 29.3102 37.9241 29.354 37.9241C29.354 37.8879 29.354 37.8518 29.354 37.8145Z" fill="#D78176"/>
<path d="M8.72186 31.2974C8.83872 31.3008 8.83872 31.3008 8.97976 31.3521C9.02854 31.444 9.0766 31.5363 9.11753 31.6309C9.17839 31.7453 9.25138 31.8209 9.3505 31.9135C9.39837 31.9632 9.44624 32.0129 9.49557 32.0641C9.47429 32.1183 9.45301 32.1725 9.43109 32.2284C9.32445 32.1146 9.21844 32.0005 9.11274 31.8861C9.08253 31.854 9.05232 31.8219 9.02119 31.7888C8.87186 31.6263 8.76909 31.4993 8.72186 31.2974Z" fill="#D27C72"/>
<path d="M27.5486 39.1289C27.6337 39.1469 27.7188 39.165 27.8065 39.1836C27.5086 39.3644 27.2107 39.5451 26.9038 39.7313C26.8826 39.6771 26.8613 39.6229 26.8394 39.567C26.9683 39.4575 26.9683 39.4575 27.1013 39.4335C27.1631 39.4183 27.1631 39.4183 27.2262 39.4027C27.2475 39.3485 27.2688 39.2943 27.2907 39.2384C27.3758 39.2384 27.4609 39.2384 27.5486 39.2384C27.5486 39.2023 27.5486 39.1661 27.5486 39.1289Z" fill="#DC7F74"/>
<path d="M11.6878 5.88602C11.7522 6.05031 11.7522 6.05031 11.6925 6.1622C11.6483 6.22034 11.6483 6.22034 11.6031 6.27965C11.5596 6.33842 11.5596 6.33842 11.5152 6.39838C11.473 6.44296 11.473 6.44296 11.4299 6.48844C11.3873 6.48844 11.3448 6.48844 11.3009 6.48844C11.2796 6.54266 11.2584 6.59688 11.2364 6.65274C11.1939 6.65274 11.1513 6.65274 11.1075 6.65274C11.1945 6.44262 11.3059 6.28845 11.4702 6.11535C11.5312 6.05044 11.5312 6.05044 11.5936 5.98421C11.6247 5.95181 11.6557 5.9194 11.6878 5.88602Z" fill="#D78A85"/>
<path d="M1.88739 33.7071C1.92994 33.7071 1.9725 33.7071 2.01634 33.7071C2.06297 33.7882 2.06297 33.7882 2.11054 33.871C2.15166 33.9418 2.1928 34.0127 2.23394 34.0836C2.25439 34.1193 2.27484 34.1549 2.2959 34.1916C2.38313 34.3414 2.45656 34.4644 2.59662 34.5833C2.57244 34.6997 2.57244 34.6997 2.53214 34.8024C2.42424 34.6406 2.31695 34.4785 2.20977 34.3164C2.17901 34.2703 2.14826 34.2242 2.11658 34.1767C2.08749 34.1325 2.0584 34.0884 2.02843 34.043C2.00142 34.0022 1.97441 33.9615 1.94658 33.9196C1.88739 33.8166 1.88739 33.8166 1.88739 33.7071Z" fill="#D9877F"/>
<path d="M15.7497 1.23096C15.771 1.2671 15.7923 1.30325 15.8142 1.34049C15.6617 1.59265 15.4941 1.85099 15.1694 1.94291C15.2674 1.64691 15.5095 1.45085 15.7497 1.23096Z" fill="#DD9089"/>
<path d="M33.3514 33.3237C33.3955 33.4136 33.3955 33.4136 33.4159 33.5428C33.3376 33.6959 33.3376 33.6959 33.2265 33.8577C33.19 33.9116 33.1535 33.9655 33.1159 34.0211C33.0873 34.0621 33.0586 34.103 33.029 34.1452C32.9865 34.1452 32.9439 34.1452 32.9001 34.1452C32.9997 33.8451 33.168 33.5913 33.3514 33.3237Z" fill="#F8D7D1"/>
<path d="M6.52966 21.9872C6.55094 22.0234 6.57222 22.0595 6.59414 22.0967C6.53281 22.161 6.47091 22.2248 6.40877 22.2884C6.35716 22.3418 6.35716 22.3418 6.3045 22.3962C6.25638 22.4378 6.25638 22.4378 6.20729 22.4801C6.16473 22.4801 6.12218 22.4801 6.07834 22.4801C6.03578 22.5524 5.99323 22.6247 5.94939 22.6992C5.90683 22.6992 5.86428 22.6992 5.82043 22.6992C5.9195 22.4976 6.06425 22.3712 6.24758 22.22C6.30028 22.1762 6.35297 22.1324 6.40726 22.0873C6.46785 22.0378 6.46785 22.0378 6.52966 21.9872Z" fill="#F7E1DA"/>
<path d="M5.24016 14.5391C5.26144 14.5391 5.28272 14.5391 5.30464 14.5391C5.35126 14.9284 5.35126 14.9284 5.2185 15.0673C5.11121 15.1415 5.11121 15.1415 4.91779 15.251C4.91779 15.0599 4.97606 14.9709 5.07897 14.8026C5.10889 14.7533 5.13882 14.7039 5.16964 14.6531C5.19291 14.6155 5.21619 14.5778 5.24016 14.5391Z" fill="#DD857F"/>
<path d="M4.20856 36.8288C4.46126 37.0371 4.69154 37.2568 4.91779 37.486C4.72839 37.4449 4.72839 37.4449 4.53093 37.3764C4.47452 37.26 4.47452 37.26 4.46646 37.1574C4.40263 37.1574 4.3388 37.1574 4.27303 37.1574C4.25176 37.0489 4.23048 36.9405 4.20856 36.8288Z" fill="#F3CDC4"/>
<path d="M6.46523 22.042C6.40509 22.1038 6.34457 22.1654 6.28389 22.2268C6.25023 22.2611 6.21657 22.2954 6.18189 22.3308C6.07838 22.4253 6.07838 22.4253 5.88495 22.5349C5.86153 22.3558 5.86655 22.2825 5.99376 22.1344C6.16808 22.0263 6.25438 22.0221 6.46523 22.042Z" fill="#D77B71"/>
<path d="M32.1909 18.7013C32.4819 18.8955 32.6078 19.1721 32.7067 19.468C32.6854 19.5041 32.6642 19.5403 32.6422 19.5775C32.4488 19.379 32.4488 19.379 32.4488 19.1942C32.4063 19.1942 32.3637 19.1942 32.3199 19.1942C32.2233 19.0095 32.1909 18.9091 32.1909 18.7013Z" fill="#DA8A82"/>
<path d="M3.17694 17.606C3.21949 17.606 3.26205 17.606 3.30589 17.606C3.19979 17.9173 3.02927 18.1956 2.85456 18.4822C2.7798 18.2917 2.80462 18.2444 2.88277 18.0612C2.90131 18.0169 2.91984 17.9727 2.93894 17.9271C2.95365 17.8934 2.96836 17.8597 2.98352 17.825C3.02607 17.825 3.06862 17.825 3.11247 17.825C3.13374 17.7527 3.15502 17.6804 3.17694 17.606Z" fill="#FBE3DD"/>
<path d="M7.04556 28.4496C7.15558 28.6312 7.25303 28.8164 7.34779 29.0041C7.37729 29.0618 7.4068 29.1196 7.43719 29.1791C7.45689 29.2275 7.47659 29.2759 7.49688 29.3258C7.47561 29.362 7.45433 29.3981 7.43241 29.4354C7.40989 29.4004 7.38736 29.3655 7.36416 29.3295C7.33482 29.2842 7.30548 29.239 7.27525 29.1923C7.24608 29.1472 7.21691 29.1021 7.18685 29.0556C7.12057 28.9467 7.12057 28.9467 7.04556 28.8877C7.03646 28.7415 7.04282 28.5961 7.04556 28.4496Z" fill="#F8D9D3"/>
<path d="M29.6119 14.4843C29.7728 14.6089 29.8741 14.7366 29.9786 14.8984C30.0068 14.9414 30.035 14.9844 30.064 15.0287C30.1277 15.1415 30.1277 15.1415 30.1277 15.251C30.0852 15.251 30.0426 15.251 29.9988 15.251C29.9016 15.1389 29.9016 15.1389 29.7973 14.9909C29.7626 14.9426 29.7278 14.8943 29.692 14.8445C29.6119 14.7033 29.6119 14.7033 29.6119 14.4843Z" fill="#D9867F"/>
<path d="M7.23886 11.6364C7.30334 11.746 7.30334 11.746 7.25901 11.9C7.17091 12.0818 7.07467 12.2056 6.91649 12.3484C6.87393 12.3484 6.83138 12.3484 6.78754 12.3484C6.89339 12.0868 7.06255 11.8668 7.23886 11.6364Z" fill="#D8857D"/>
<path d="M6.20731 13.1151C6.25088 13.2067 6.25088 13.2067 6.27178 13.3342C6.19799 13.4754 6.19799 13.4754 6.09045 13.6217C6.05546 13.6705 6.02047 13.7194 5.98442 13.7697C5.95159 13.8067 5.91876 13.8437 5.88493 13.8818C5.84238 13.8818 5.79982 13.8818 5.75598 13.8818C5.85014 13.591 6.0128 13.3636 6.20731 13.1151Z" fill="#D98882"/>
<path d="M14.2667 2.70959C14.3092 2.70959 14.3518 2.70959 14.3956 2.70959C14.2958 2.8929 14.1705 3.0517 14.0329 3.21618C13.9922 3.26503 13.9515 3.31388 13.9095 3.36422C13.8784 3.40121 13.8474 3.4382 13.8153 3.47632C13.7941 3.4221 13.7728 3.36788 13.7509 3.31202C13.8529 3.16419 13.8529 3.16419 13.9967 3.00054C14.0671 2.91889 14.0671 2.91889 14.139 2.8356C14.1811 2.79402 14.2232 2.75244 14.2667 2.70959Z" fill="#F9DED9"/>
<path d="M19.4893 1.61432C19.7423 1.817 19.9371 2.02778 20.134 2.27151C20.0702 2.29862 20.0702 2.29862 20.0051 2.32627C20.0051 2.29013 20.0051 2.25398 20.0051 2.21674C19.9412 2.19867 19.8774 2.1806 19.8116 2.16198C19.8116 2.10776 19.8116 2.05354 19.8116 1.99768C19.7704 1.98525 19.7292 1.97283 19.6867 1.96003C19.5537 1.88815 19.5537 1.88815 19.5054 1.74439C19.5001 1.70146 19.4947 1.65854 19.4893 1.61432Z" fill="#D79289"/>
<path d="M17.6839 0.026112C17.7478 0.0622575 17.8116 0.0984029 17.8774 0.135644C17.5369 0.171789 17.1965 0.207934 16.8458 0.245175C17.0105 -0.0346139 17.3649 0.00890547 17.6839 0.026112Z" fill="#D9908C"/>
<path d="M22.9064 41.3195C22.8851 41.3557 22.8639 41.3918 22.8419 41.429C22.6787 41.464 22.5197 41.4929 22.3544 41.518C22.3085 41.5254 22.2627 41.5327 22.2155 41.5403C22.102 41.5584 21.9884 41.5759 21.8748 41.5933C21.9393 41.4838 21.9393 41.4838 22.0589 41.4372C22.3505 41.355 22.5948 41.2992 22.9064 41.3195Z" fill="#E29085"/>
<path d="M9.49564 8.62433C9.53694 8.72124 9.53694 8.72124 9.56011 8.84339C9.50269 8.94672 9.50269 8.94672 9.41504 9.04534C9.38679 9.07831 9.35853 9.11128 9.32941 9.14525C9.23774 9.22675 9.23774 9.22675 9.04431 9.28152C9.1447 9.0257 9.30766 8.83862 9.49564 8.62433Z" fill="#DC8D87"/>
<path d="M16.3299 0.464264C16.3938 0.482337 16.4576 0.500409 16.5234 0.51903C16.3084 0.701582 16.0935 0.884135 15.8786 1.06669C15.8991 0.770925 16.0849 0.654664 16.3299 0.464264Z" fill="#F9E0D7"/>
<path d="M4.46649 31.5164C4.58712 31.6701 4.67476 31.8176 4.76469 31.9854C4.79345 32.0385 4.8222 32.0917 4.85183 32.1465C4.91782 32.2832 4.91782 32.2832 4.91782 32.3927C4.85399 32.3746 4.79016 32.3566 4.72439 32.3379C4.64909 32.2085 4.64909 32.2085 4.58335 32.047C4.56116 31.9941 4.53897 31.9412 4.51611 31.8868C4.46649 31.7355 4.46649 31.7355 4.46649 31.5164Z" fill="#D88B82"/>
<path d="M1.95195 20.0156C1.97323 20.0156 1.99451 20.0156 2.01643 20.0156C1.99515 20.1782 1.97388 20.3409 1.95195 20.5085C1.9094 20.5085 1.86685 20.5085 1.823 20.5085C1.81502 20.5616 1.80705 20.6147 1.79883 20.6694C1.78553 20.7247 1.77223 20.7801 1.75853 20.8371C1.6947 20.8642 1.6947 20.8642 1.62958 20.8918C1.65888 20.7971 1.68849 20.7024 1.71823 20.6077C1.73469 20.555 1.75114 20.5023 1.7681 20.4479C1.81963 20.2992 1.88123 20.1585 1.95195 20.0156Z" fill="#DC847F"/>
<path d="M5.6916 13.8819C5.73593 13.9743 5.73593 13.9743 5.75608 14.1009C5.67145 14.2413 5.67145 14.2413 5.56265 14.3748C5.49882 14.4561 5.49882 14.4561 5.4337 14.5391C5.39115 14.5391 5.34859 14.5391 5.30475 14.5391C5.38977 14.2863 5.51194 14.0955 5.6916 13.8819Z" fill="#DD8B83"/>
<path d="M24.5828 7.58377C24.7927 7.74931 24.9451 7.92645 25.0986 8.13143C25.0774 8.16757 25.0561 8.20372 25.0342 8.24096C24.949 8.20481 24.8639 8.16867 24.7763 8.13143C24.7763 8.04107 24.7763 7.9507 24.7763 7.8576C24.7124 7.83953 24.6486 7.82145 24.5828 7.80283C24.5828 7.73054 24.5828 7.65825 24.5828 7.58377Z" fill="#D8867D"/>
<path d="M16.3299 0.62854C16.3823 0.720957 16.3823 0.720957 16.3944 0.847603C16.2453 0.998209 16.2453 0.998209 16.072 1.12143C16.0294 1.12143 15.9869 1.12143 15.943 1.12143C15.943 1.15758 15.943 1.19372 15.943 1.23096C15.9005 1.21289 15.8579 1.19482 15.8141 1.1762C15.8757 1.10538 15.9376 1.03466 15.9995 0.963981C16.0339 0.924588 16.0683 0.885195 16.1037 0.844608C16.2009 0.738072 16.2009 0.738072 16.3299 0.62854Z" fill="#DD897F"/>
<path d="M21.8748 41.5386C21.6662 41.6362 21.4605 41.6904 21.2301 41.7406C21.1303 41.7629 21.1303 41.7629 21.0286 41.7857C20.8504 41.8114 20.7531 41.8087 20.5853 41.7577C20.7921 41.6406 20.9152 41.6189 21.1575 41.5865C21.2239 41.5773 21.2902 41.5682 21.3585 41.5587C21.5333 41.5406 21.6991 41.5347 21.8748 41.5386Z" fill="#D67B6F"/>
<path d="M24.7762 40.7719C24.453 40.9651 24.2065 41.0793 23.8091 41.1004C23.9068 40.9344 24.0579 40.9137 24.2564 40.8437C24.3261 40.8187 24.3958 40.7936 24.4677 40.7678C24.6473 40.7171 24.6473 40.7171 24.7762 40.7719Z" fill="#F0CAC1"/>
<path d="M16.7812 36.4454C17.0359 36.4756 17.2551 36.5215 17.4905 36.6097C17.4905 36.6639 17.4905 36.7181 17.4905 36.774C17.3841 36.792 17.2777 36.8101 17.1681 36.8287C17.1894 36.7564 17.2107 36.6842 17.2326 36.6097C17.0836 36.5735 16.9347 36.5374 16.7812 36.5001C16.7812 36.4821 16.7812 36.464 16.7812 36.4454Z" fill="#F8D3CC"/>
<path d="M28.129 12.2936C28.1928 12.3207 28.1928 12.3207 28.2579 12.3484C28.2579 12.4207 28.2579 12.493 28.2579 12.5675C28.3005 12.5675 28.343 12.5675 28.3869 12.5675C28.5803 12.8076 28.5803 12.8076 28.5803 12.9508C28.4952 12.9147 28.4101 12.8785 28.3224 12.8413C28.3224 12.8052 28.3224 12.769 28.3224 12.7318C28.2798 12.7318 28.2373 12.7318 28.1934 12.7318C28.1722 12.5872 28.1509 12.4426 28.129 12.2936Z" fill="#D88980"/>
<path d="M27.2908 11.1436C27.5026 11.2965 27.614 11.4849 27.7421 11.6913C27.7421 11.7274 27.7421 11.7636 27.7421 11.8008C27.5059 11.7339 27.4616 11.6438 27.3404 11.466C27.2908 11.3627 27.2908 11.3627 27.2908 11.1436Z" fill="#DA8D86"/>
<path d="M7.69026 11.0341C7.75473 11.1436 7.75473 11.1436 7.72778 11.2482C7.71141 11.2871 7.69504 11.326 7.67817 11.3661C7.65486 11.4246 7.65486 11.4246 7.63107 11.4844C7.56131 11.5817 7.56131 11.5817 7.42505 11.6226C7.38491 11.6272 7.34477 11.6318 7.30341 11.6365C7.42031 11.4296 7.55533 11.2327 7.69026 11.0341Z" fill="#D7817D"/>
<path d="M1.37167 20.9467C1.41422 20.9647 1.45678 20.9828 1.50062 21.0014C1.41682 21.2697 1.31211 21.5149 1.17824 21.7681C1.08578 21.5607 1.14536 21.436 1.23869 21.2342C1.27547 21.1533 1.27547 21.1533 1.31299 21.0707C1.33235 21.0298 1.35172 20.9888 1.37167 20.9467Z" fill="#F9E1DA"/>
<path d="M30.579 15.963C30.6757 16.0314 30.6757 16.0314 30.7724 16.1272C30.7724 16.1995 30.7724 16.2718 30.7724 16.3463C30.815 16.3463 30.8575 16.3463 30.9014 16.3463C30.9439 16.4547 30.9865 16.5632 31.0303 16.6749C30.9878 16.6749 30.9452 16.6749 30.9014 16.6749C30.8046 16.5517 30.8046 16.5517 30.7079 16.4011C30.6827 16.3638 30.6574 16.3265 30.6314 16.2881C30.579 16.182 30.579 16.182 30.579 15.963Z" fill="#DF8F86"/>
<path d="M9.49554 36.1168C9.68704 36.1349 9.87853 36.1529 10.0758 36.1716C10.0758 36.2258 10.0758 36.28 10.0758 36.3359C10.1397 36.3359 10.2035 36.3359 10.2692 36.3359C10.2692 36.372 10.2692 36.4081 10.2692 36.4454C9.99624 36.3736 9.74867 36.2842 9.49554 36.1716C9.49554 36.1535 9.49554 36.1354 9.49554 36.1168Z" fill="#F5D4CE"/>
<path d="M5.36924 22.9182C5.43308 22.9363 5.49691 22.9543 5.56267 22.9729C5.50107 23.0529 5.43923 23.1328 5.3773 23.2125C5.3429 23.257 5.30849 23.3015 5.27304 23.3473C5.17582 23.4658 5.17582 23.4658 5.04687 23.5754C5.03392 23.3719 5.03707 23.314 5.17582 23.1372C5.21837 23.1372 5.26093 23.1372 5.30477 23.1372C5.32605 23.065 5.34732 22.9927 5.36924 22.9182Z" fill="#D27971"/>
<path d="M2.33879 19.4679C2.38135 19.4679 2.4239 19.4679 2.46775 19.4679C2.44222 19.5492 2.41504 19.6302 2.38715 19.7109C2.37219 19.7561 2.35723 19.8012 2.34182 19.8476C2.27432 19.9608 2.27432 19.9608 2.13832 20.0038C2.09809 20.0077 2.05786 20.0116 2.01642 20.0156C2.05522 19.9049 2.0985 19.7954 2.14537 19.687C2.18792 19.6689 2.23048 19.6508 2.27432 19.6322C2.2956 19.578 2.31687 19.5238 2.33879 19.4679Z" fill="#DD7C76"/>
<path d="M28.8382 38.417C28.8807 38.417 28.9233 38.417 28.9671 38.417C28.8845 38.5736 28.8065 38.6947 28.6447 38.8004C28.5596 38.8004 28.4745 38.8004 28.3868 38.8004C28.3868 38.7642 28.3868 38.7281 28.3868 38.6908C28.5137 38.6152 28.6427 38.5421 28.7737 38.4718C28.795 38.4537 28.8162 38.4356 28.8382 38.417Z" fill="#F0D5CC"/>
<path d="M33.8027 32.1189C33.8452 32.1189 33.8878 32.1189 33.9316 32.1189C33.9026 32.208 33.8729 32.2969 33.843 32.3858C33.8265 32.4354 33.8101 32.485 33.7931 32.536C33.7382 32.6665 33.7382 32.6665 33.6093 32.7761C33.6166 32.6973 33.6249 32.6186 33.6334 32.5399C33.6379 32.496 33.6424 32.4522 33.647 32.407C33.6737 32.2832 33.6737 32.2832 33.8027 32.1189Z" fill="#DB8980"/>
<path d="M9.49554 32.2284C9.5381 32.2284 9.58065 32.2284 9.6245 32.2284C9.71287 32.318 9.79861 32.4095 9.8824 32.5023C9.94573 32.558 10.0097 32.6132 10.0758 32.6666C10.0545 32.7208 10.0333 32.775 10.0113 32.8308C9.92519 32.7408 9.83927 32.6507 9.75345 32.5604C9.70557 32.5102 9.6577 32.4601 9.60838 32.4083C9.49554 32.2832 9.49554 32.2832 9.49554 32.2284Z" fill="#D57F78"/>
<path d="M3.17703 17.825C3.19831 17.825 3.21958 17.825 3.2415 17.825C3.25762 17.9756 3.25762 17.9756 3.2415 18.1536C3.11255 18.2837 3.11255 18.2837 2.9836 18.3727C2.96233 18.3365 2.94105 18.3004 2.91913 18.2631C2.96925 18.1566 2.96925 18.1566 3.04405 18.0372C3.08083 17.9777 3.08083 17.9777 3.11835 17.917C3.13771 17.8866 3.15708 17.8563 3.17703 17.825Z" fill="#DD8B86"/>
<path d="M7.10992 21.7134C7.08864 21.8399 7.06736 21.9664 7.04544 22.0967C7.02417 22.0967 7.00289 22.0967 6.98097 22.0967C6.98097 22.0064 6.98097 21.916 6.98097 21.8229C6.89586 21.8771 6.81075 21.9313 6.72307 21.9872C6.68051 21.9691 6.63796 21.9511 6.59412 21.9324C6.89231 21.7134 6.89231 21.7134 7.10992 21.7134Z" fill="#FADCD3"/>
<path d="M4.78887 15.251C4.83722 15.3366 4.83722 15.3366 4.85334 15.4701C4.78043 15.6071 4.69078 15.7258 4.59544 15.8534C4.55289 15.8534 4.51033 15.8534 4.46649 15.8534C4.54549 15.6315 4.6405 15.4458 4.78887 15.251Z" fill="#DC8E89"/>
<path d="M28.9026 13.4437C29.0714 13.5734 29.1817 13.7119 29.2895 13.8819C29.2895 13.918 29.2895 13.9541 29.2895 13.9914C29.2257 13.9914 29.1618 13.9914 29.0961 13.9914C29.0636 13.9207 29.0314 13.85 28.9994 13.7792C28.9814 13.7398 28.9635 13.7004 28.945 13.6598C28.9026 13.5533 28.9026 13.5533 28.9026 13.4437Z" fill="#DC8C86"/>
<path d="M25.421 8.67911C25.6197 8.83096 25.7233 8.9564 25.8079 9.172C25.6507 9.11039 25.6507 9.11039 25.4855 9.0077C25.4331 8.83314 25.4331 8.83314 25.421 8.67911Z" fill="#D58B83"/>
<path d="M10.5272 40.6623C10.8178 40.6914 11.0055 40.7857 11.2364 40.9362C11.2364 40.9723 11.2364 41.0084 11.2364 41.0457C10.9715 40.9663 10.7549 40.8565 10.5272 40.7171C10.5272 40.699 10.5272 40.6809 10.5272 40.6623Z" fill="#DB7B75"/>
<path d="M15.9431 36.2263C16.2942 36.3076 16.2942 36.3076 16.6523 36.3906C16.6523 36.4087 16.6523 36.4267 16.6523 36.4454C16.5712 36.4476 16.4901 36.4499 16.4065 36.4522C16.3609 36.4535 16.3153 36.4547 16.2683 36.456C16.1365 36.4454 16.1365 36.4454 15.9431 36.3358C15.9431 36.2997 15.9431 36.2635 15.9431 36.2263Z" fill="#F6E0DA"/>
<path d="M3.75721 29.7639C3.95103 29.9286 3.92457 30.0829 3.95063 30.3116C3.8868 30.2755 3.82297 30.2393 3.75721 30.2021C3.73087 30.0535 3.74861 29.9149 3.75721 29.7639Z" fill="#D8857E"/>
<path d="M31.0304 16.6749C31.2523 16.8206 31.288 16.9982 31.3528 17.2226C31.1593 17.1678 31.1593 17.1678 31.0828 17.0412C31.0304 16.894 31.0304 16.894 31.0304 16.6749Z" fill="#D98982"/>
<path d="M16.7168 0.245178C16.7593 0.245178 16.8019 0.245178 16.8457 0.245178C16.8201 0.403219 16.7948 0.454487 16.6483 0.560082C16.6071 0.582672 16.5658 0.605263 16.5234 0.628539C16.4808 0.610466 16.4383 0.592393 16.3944 0.573773C16.4986 0.461985 16.6063 0.352479 16.7168 0.245178Z" fill="#D98981"/>
<path d="M7.43231 39.2932C7.59189 39.3203 7.59189 39.3203 7.75469 39.3479C7.75469 39.3841 7.75469 39.4202 7.75469 39.4575C7.79591 39.4733 7.83714 39.4891 7.87961 39.5054C8.01259 39.567 8.01259 39.567 8.07706 39.6765C7.84626 39.5861 7.63993 39.4722 7.43231 39.3479C7.43231 39.3299 7.43231 39.3118 7.43231 39.2932Z" fill="#D5897D"/>
<path d="M28.129 38.7455C28.2141 38.7636 28.2992 38.7817 28.3869 38.8003C28.0997 38.9629 28.0997 38.9629 27.8066 39.1289C27.8279 39.0566 27.8492 38.9843 27.8711 38.9098C27.9349 38.9098 27.9988 38.9098 28.0645 38.9098C28.0858 38.8556 28.1071 38.8014 28.129 38.7455Z" fill="#D47F75"/>
<path d="M4.91779 32.3927C5.11712 32.5312 5.16984 32.6788 5.24016 32.8856C5.04674 32.8308 5.04674 32.8308 4.97017 32.7315C4.91779 32.6117 4.91779 32.6117 4.91779 32.3927Z" fill="#D7857D"/>
<path d="M26.2592 9.82922C26.4203 9.95587 26.4203 9.95587 26.5815 10.1031C26.5815 10.1573 26.5815 10.2115 26.5815 10.2674C26.5177 10.2493 26.4539 10.2312 26.3881 10.2126C26.3115 10.0175 26.3115 10.0175 26.2592 9.82922Z" fill="#D6877C"/>
<path d="M8.5929 39.9504C8.74183 39.9685 8.89077 39.9865 9.04422 40.0051C9.04422 40.0413 9.04422 40.0774 9.04422 40.1147C9.08678 40.1147 9.12933 40.1147 9.17317 40.1147C9.17317 40.1508 9.17317 40.187 9.17317 40.2242C8.95014 40.1558 8.77685 40.0777 8.5929 39.9504Z" fill="#D38178"/>
<path d="M8.72186 31.2974C8.80697 31.3154 8.89208 31.3335 8.97976 31.3521C9.00104 31.4786 9.02232 31.6051 9.04424 31.7355C8.86379 31.597 8.75683 31.5052 8.72186 31.2974Z" fill="#DB8278"/>
<path d="M1.69404 20.5085C1.71532 20.5447 1.7366 20.5808 1.75852 20.6181C1.69818 20.7473 1.63386 20.8753 1.56509 21.0014C1.54381 21.0014 1.52254 21.0014 1.50062 21.0014C1.47681 20.6981 1.47681 20.6981 1.59733 20.5702C1.62924 20.5498 1.66116 20.5295 1.69404 20.5085Z" fill="#F9D6CD"/>
<path d="M3.43486 17.1678C3.49869 17.1678 3.56252 17.1678 3.62828 17.1678C3.58573 17.2763 3.54318 17.3847 3.49933 17.4964C3.45678 17.4964 3.41423 17.4964 3.37038 17.4964C3.34911 17.5326 3.32783 17.5687 3.30591 17.6059C3.30591 17.5337 3.30591 17.4614 3.30591 17.3869C3.34846 17.3869 3.39102 17.3869 3.43486 17.3869C3.43486 17.3146 3.43486 17.2423 3.43486 17.1678Z" fill="#F3CEC6"/>
<path d="M27.7421 11.8007C27.9407 11.9526 28.0443 12.078 28.1289 12.2936C27.9355 12.2388 27.9355 12.2388 27.8267 12.078C27.7421 11.9103 27.7421 11.9103 27.7421 11.8007Z" fill="#D69087"/>
<path d="M10.1402 7.80289C10.1615 7.87518 10.1828 7.94747 10.2047 8.02195C10.0132 8.1575 10.0132 8.1575 9.81787 8.29578C9.89841 8.10633 9.99036 7.95914 10.1402 7.80289Z" fill="#DB8E85"/>
<path d="M23.2933 5.9408C23.4385 6.08803 23.5436 6.19526 23.6157 6.37892C23.5518 6.37892 23.488 6.37892 23.4222 6.37892C23.3084 6.2098 23.2933 6.14709 23.2933 5.9408Z" fill="#DB8981"/>
<path d="M11.9455 5.39316C11.9881 5.39316 12.0306 5.39316 12.0745 5.39316C11.976 5.58133 11.8424 5.72828 11.6876 5.88605C11.7215 5.6786 11.7767 5.54806 11.9455 5.39316Z" fill="#FAE0D8"/>
<path d="M18.2643 0.354736C18.3401 0.405478 18.4152 0.456964 18.4899 0.508765C18.5318 0.537357 18.5737 0.565948 18.6169 0.595406C18.7156 0.683331 18.7156 0.683331 18.7156 0.847629C18.5217 0.691581 18.3753 0.560923 18.2643 0.354736Z" fill="#D78B85"/>
<path d="M31.0948 36.4454C31.1351 36.5481 31.1351 36.5481 31.1593 36.6644C31.1167 36.7006 31.0742 36.7367 31.0303 36.774C30.9665 36.774 30.9027 36.774 30.8369 36.774C30.9112 36.6388 30.9689 36.5523 31.0948 36.4454Z" fill="#F0D2CA"/>
<path d="M7.10992 34.7477C7.48872 34.953 7.48872 34.953 7.56125 35.0762C7.36976 35.0491 7.36976 35.0491 7.1744 35.0215C7.15312 34.9311 7.13185 34.8408 7.10992 34.7477Z" fill="#D88B80"/>
<path d="M5.8205 13.4985C5.86305 13.5166 5.90561 13.5347 5.94945 13.5533C5.86434 13.6979 5.77923 13.8424 5.69155 13.9914C5.62707 13.7723 5.62707 13.7723 5.71976 13.6217C5.753 13.5811 5.78625 13.5404 5.8205 13.4985Z" fill="#FDE6E0"/>
<path d="M25.0986 8.24103C25.2742 8.36988 25.3445 8.49432 25.4209 8.67915C25.296 8.64493 25.296 8.64493 25.163 8.56962C25.1147 8.39848 25.1147 8.39848 25.0986 8.24103Z" fill="#DA8D86"/>
</svg>
