<svg width="49" height="44" viewBox="0 0 49 44" fill="none" xmlns="http://www.w3.org/2000/svg">
<path d="M35.0884 0.00021015C35.1713 0.000140801 35.2542 7.1451e-05 35.3396 0C36.5631 0.000116005 37.7835 0.00636683 38.9986 0.178452C39.423 0.236201 39.8466 0.29209 40.2729 0.329522C41.3362 0.425411 42.3801 0.601913 43.4312 0.800123C43.5002 0.812963 43.5693 0.825803 43.6404 0.839032C44.3925 0.979724 45.1383 1.13831 45.8795 1.33784C45.941 1.35414 46.0024 1.37044 46.0657 1.38724C46.8339 1.60133 47.5266 1.92545 47.9548 2.69367C48.5645 4.08383 48.0712 6.31808 47.8858 7.78034C47.8349 8.18287 47.795 8.58641 47.7599 8.99096C47.7338 9.27066 47.6851 9.5333 47.6197 9.80479C47.5512 10.1276 47.518 10.458 47.4759 10.786C47.3589 11.6582 47.1902 12.5098 47.0001 13.3659C46.9562 13.5649 46.9138 13.7643 46.8721 13.9639C46.7059 14.7565 46.515 15.5385 46.3052 16.3185C46.2575 16.4965 46.2107 16.6747 46.164 16.853C45.9778 17.5567 45.7663 18.2449 45.5297 18.9302C45.4501 19.1612 45.3778 19.3939 45.3071 19.6285C45.2253 19.8855 45.1417 20.1418 45.0578 20.398C45.0358 20.4662 45.0138 20.5344 44.9911 20.6046C44.9695 20.6707 44.9478 20.7367 44.9255 20.8047C44.8963 20.8942 44.8963 20.8942 44.8666 20.9854C44.7956 21.1717 44.7065 21.3345 44.6106 21.5066C44.5671 21.6054 44.5252 21.7051 44.4852 21.8057C44.4515 21.8895 44.4515 21.8895 44.4171 21.9751C44.3934 22.0342 44.3698 22.0934 44.3454 22.1543C43.7135 23.7119 42.9893 25.2247 42.141 26.6538C42.0967 26.7287 42.0525 26.8036 42.0069 26.8807C41.3715 27.9412 40.6655 28.9491 39.9247 29.923C39.8961 29.9608 39.8675 29.9985 39.8381 30.0374C39.4634 30.5314 39.0796 31.0064 38.6587 31.4537C38.4735 31.6512 38.3125 31.858 38.1516 32.0793C38.0745 32.1585 37.9953 32.2355 37.9142 32.3097C37.7368 32.4756 37.5722 32.6463 37.4115 32.8314C37.1387 33.1358 36.8337 33.3877 36.5238 33.6438C36.3333 33.8016 36.1498 33.9673 35.967 34.1356C35.5927 34.4748 35.1978 34.7733 34.7955 35.0703C34.7446 35.1082 34.6936 35.1461 34.6411 35.1852C34.275 35.456 33.9032 35.7173 33.529 35.9745C33.4443 36.0333 33.4443 36.0333 33.3579 36.0933C33.2124 36.1832 33.2124 36.1832 33.0858 36.1832C33.0858 36.2291 33.0858 36.275 33.0858 36.3223C33.0209 36.3518 32.956 36.3813 32.8891 36.4117C32.6656 36.517 32.4553 36.6401 32.2428 36.7701C30.9494 37.5389 29.5922 38.142 28.2099 38.6873C28.1431 38.7138 28.0763 38.7404 28.0075 38.7677C27.0348 39.1511 26.0542 39.4269 25.0437 39.6611C24.9665 39.6792 24.8892 39.6973 24.8096 39.716C23.1053 40.1148 21.3978 40.4784 19.6573 40.6132C19.6019 40.6175 19.5464 40.6219 19.4893 40.6263C16.5283 40.8517 13.5604 40.7478 10.6355 40.1879C10.4119 40.1472 10.1881 40.1133 9.96346 40.0803C9.55766 40.0179 9.16593 39.9225 8.76972 39.8089C8.70407 39.7904 8.63842 39.772 8.57078 39.753C7.94553 39.5759 7.3251 39.3923 6.71568 39.1568C6.25416 38.9878 5.9443 39.0031 5.49646 39.1981C5.10912 39.5033 4.88052 40.0179 4.65768 40.4697C4.617 40.5513 4.617 40.5513 4.57551 40.6345C4.26661 41.258 3.96799 41.8837 3.72762 42.5434C3.49252 43.1646 3.28353 43.4695 2.71099 43.7577C2.18384 43.9504 1.67862 43.8903 1.17985 43.634C1.11276 43.5956 1.11276 43.5956 1.0443 43.5563C0.977696 43.519 0.911088 43.4817 0.842462 43.4433C0.423017 43.0542 0.078388 42.4803 0.0046678 41.8801C-0.0561609 40.7014 0.488815 39.631 0.980981 38.6177C1.01208 38.5525 1.04318 38.4874 1.07522 38.4202C1.16798 38.2293 1.26368 38.0408 1.36092 37.8526C1.38394 37.808 1.40696 37.7634 1.43067 37.7175C1.69185 37.2142 1.95146 36.7191 2.27119 36.2571C2.57385 35.8123 2.80367 35.3416 2.77901 34.7728C2.72444 34.3591 2.62536 33.9548 2.53376 33.5496C2.23429 32.2014 2.05697 30.7832 2.03793 29.3954C2.03697 29.3259 2.03601 29.2564 2.03501 29.1848C2.00707 26.6977 2.03076 23.8328 2.944 21.5066C2.97771 21.3611 3.00816 21.2147 3.03502 21.0675C3.1024 20.7323 3.18703 20.4293 3.30934 20.1143C3.41574 19.8308 3.5096 19.5428 3.60493 19.2546C3.87035 18.4605 4.15977 17.7052 4.52856 16.9625C4.64093 16.7355 4.74508 16.5049 4.84765 16.2723C5.03229 15.864 5.24921 15.488 5.47692 15.1073C5.53137 15.0135 5.58569 14.9197 5.63993 14.8258C5.9868 14.227 6.34574 13.65 6.74338 13.0901C6.7979 13.0123 6.8524 12.9345 6.90688 12.8567C7.4486 12.0871 8.00751 11.3347 8.64282 10.6556C8.76278 10.5241 8.8735 10.3885 8.98343 10.2469C9.4748 9.62136 10.0179 9.08175 10.6061 8.56884C10.7279 8.46011 10.8494 8.35097 10.971 8.24184C11.678 7.6077 12.3847 6.97817 13.139 6.41255C13.2459 6.33006 13.3528 6.24746 13.4596 6.16475C13.5122 6.12449 13.5649 6.08424 13.6191 6.04276C13.7157 5.96892 13.8118 5.89455 13.9075 5.81941C14.2557 5.55293 14.6233 5.34763 15.0053 5.1472C15.1653 5.05711 15.3091 4.96727 15.459 4.86082C15.8061 4.61813 16.1745 4.4223 16.5426 4.22149C16.6125 4.18284 16.6824 4.1442 16.7544 4.10438C17.2625 3.82593 17.7779 3.57737 18.3069 3.35069C18.4403 3.29051 18.5646 3.22389 18.6916 3.14932C18.984 2.9868 19.2863 2.87817 19.598 2.76947C20.0113 2.62231 20.4199 2.46876 20.8248 2.29561C21.2246 2.12596 21.6266 1.9965 22.0421 1.88153C22.2632 1.82018 22.4816 1.75177 22.7008 1.68263C23.9995 1.28607 25.2849 0.942991 26.6159 0.7091C26.8665 0.665015 27.1163 0.617966 27.3659 0.567268C28.4176 0.356591 29.4736 0.248182 30.5387 0.163597C30.6754 0.152695 30.812 0.141392 30.9487 0.130053C32.3277 0.0179415 33.7062 0.000481474 35.0884 0.00021015Z" fill="#93DAB1"/>
<path d="M36.6951 8.49925C36.4591 8.81897 36.1412 8.94945 35.8086 9.11658C35.6784 9.18353 35.5482 9.25065 35.418 9.31791C35.3139 9.37166 35.3139 9.37166 35.2077 9.4265C34.8482 9.61431 34.4914 9.8081 34.1352 10.0033C34.0557 10.0468 33.9762 10.0901 33.8967 10.1334C33.7848 10.1942 33.6731 10.2555 33.5614 10.3167C33.497 10.3519 33.4327 10.3871 33.3664 10.4234C33.2069 10.5095 33.2069 10.5095 33.0857 10.6555C32.98 10.7057 32.8741 10.7557 32.7676 10.804C32.5501 10.9087 32.3462 11.0398 32.1398 11.1685C31.736 11.4182 31.33 11.6627 30.9216 11.9034C30.3219 12.2572 29.7331 12.6172 29.1597 13.0205C29.0668 13.0847 28.9739 13.1488 28.8809 13.2129C28.2944 13.6174 27.7113 14.0274 27.1306 14.4421C26.9767 14.5519 26.8223 14.6604 26.6671 14.7681C25.7146 15.4297 24.7922 16.1447 23.8881 16.8834C23.6936 17.0416 23.4975 17.1909 23.2904 17.3287C23.1023 17.4574 22.9799 17.5777 22.8274 17.7504C22.3602 18.1678 22.3602 18.1678 22.1942 18.1678C22.1942 18.2137 22.1942 18.2596 22.1942 18.3069C22.1118 18.3705 22.0288 18.4331 21.9438 18.4925C21.7798 18.6097 21.621 18.7337 21.462 18.859C21.4044 18.9041 21.3469 18.9492 21.2876 18.9957C21.1105 19.1477 20.9589 19.3138 20.8011 19.4894C20.6968 19.5866 20.5912 19.6823 20.4844 19.7763C19.8433 20.3473 19.2194 20.934 18.6146 21.5509C18.4616 21.7065 18.3074 21.8607 18.1534 22.0152C17.8187 22.3515 17.4873 22.6915 17.1564 23.0323C16.9284 23.2667 16.6977 23.4968 16.4634 23.7237C16.2391 23.9433 16.0429 24.1744 15.8501 24.427C15.7389 24.5625 15.6241 24.6771 15.497 24.7942C15.2372 25.0407 15.0049 25.3063 14.7735 25.5843C14.4671 25.9483 14.1567 26.3056 13.8355 26.6538C13.5865 26.9244 13.3452 27.1983 13.1182 27.4915C12.9906 27.6555 12.8591 27.8154 12.7274 27.9754C12.482 28.2744 12.2385 28.5748 11.9992 28.8796C11.9463 28.9469 11.8935 29.0141 11.8391 29.0834C11.5185 29.4944 11.2099 29.9119 10.9128 30.3438C10.712 30.6333 10.4992 30.9093 10.2815 31.1837C9.96611 31.582 9.67952 31.9951 9.40291 32.4271C9.33481 32.5318 9.26625 32.6362 9.19711 32.7401C9.16936 32.7824 9.1416 32.8247 9.11301 32.8683C9.00854 33.002 8.90504 33.0977 8.76968 33.1922C8.70699 33.1922 8.6443 33.1922 8.57971 33.1922C8.57971 33.2381 8.57971 33.284 8.57971 33.3313C7.99713 33.475 7.44965 33.4756 6.93331 33.1226C6.46316 32.7606 6.17948 32.3473 6.04679 31.7315C5.96158 30.6954 5.96158 30.6954 6.21276 30.3156C6.24158 30.2779 6.27039 30.2401 6.30008 30.2012C6.35212 30.1263 6.35212 30.1263 6.40521 30.0499C6.72674 29.5952 7.07016 29.159 7.41037 28.7211C7.50381 28.6006 7.59691 28.4799 7.68997 28.359C8.03557 27.9117 8.38733 27.4725 8.75247 27.0442C8.91089 26.8582 9.06481 26.6697 9.21517 26.4758C9.55578 26.0461 9.92946 25.6507 10.2973 25.2496C10.372 25.168 10.4466 25.0863 10.5212 25.0046C10.6582 24.8547 10.7954 24.7048 10.9326 24.5551C11.1403 24.3283 11.348 24.1015 11.5532 23.872C11.7963 23.601 12.0454 23.3432 12.3081 23.0952C12.4567 22.9537 12.6018 22.8084 12.7472 22.6629C12.9664 22.4453 13.1901 22.2365 13.42 22.0326C13.6574 21.8218 13.8849 21.6042 14.1086 21.3761C14.3967 21.0852 14.6953 20.8175 15.0044 20.5548C15.2495 20.3464 15.4908 20.1338 15.7302 19.9176C16.2083 19.4861 16.6972 19.0769 17.1992 18.6797C17.3637 18.5491 17.527 18.4167 17.6904 18.2844C18.4118 17.7006 19.15 17.1485 19.8965 16.6042C20.0347 16.5031 20.1726 16.4016 20.3103 16.2998C20.3525 16.2687 20.3946 16.2376 20.438 16.2056C20.5162 16.1479 20.5942 16.0901 20.6722 16.0322C21.3615 15.5246 21.3615 15.5246 21.6243 15.5246C21.6243 15.4787 21.6243 15.4328 21.6243 15.3855C21.7295 15.2997 21.7295 15.2997 21.8768 15.204C21.9304 15.1689 21.9839 15.1338 22.0391 15.0977C22.0968 15.0607 22.1545 15.0236 22.214 14.9855C22.2725 14.9475 22.3311 14.9095 22.3914 14.8703C22.7857 14.6155 23.1822 14.3671 23.5873 14.1334C23.6785 14.0802 23.7697 14.0269 23.8608 13.9737C24.4625 13.623 25.0679 13.2817 25.6783 12.9499C25.8091 12.8784 25.9393 12.8058 26.0695 12.733C26.468 12.5107 26.8638 12.2979 27.2823 12.1239C27.4998 12.0238 27.7075 11.9045 27.917 11.7859C28.4602 11.4801 29.0222 11.2366 29.5907 10.9938C29.7675 10.9174 29.9426 10.837 30.1175 10.7555C35.1398 8.45044 35.1398 8.45044 36.6951 8.49925Z" fill="#C6EFD7"/>
<path d="M17.3816 22.689C17.4234 22.712 17.4652 22.7349 17.5082 22.7586C16.2126 24.1817 14.917 25.6049 13.5822 27.0712C13.5404 27.0482 13.4986 27.0252 13.4555 27.0016C13.4935 26.9603 13.5315 26.9189 13.5706 26.8763C13.7136 26.7204 13.8565 26.5643 13.9993 26.4081C14.0607 26.341 14.1222 26.2739 14.1837 26.2069C14.5109 25.8507 14.8289 25.4919 15.1285 25.1075C15.2871 24.9125 15.4624 24.7405 15.6402 24.5671C15.9107 24.2987 16.1589 24.0261 16.3931 23.7185C16.5418 23.5358 16.7093 23.3812 16.8792 23.2229C17.0561 23.0545 17.2182 22.873 17.3816 22.689Z" fill="#9FDBB8"/>
<path d="M2.56403 33.7487C2.79352 34.2529 2.91998 34.8176 2.77453 35.3727C2.72953 35.5055 2.67894 35.636 2.62735 35.7659C2.60645 35.697 2.58556 35.6281 2.56403 35.5572C2.58492 35.5113 2.60582 35.4654 2.62735 35.4181C2.63189 35.2406 2.63324 35.0651 2.63131 34.8877C2.63088 34.814 2.63088 34.814 2.63044 34.7388C2.62969 34.6174 2.62856 34.4961 2.62735 34.3747C2.60645 34.3747 2.58556 34.3747 2.56403 34.3747C2.56403 34.1681 2.56403 33.9615 2.56403 33.7487Z" fill="#D9F2E3"/>
<path d="M9.65621 9.47305C9.65621 9.7275 9.61039 9.7636 9.45832 9.94691C9.3982 10.0197 9.3982 10.0197 9.33687 10.0939C9.17241 10.2854 9.00454 10.4717 8.83301 10.6555C8.79121 10.6326 8.74942 10.6096 8.70636 10.586C9.01472 10.2051 9.32379 9.82883 9.65621 9.47305Z" fill="#A9DDC0"/>
<path d="M3.00737 43.4868C3.04916 43.5097 3.09095 43.5327 3.13401 43.5563C2.9775 43.8142 2.89706 43.8313 2.62743 43.9041C2.3964 43.9177 2.3964 43.9177 2.16042 43.9128C2.08157 43.9115 2.00272 43.9103 1.92148 43.909C1.83209 43.9066 1.83209 43.9066 1.74091 43.9041C1.74091 43.8811 1.74091 43.8582 1.74091 43.8345C1.78988 43.8328 1.83886 43.831 1.88932 43.8291C2.33197 43.8026 2.62171 43.7221 3.00737 43.4868Z" fill="#DAF6E8"/>
<path d="M4.59031 16.568C4.63211 16.568 4.6739 16.568 4.71696 16.568C4.63047 16.8144 4.53273 17.0497 4.42409 17.2853C4.39585 17.3467 4.3676 17.4081 4.33851 17.4714C4.31712 17.5176 4.29573 17.5638 4.2737 17.6113C4.21038 17.4027 4.21038 17.4027 4.2873 17.1997C4.3233 17.1246 4.3593 17.0496 4.39639 16.9723C4.43222 16.8967 4.46806 16.8211 4.50498 16.7432C4.53314 16.6854 4.5613 16.6275 4.59031 16.568Z" fill="#E2F7ED"/>
<path d="M2.94393 21.2283C2.98747 21.337 2.98747 21.337 3.00726 21.5065C2.96383 21.6247 2.91981 21.7427 2.87022 21.8579C2.78288 22.0816 2.73984 22.313 2.69064 22.5499C2.66975 22.5499 2.64885 22.5499 2.62732 22.5499C2.65691 22.0657 2.74494 21.6655 2.94393 21.2283Z" fill="#D8F2E3"/>
<path d="M3.95712 17.9591C3.99891 17.9591 4.04071 17.9591 4.08377 17.9591C3.97307 18.3394 3.85213 18.7074 3.70383 19.072C3.65045 18.9058 3.63076 18.8226 3.6875 18.6547C3.71117 18.6088 3.73485 18.5629 3.75924 18.5156C3.8535 18.3302 3.91732 18.1674 3.95712 17.9591Z" fill="#DFF4E8"/>
<path d="M1.29759 37.783C1.33938 37.806 1.38118 37.8289 1.42424 37.8526C1.29886 38.1051 1.17348 38.3576 1.0443 38.6177C0.980975 38.409 0.980975 38.409 1.02797 38.2694C1.05164 38.2208 1.07532 38.1722 1.09971 38.1221C1.12305 38.0732 1.1464 38.0242 1.17045 37.9738C1.23427 37.8526 1.23427 37.8526 1.29759 37.783Z" fill="#DFF3E7"/>
<path d="M8.00988 11.3511C8.03078 11.397 8.05167 11.4429 8.0732 11.4902C7.81991 11.9473 7.81991 11.9473 7.56662 12.0467C7.67221 11.7725 7.83429 11.5744 8.00988 11.3511Z" fill="#ACDEC1"/>
<path d="M11.4293 7.66458C11.492 7.68754 11.5547 7.71049 11.6193 7.73414C11.5484 7.80411 11.477 7.87357 11.4055 7.94281C11.3659 7.98155 11.3262 8.02028 11.2853 8.06019C11.176 8.15148 11.176 8.15148 11.0493 8.15148C11.0493 8.10558 11.0493 8.05967 11.0493 8.01237C11.0911 8.01237 11.1329 8.01237 11.176 8.01237C11.1969 7.94351 11.2178 7.87465 11.2393 7.8037C11.302 7.75779 11.3647 7.71188 11.4293 7.66458Z" fill="#DEF6E9"/>
<path d="M42.0775 26.6538C42.129 26.7712 42.129 26.7712 42.1408 26.932C41.9865 27.1233 41.9865 27.1233 41.8242 27.2798C41.8242 27.0016 41.9335 26.8762 42.0775 26.6538Z" fill="#D9F3E3"/>
<path d="M6.67996 13.1596C6.70085 13.2055 6.72175 13.2515 6.74328 13.2988C6.606 13.6797 6.606 13.6797 6.41479 13.8117C6.37692 13.8261 6.33904 13.8404 6.30002 13.8552C6.38675 13.5773 6.50628 13.3822 6.67996 13.1596Z" fill="#AFDFC3"/>
<path d="M1.48754 37.6439C1.53504 37.757 1.53504 37.757 1.55087 37.9222C1.43609 38.1482 1.43609 38.1482 1.29758 38.3395C1.25578 38.3395 1.21399 38.3395 1.17093 38.3395C1.25546 38.0895 1.35838 37.8696 1.48754 37.6439Z" fill="#AADBBE"/>
<path d="M45.3071 1.19573C45.398 1.19008 45.4891 1.18604 45.5801 1.18269C45.6562 1.17906 45.6562 1.17906 45.7338 1.17535C45.9073 1.20004 45.9588 1.25789 46.0669 1.40441C45.5581 1.34851 45.5581 1.34851 45.3071 1.19573Z" fill="#D9F5E6"/>
<path d="M4.59035 40.2871C4.63214 40.3101 4.67393 40.333 4.71699 40.3567C4.56027 40.6665 4.56027 40.6665 4.40038 40.9827C4.33705 40.774 4.33705 40.774 4.42412 40.5566C4.52702 40.3567 4.52702 40.3567 4.59035 40.2871Z" fill="#A3D6B9"/>
<path d="M39.7346 30.1317C39.7555 30.1776 39.7764 30.2235 39.7979 30.2708C39.6935 30.4086 39.589 30.5463 39.4813 30.6882C39.4395 30.6652 39.3977 30.6423 39.3547 30.6186C39.4801 30.4579 39.6054 30.2973 39.7346 30.1317Z" fill="#DCF5E7"/>
<path d="M40.3047 29.3666C40.3255 29.4354 40.3464 29.5043 40.368 29.5752C40.2635 29.69 40.159 29.8048 40.0514 29.923C40.0096 29.9001 39.9678 29.8771 39.9247 29.8535C40.0501 29.6928 40.1755 29.5321 40.3047 29.3666Z" fill="#DEF7EA"/>
</svg>
