<svg width="43" height="33" viewBox="0 0 43 33" fill="none" xmlns="http://www.w3.org/2000/svg">
<path d="M35.4266 0C35.6686 0.0146516 35.6686 0.0146516 35.9056 0.131865C36.0229 0.102854 36.0229 0.102854 36.1426 0.0732581C36.9808 0.171366 37.9416 0.365736 38.592 0.776536C38.6751 0.810381 38.7583 0.844226 38.8439 0.879097C40.3154 1.48966 41.6195 2.63231 42.0964 3.83629C42.1819 4.10926 42.1896 4.37627 42.1871 4.65555C42.1867 4.71442 42.1862 4.77329 42.1857 4.83395C42.1445 6.11792 41.1054 7.09073 39.9047 7.94942C39.711 8.09278 39.5353 8.24691 39.3593 8.40225C39.2241 8.51259 39.2241 8.51259 39.084 8.59363C38.9363 8.67954 38.843 8.74248 38.7501 8.86423C38.7332 9.04094 38.7332 9.04094 38.7501 9.23418C38.7796 9.72901 38.5313 9.94589 38.0973 10.2989C37.55 10.721 37.55 10.721 37.2488 10.7982C37.1055 10.7892 36.9623 10.7793 36.8192 10.7689C36.5402 10.7808 36.3685 10.8072 36.1665 10.9551C35.8799 11.2193 35.6355 11.5049 35.3865 11.789C35.2121 11.9784 35.0046 12.1301 34.7787 12.2852C34.6373 12.3835 34.5145 12.4869 34.3895 12.5967C34.0906 12.8552 33.7642 13.0914 33.438 13.3307C33.1572 13.5375 32.8911 13.7495 32.6349 13.9733C32.4936 14.0924 32.3444 14.2033 32.192 14.3146C31.9409 14.4984 31.7071 14.6889 31.4769 14.887C30.8124 15.4519 30.1109 15.9935 29.4191 16.5399C28.7188 17.0934 28.0217 17.649 27.3288 18.2075C27.2113 18.3022 27.0936 18.3967 26.9759 18.4913C26.899 18.5532 26.822 18.6152 26.7451 18.6772C26.6775 18.7315 26.61 18.7858 26.5404 18.8418C26.4013 18.9567 26.2663 19.072 26.1336 19.1909C25.9509 19.354 25.7594 19.4996 25.5549 19.6478C25.1636 19.9326 24.7856 20.2202 24.4287 20.529C24.2831 20.6505 24.1308 20.7645 23.9747 20.8786C23.7281 21.059 23.499 21.246 23.2731 21.4406C23.0471 21.6311 22.8148 21.8171 22.5821 22.0031C22.5168 22.0553 22.5168 22.0553 22.4502 22.1086C22.1997 22.3083 21.9433 22.5025 21.6833 22.6954C21.5754 22.7826 21.4684 22.8706 21.3623 22.9591C21.0402 23.2261 20.7139 23.49 20.3858 23.7529C20.1227 23.9639 19.8607 24.1755 19.5993 24.3876C19.2151 24.6991 18.8264 25.0074 18.4372 25.3154C18.2058 25.499 17.9775 25.6836 17.7573 25.8748C17.5024 26.0949 17.2246 26.2971 16.9463 26.5008C16.6896 26.6896 16.4507 26.8854 16.2163 27.0892C16.0442 27.2323 15.8622 27.3663 15.6783 27.5011C15.285 27.7898 14.9247 28.0937 14.566 28.4058C14.1576 28.7532 13.7276 29.0433 13.2289 29.3179C13.1556 29.3602 13.0822 29.4025 13.0067 29.4461C12.6765 29.5854 12.3313 29.6772 11.9743 29.7723C11.7412 29.8413 11.5468 29.9253 11.3326 30.0212C11.1726 30.07 11.0111 30.1162 10.8487 30.1604C10.2648 30.3233 9.69669 30.5045 9.14494 30.7208C8.84506 30.8343 8.53247 30.9178 8.21654 31.0028C7.75328 31.1278 7.30748 31.269 6.86345 31.4277C6.04461 31.7196 5.2258 31.9829 4.34213 32.1484C4.07689 32.2031 3.82902 32.2804 3.57515 32.3588C3.29653 32.4404 3.0143 32.5115 2.73009 32.5815C2.65389 32.6004 2.65389 32.6004 2.57615 32.6196C2.00151 32.7601 1.30857 32.9205 0.729148 32.7136C0.351077 32.4892 0.0964818 32.1945 0.0038353 31.8409C-0.0293462 31.4241 0.159666 31.0141 0.304879 30.6156C0.364191 30.4499 0.418558 30.2833 0.473051 30.1166C0.57936 29.7927 0.691658 29.4727 0.841186 29.1581C0.920552 28.9868 0.990327 28.8137 1.06094 28.6403C1.17897 28.3534 1.3084 28.0733 1.456 27.7941C1.50815 27.7941 1.5603 27.7941 1.61403 27.7941C1.62363 27.7429 1.63323 27.6917 1.64312 27.6389C1.6913 27.4494 1.762 27.2907 1.85971 27.1124C1.89332 27.0506 1.92693 26.9888 1.96156 26.9251C1.9968 26.8613 2.03205 26.7976 2.06835 26.7319C2.11938 26.6383 2.11938 26.6383 2.17144 26.5428C2.3419 26.2309 2.51558 25.92 2.69181 25.6099C2.84739 25.3337 2.98647 25.0558 3.11527 24.7722C3.27315 24.4325 3.4469 24.1049 3.65602 23.7803C3.78196 23.5773 3.88395 23.3686 3.98503 23.1583C4.06343 23.047 4.06343 23.047 4.30047 22.9884C4.27765 22.9497 4.25484 22.911 4.23133 22.8712C4.21544 22.5883 4.45434 22.435 4.69553 22.2265C4.98978 21.9965 5.2937 21.7743 5.59924 21.5525C5.75908 21.4361 5.91866 21.3195 6.07795 21.2027C6.11625 21.1746 6.15454 21.1466 6.194 21.1176C6.45716 20.9233 6.70428 20.7218 6.94526 20.5124C7.16797 20.3229 7.41269 20.15 7.65543 19.9747C7.86826 19.8194 8.06945 19.6606 8.26345 19.4921C8.68093 19.1342 9.14273 18.8073 9.59668 18.4751C10.0162 18.1678 10.4284 17.8599 10.8118 17.5271C11.0683 17.3102 11.3509 17.1119 11.6289 16.9103C11.8595 16.7415 12.0806 16.5709 12.2906 16.3878C12.7499 15.9932 13.2625 15.6345 13.7621 15.2683C14.4461 14.7665 14.4461 14.7665 15.09 14.2366C15.2631 14.0884 15.4497 13.9534 15.6388 13.8165C15.9346 13.6004 16.2142 13.3784 16.4836 13.1441C16.7136 12.9529 16.9617 12.7755 17.2092 12.5967C17.3622 12.4805 17.5027 12.365 17.6438 12.2414C18.1658 11.7947 18.75 11.3886 19.316 10.973C19.4732 10.8575 19.6301 10.7418 19.787 10.6261C19.8342 10.5915 19.8815 10.557 19.9302 10.5213C20.1682 10.3458 20.3961 10.1669 20.6155 9.97855C20.885 9.74733 21.1703 9.53118 21.4635 9.3166C21.5158 9.27805 21.5681 9.2395 21.6219 9.19978C21.8426 9.03708 22.0637 8.87474 22.2847 8.71236C22.4474 8.59278 22.6098 8.47302 22.7722 8.35325C22.8212 8.3174 22.8702 8.28156 22.9206 8.24462C23.1606 8.06761 23.3911 7.88769 23.6122 7.69758C23.9184 7.43478 24.2451 7.18897 24.5759 6.94327C24.6716 6.87199 24.6716 6.87199 24.7692 6.79927C24.9035 6.69937 25.0379 6.59954 25.1724 6.49978C25.3759 6.34875 25.5787 6.19726 25.7815 6.04574C27.2992 4.91584 27.2992 4.91584 27.7673 4.70317C27.8716 4.70317 27.9759 4.70317 28.0833 4.70317C27.9856 4.67416 27.9856 4.67416 27.8858 4.64456C27.6883 4.52735 27.6883 4.52735 27.6438 4.30758C27.6645 4.04037 27.8067 3.86815 28.0043 3.64825C28.0565 3.64825 28.1086 3.64825 28.1623 3.64825C28.1892 3.58343 28.1892 3.58343 28.2167 3.5173C28.3422 3.32113 28.4837 3.23707 28.7154 3.10614C28.7855 3.06595 28.8556 3.02576 28.9278 2.98435C29.1822 2.84793 29.3098 2.82071 29.6191 2.8241C29.681 2.82463 29.7428 2.82516 29.8065 2.8257C29.8636 2.82638 29.9208 2.82706 29.9796 2.82776C30.2131 2.84785 30.2131 2.84785 30.3266 2.75102C30.3635 2.71628 30.4004 2.68154 30.4384 2.64575C30.67 2.43509 30.9152 2.24068 31.1732 2.04779C31.2178 2.01436 31.2624 1.98093 31.3084 1.94649C31.4022 1.87633 31.4962 1.80626 31.5902 1.73626C31.7316 1.63086 31.872 1.52484 32.0125 1.4188C33.6687 0.178862 33.6687 0.178862 34.65 0.122249C34.7789 0.124224 34.9077 0.127885 35.0365 0.131865C35.1945 0.0146516 35.1945 0.0146516 35.4266 0Z" fill="#C4AF95"/>
<path d="M35.4266 0C35.6686 0.0146516 35.6686 0.0146516 35.9056 0.131865C35.9838 0.112524 36.062 0.0931843 36.1426 0.0732581C36.9808 0.171366 37.9416 0.365736 38.592 0.776536C38.6751 0.810381 38.7583 0.844226 38.8439 0.879097C40.3154 1.48966 41.6195 2.63231 42.0964 3.83629C42.1818 4.10926 42.1896 4.37627 42.1871 4.65555C42.1867 4.71442 42.1862 4.77329 42.1857 4.83395C42.1445 6.11792 41.1054 7.09073 39.9047 7.94942C39.7109 8.09278 39.5353 8.24691 39.3593 8.40225C39.2241 8.51259 39.2241 8.51259 39.084 8.59363C38.9363 8.67954 38.843 8.74248 38.7501 8.86423C38.7331 9.04094 38.7331 9.04094 38.7501 9.23418C38.7796 9.72901 38.5313 9.94589 38.0973 10.2989C37.459 10.7912 37.459 10.7912 37.0315 10.8056C36.9729 10.8032 36.9142 10.8007 36.8538 10.7982C37.0751 10.6158 37.2539 10.5273 37.5649 10.4466C37.7428 10.4051 37.7428 10.4051 37.8809 10.3294C37.8907 10.2871 37.9005 10.2448 37.9105 10.2012C37.9833 9.95835 38.1895 9.79304 38.434 9.62611C38.4862 9.62611 38.5383 9.62611 38.592 9.62611C38.5809 9.52231 38.5693 9.41853 38.5575 9.31477C38.551 9.25697 38.5446 9.19918 38.538 9.13964C38.5195 8.97595 38.5195 8.97595 38.434 8.80562C38.4862 8.80562 38.5383 8.80562 38.592 8.80562C38.3908 8.52367 38.1954 8.32395 37.8809 8.10235C37.8304 8.054 37.7799 8.00565 37.7278 7.95583C37.5923 7.83399 37.4723 7.74909 37.3081 7.65181C37.2005 7.58472 37.2005 7.58472 37.0908 7.51628C37.0908 7.4776 37.0908 7.43892 37.0908 7.39907C37.0386 7.39907 36.9865 7.39907 36.9328 7.39907C36.9328 7.32171 36.9328 7.24435 36.9328 7.16464C36.8806 7.16464 36.8285 7.16464 36.7747 7.16464C36.7747 7.12596 36.7747 7.08728 36.7747 7.04743C36.6965 7.04743 36.6183 7.04743 36.5377 7.04743C36.3936 6.95311 36.3936 6.95311 36.2463 6.82766C36.1725 6.76646 36.1725 6.76646 36.0973 6.70403C35.9846 6.57858 35.9846 6.57858 35.9846 6.34415C35.9325 6.34415 35.8803 6.34415 35.8266 6.34415C35.8266 6.30547 35.8266 6.26679 35.8266 6.22694C35.7712 6.2221 35.7158 6.21727 35.6587 6.21229C35.1867 6.12097 34.8405 5.8659 34.4932 5.62256C34.4103 5.56529 34.3272 5.50806 34.2442 5.45086C34.2042 5.42323 34.1641 5.3956 34.1229 5.36713C33.7549 5.1148 33.3743 4.87594 32.9821 4.64456C32.5339 4.37838 32.097 4.10851 31.6784 3.81675C31.276 3.54113 30.8468 3.32534 30.3747 3.1208C30.5327 3.06219 30.5327 3.06219 30.6117 3.06219C30.5612 3.04647 30.5107 3.03076 30.4587 3.01457C30.2957 2.94498 30.2957 2.94498 30.2167 2.76916C30.5712 2.50167 30.9268 2.23491 31.2829 1.96861C31.4037 1.87817 31.5242 1.78758 31.6445 1.69681C33.6564 0.179574 33.6564 0.179574 34.65 0.122249C34.7789 0.124224 34.9077 0.127885 35.0365 0.131865C35.1945 0.0146516 35.1945 0.0146516 35.4266 0Z" fill="#C3AC96"/>
<path d="M30.1376 3.06219C30.8752 3.16706 31.4575 3.60869 31.9835 3.97964C32.2561 4.17176 32.534 4.34475 32.8395 4.5079C33.3494 4.78703 33.804 5.12404 34.2666 5.44449C34.9576 5.9493 34.9576 5.9493 35.8265 6.22694C35.8265 6.26562 35.8265 6.30431 35.8265 6.34416C35.8787 6.34416 35.9308 6.34416 35.9846 6.34416C36.0025 6.38646 36.0204 6.42877 36.0389 6.47236C36.1619 6.66792 36.3307 6.78075 36.5377 6.93022C36.5377 6.9689 36.5377 7.00758 36.5377 7.04744C36.6159 7.04744 36.6941 7.04744 36.7747 7.04744C36.7747 7.08612 36.7747 7.1248 36.7747 7.16465C36.8268 7.16465 36.879 7.16465 36.9327 7.16465C36.9327 7.24201 36.9327 7.31937 36.9327 7.39907C36.9849 7.39907 37.037 7.39907 37.0907 7.39907C37.0907 7.43775 37.0907 7.47643 37.0907 7.51629C37.2472 7.57431 37.2472 7.57431 37.4068 7.6335C37.4068 7.67218 37.4068 7.71086 37.4068 7.75071C37.4541 7.76522 37.5013 7.77972 37.55 7.79467C37.7478 7.87852 37.8398 7.95989 37.9599 8.10235C37.9599 8.14103 37.9599 8.17971 37.9599 8.21956C38.0055 8.23286 38.0511 8.24616 38.0982 8.25986C38.3247 8.35787 38.4448 8.46994 38.592 8.62981C38.592 8.68783 38.592 8.74585 38.592 8.80563C38.5398 8.80563 38.4877 8.80563 38.434 8.80563C38.5122 8.89266 38.5122 8.89266 38.592 8.98145C38.6352 9.19936 38.6351 9.40819 38.592 9.62612C38.4093 9.80194 38.4093 9.80194 38.1969 9.91915C38.0071 10.0396 38.0071 10.0396 37.9303 10.2085C37.8546 10.3937 37.6971 10.457 37.4858 10.5638C37.3554 10.6053 37.2238 10.6447 37.0907 10.681C37.0125 10.7197 36.9343 10.7584 36.8537 10.7983C36.675 10.7841 36.675 10.7841 36.4833 10.747C36.4195 10.735 36.3556 10.7231 36.2898 10.7108C36.2169 10.6961 36.2169 10.6961 36.1426 10.681C36.1426 10.6424 36.1426 10.6037 36.1426 10.5638C36.0949 10.5493 36.0473 10.5348 35.9981 10.5199C35.7983 10.4346 35.7264 10.358 35.6093 10.2122C35.5754 10.1711 35.5416 10.13 35.5068 10.0876C35.4315 9.97776 35.4315 9.97776 35.4315 9.86055C35.3557 9.83879 35.3557 9.83879 35.2784 9.81659C35.1154 9.74333 35.1154 9.74333 35.0562 9.61879C35.0496 9.58253 35.0431 9.54627 35.0364 9.50891C34.9843 9.50891 34.9321 9.50891 34.8784 9.50891C34.8784 9.47023 34.8784 9.43155 34.8784 9.39169C34.7611 9.36268 34.7611 9.36268 34.6414 9.33309C34.587 9.21221 34.587 9.21221 34.5623 9.09866C34.5102 9.09866 34.458 9.09866 34.4043 9.09866C34.3782 9.05998 34.3522 9.0213 34.3253 8.98145C34.208 8.95244 34.208 8.95244 34.0883 8.92284C34.0238 8.80952 34.0238 8.80952 33.9648 8.66278C33.7675 8.26682 33.3935 8.03049 32.9821 7.75071C32.7974 7.61516 32.6145 7.47842 32.4324 7.34093C32.1249 7.10948 31.8085 6.89148 31.4765 6.67954C31.2296 6.51738 31.0005 6.34294 30.7697 6.16834C30.4984 5.96444 30.2209 5.76771 29.9351 5.57495C29.8617 5.52524 29.7883 5.47553 29.7126 5.42431C29.5144 5.29054 29.5144 5.29054 29.3206 5.1908C29.2774 5.16527 29.2341 5.13973 29.1895 5.11342C29.1895 5.07474 29.1895 5.03606 29.1895 4.99621C29.1253 4.98816 29.1253 4.98816 29.0598 4.97995C28.8164 4.92465 28.6318 4.83212 28.4191 4.72882C28.3024 4.6725 28.3024 4.6725 28.1833 4.61504C28.1242 4.5861 28.0651 4.55717 28.0043 4.52736C28.0303 4.45 28.0564 4.37264 28.0833 4.29293C28.1697 4.29535 28.256 4.29777 28.345 4.30026C28.6434 4.31173 28.6434 4.31173 28.8734 4.17572C28.9044 4.13462 28.9353 4.09352 28.9672 4.05118C29.1404 3.84748 29.352 3.69852 29.5839 3.53128C29.7843 3.3829 29.9608 3.2261 30.1376 3.06219Z" fill="#7D6954"/>
<path d="M1.93008 28.0872C2.23779 28.1109 2.40028 28.2319 2.62145 28.3839C2.68459 28.4268 2.74774 28.4698 2.81281 28.5141C2.86047 28.5473 2.90814 28.5804 2.95725 28.6146C2.93118 28.6533 2.9051 28.692 2.87824 28.7318C2.81957 28.6931 2.7609 28.6545 2.70046 28.6146C2.48535 28.4744 2.48535 28.4744 2.16712 28.4974C2.16712 28.5748 2.16712 28.6521 2.16712 28.7318C2.21601 28.7463 2.2649 28.7608 2.31527 28.7758C2.48317 28.849 2.48317 28.849 2.55725 28.9699C2.58495 29.0074 2.61266 29.0449 2.6412 29.0835C2.84089 29.1219 2.84089 29.1219 3.03626 29.1421C3.07537 29.2001 3.07537 29.2001 3.11528 29.2593C3.25881 29.314 3.25881 29.314 3.43133 29.3179C3.59945 29.2333 3.59945 29.2333 3.74738 29.1421C4.01075 29.3374 4.27413 29.5328 4.53751 29.7281C4.60758 29.7778 4.67766 29.8276 4.74985 29.8788C4.91406 30.0067 5.01502 30.1083 5.11529 30.2666C5.15394 30.3259 5.15394 30.3259 5.19338 30.3863C5.24862 30.49 5.24862 30.49 5.24862 30.6072C5.30077 30.6072 5.35292 30.6072 5.40665 30.6072C5.48381 30.7122 5.56097 30.8171 5.63813 30.922C5.71591 31.0272 5.71591 31.0272 5.88072 31.0761C5.88072 31.1148 5.88072 31.1534 5.88072 31.1933C6.11539 31.232 6.35006 31.2707 6.59184 31.3105C6.59184 31.3879 6.59184 31.4652 6.59184 31.5449C5.35473 31.8928 5.35474 31.8928 4.97208 31.9845C4.64865 32.062 4.3317 32.1514 4.01405 32.2409C1.84005 32.852 1.84005 32.852 0.902917 32.7757C0.560644 32.651 0.481376 32.5782 0.33995 32.321C0.230725 32.0516 0.161777 31.8545 0.270814 31.5816C0.294342 31.5507 0.31787 31.5199 0.342111 31.4882C0.642776 31.0755 0.824363 30.597 0.945818 30.1382C0.982679 30.0187 1.03438 29.9114 1.09551 29.7977C1.23201 29.5431 1.31368 29.2816 1.39706 29.015C1.45401 28.8547 1.52667 28.7085 1.61403 28.556C1.63532 28.5176 1.65661 28.4793 1.67854 28.4397C1.84229 28.1523 1.84229 28.1523 1.93008 28.0872Z" fill="#755F49"/>
<path d="M21.7624 12.2048C21.8406 12.2241 21.9188 12.2435 21.9994 12.2634C21.9463 12.3023 21.9463 12.3023 21.8921 12.342C21.7285 12.4622 21.5652 12.5825 21.4019 12.7029C21.3462 12.7437 21.2906 12.7845 21.2332 12.8266C20.9089 13.066 20.6002 13.3112 20.3016 13.5684C20.1195 13.7231 19.9219 13.8644 19.7229 14.0069C19.577 14.1182 19.4416 14.2316 19.3056 14.3494C18.88 14.7129 18.411 15.0448 17.9491 15.3826C17.5898 15.6467 17.2446 15.9137 16.9156 16.1986C16.6904 16.3854 16.4416 16.5526 16.192 16.7211C15.9936 16.856 15.7959 16.9914 15.5994 17.1277C15.5465 17.1642 15.4937 17.2007 15.4392 17.2383C15.3886 17.2742 15.338 17.3102 15.2858 17.3473C15.2398 17.3796 15.1938 17.412 15.1464 17.4453C15.0216 17.541 15.0216 17.541 15.0463 17.7138C14.9429 17.81 14.9429 17.81 14.7962 17.9155C14.7416 17.9553 14.687 17.995 14.6307 18.0359C14.571 18.0786 14.5112 18.1213 14.4497 18.1652C14.3247 18.2563 14.1998 18.3473 14.0748 18.4384C13.8769 18.5815 13.6787 18.7245 13.4803 18.8673C13.2891 19.0052 13.099 19.1438 12.9089 19.2824C12.8497 19.3246 12.7904 19.3668 12.7293 19.4103C12.3937 19.6557 12.2128 19.851 12.0438 20.1753C11.9011 20.2902 11.9011 20.2902 11.7463 20.3797C11.4284 20.5729 11.1547 20.7817 10.8784 21.0067C10.3894 21.3987 9.88947 21.7818 9.38206 22.1605C9.314 22.2118 9.24593 22.263 9.17581 22.3158C9.07944 22.3874 9.07944 22.3874 8.98113 22.4604C8.89562 22.5242 8.89562 22.5242 8.80839 22.5893C8.6544 22.69 8.5177 22.7525 8.3302 22.8125C8.3607 22.6485 8.39352 22.5886 8.5623 22.4756C8.72526 22.4023 8.72526 22.4023 8.88329 22.4023C8.89969 22.3607 8.91609 22.3192 8.93298 22.2764C9.07142 22.0628 9.27377 21.9324 9.51045 21.7796C9.60317 21.7179 9.69577 21.6561 9.78823 21.5942C9.83493 21.563 9.88163 21.5319 9.92975 21.4998C10.1439 21.355 10.3515 21.2056 10.5574 21.0544C10.6269 21.0036 10.6965 20.9528 10.7682 20.9005C10.9202 20.7756 11.0001 20.6764 11.0956 20.5269C11.2071 20.4369 11.2071 20.4369 11.3376 20.3474C11.7778 20.0312 12.1486 19.6704 12.5278 19.3142C12.6962 19.1604 12.8821 19.026 13.071 18.8859C13.1539 18.8154 13.2363 18.7446 13.3182 18.6735C13.6318 18.4063 13.966 18.1568 14.3055 17.9079C14.3638 17.865 14.4221 17.822 14.4821 17.7778C14.5946 17.6948 14.7072 17.612 14.8199 17.5292C14.9371 17.4429 15.054 17.3563 15.1707 17.2697C15.3254 17.1551 15.4811 17.0413 15.6373 16.9279C15.735 16.8565 15.8326 16.7852 15.9302 16.7138C16.0047 16.66 16.0047 16.66 16.0807 16.6052C16.1283 16.5702 16.1759 16.5353 16.225 16.4993C16.268 16.468 16.311 16.4367 16.3553 16.4045C16.4768 16.3001 16.5463 16.1965 16.6265 16.0728C16.7602 15.9771 16.7602 15.9771 16.908 15.8897C17.1172 15.7675 17.1172 15.7675 17.2587 15.6039C17.3108 15.6039 17.3629 15.6039 17.4167 15.6039C17.4379 15.5701 17.459 15.5363 17.4809 15.5014C17.5778 15.3652 17.6733 15.2501 17.8117 15.1351C17.89 15.1351 17.9682 15.1351 18.0488 15.1351C18.0488 15.0964 18.0488 15.0577 18.0488 15.0179C18.1969 14.8933 18.1969 14.8933 18.3648 14.7835C18.417 14.7835 18.4691 14.7835 18.5229 14.7835C18.5403 14.7519 18.5577 14.7203 18.5756 14.6878C18.7161 14.5026 18.9049 14.3578 19.1006 14.2047C19.6177 13.8205 19.6177 13.8205 20.0241 13.3769C20.114 13.337 20.114 13.337 20.2058 13.2964C20.4218 13.1999 20.5752 13.0988 20.7516 12.966C20.8109 12.9216 20.8702 12.8772 20.9314 12.8315C21.0225 12.7624 21.0225 12.7624 21.1155 12.6919C21.1777 12.6452 21.24 12.5985 21.3042 12.5503C21.4573 12.4354 21.61 12.3202 21.7624 12.2048Z" fill="#DECFBB"/>
<path d="M31.4018 10.7396C31.4018 10.9687 31.2692 11.0344 31.0697 11.1979C30.9149 11.3373 30.7968 11.4825 30.671 11.637C30.2708 12.094 29.7418 12.4547 29.2163 12.8321C28.9426 13.0293 28.689 13.2344 28.4435 13.451C28.3189 13.5539 28.1879 13.6409 28.0438 13.7286C27.7945 13.8813 27.5933 14.0492 27.3848 14.232C27.1209 14.4504 26.8367 14.6537 26.5519 14.8571C26.229 15.0915 25.9555 15.3282 25.787 15.6443C25.6787 15.8424 25.5481 15.9258 25.2981 16.0289C25.0479 16.147 24.867 16.2863 24.6657 16.4467C24.5219 16.5457 24.386 16.5944 24.2117 16.6589C24.1149 16.7458 24.0182 16.8329 23.9237 16.9212C23.6791 17.1252 23.3522 17.2437 23.0265 17.3622C23.057 17.3359 23.0876 17.3097 23.1191 17.2827C23.1602 17.2473 23.2014 17.2119 23.2438 17.1753C23.2873 17.138 23.3308 17.1006 23.3756 17.062C23.4755 16.974 23.5704 16.8828 23.6635 16.7907C23.8166 16.6589 23.8166 16.6589 23.9993 16.5856C24.2769 16.4515 24.4337 16.2807 24.6308 16.0854C24.8465 15.8764 25.0822 15.7051 25.3672 15.549C25.5683 15.435 25.5683 15.435 25.6685 15.2596C25.8253 15.027 26.0049 14.8979 26.266 14.7249C26.3182 14.7249 26.3703 14.7249 26.424 14.7249C26.4452 14.691 26.4664 14.6572 26.4882 14.6223C26.5853 14.4859 26.6891 14.3766 26.8191 14.256C26.8553 14.2224 26.8914 14.1888 26.9287 14.1541C26.9691 14.1176 27.0095 14.0812 27.0512 14.0436C27.0894 14.009 27.1276 13.9744 27.1669 13.9387C27.2932 13.8458 27.2932 13.8458 27.4407 13.7929C28.0627 13.5555 28.5831 12.9987 29.0117 12.6013C29.4577 12.1947 29.9267 11.8197 30.4685 11.4834C30.6686 11.3449 30.82 11.1881 30.9735 11.0208C31.0992 10.9029 31.2358 10.8249 31.4018 10.7396Z" fill="#A68B6E"/>
<path d="M38.197 8.68842C38.4658 8.88778 38.504 9.11098 38.5575 9.38437C38.5518 9.66045 38.3445 9.80049 38.0887 9.986C37.9486 10.1046 37.9257 10.1786 37.881 10.3294C37.6356 10.5013 37.405 10.5952 37.0909 10.681C37.0126 10.7197 36.9344 10.7584 36.8538 10.7982C36.6751 10.7841 36.6751 10.7841 36.4834 10.747C36.4196 10.735 36.3557 10.7231 36.2899 10.7108C36.2413 10.701 36.1928 10.6912 36.1427 10.681C36.1427 10.6424 36.1427 10.6037 36.1427 10.5638C36.095 10.5493 36.0474 10.5348 35.9983 10.5199C35.7984 10.4346 35.7265 10.358 35.6094 10.2122C35.5755 10.1711 35.5417 10.13 35.5069 10.0876C35.4316 9.97776 35.4316 9.97776 35.4316 9.86055C35.3811 9.84604 35.3305 9.83154 35.2785 9.81659C35.1155 9.74333 35.1155 9.74333 35.0563 9.61879C35.0498 9.58253 35.0432 9.54627 35.0365 9.50891C34.9844 9.50891 34.9322 9.50891 34.8785 9.50891C34.8785 9.47023 34.8785 9.43155 34.8785 9.39169C34.8003 9.37235 34.7221 9.35301 34.6415 9.33309C34.5871 9.21221 34.5871 9.21221 34.5624 9.09866C34.5103 9.09866 34.4581 9.09866 34.4044 9.09866C34.4044 8.98262 34.4044 8.86658 34.4044 8.74702C34.5538 8.76305 34.5538 8.76305 34.7205 8.80563C34.7982 8.89949 34.7982 8.89949 34.8587 9.01808C35.0155 9.27821 35.2342 9.42078 35.5337 9.5943C35.6686 9.68473 35.6686 9.68473 35.7476 9.86055C35.8259 9.87989 35.9041 9.89923 35.9847 9.91915C36.039 10.04 36.039 10.04 36.0637 10.1536C36.096 10.1237 36.1283 10.0937 36.1615 10.0629C36.3007 9.97776 36.3007 9.97776 36.4572 9.98783C36.5435 10.0046 36.5435 10.0046 36.6316 10.0217C36.8708 10.0488 36.9726 10.054 37.1822 9.9599C37.3431 9.85295 37.4934 9.74104 37.6439 9.62612C37.7335 9.57152 37.824 9.51768 37.9156 9.46495C38.1351 9.34431 38.1351 9.34431 38.197 9.15727C38.2023 9.07555 38.2038 8.99366 38.202 8.91185C38.2003 8.83812 38.1987 8.76438 38.197 8.68842Z" fill="#73614B"/>
<path d="M1.8512 27.9699C1.92942 27.9893 2.00764 28.0086 2.08824 28.0285C2.05238 28.0503 2.01653 28.0721 1.97959 28.0945C1.8116 28.2383 1.76531 28.3741 1.69317 28.556C1.66873 28.608 1.64428 28.66 1.6191 28.7135C1.52169 28.9388 1.44036 29.1662 1.35984 29.395C1.29811 29.5523 1.29811 29.5523 1.21632 29.703C1.14508 29.836 1.10229 29.9579 1.06601 30.0981C1.00424 30.315 0.917003 30.5128 0.807055 30.7185C0.712917 30.9054 0.642383 31.097 0.568782 31.2888C0.507979 31.4277 0.507979 31.4277 0.364768 31.6328C0.233627 31.9195 0.321253 32.1384 0.428966 32.424C0.127126 32.2093 0.0457179 32.0443 0.00427246 31.7317C0.0162279 31.3492 0.171248 30.9827 0.305007 30.6156C0.36432 30.4499 0.418687 30.2833 0.47318 30.1166C0.579384 29.793 0.691322 29.4733 0.841006 29.159C0.951668 28.9197 1.04562 28.6764 1.14286 28.434C1.20729 28.2895 1.27922 28.1618 1.37712 28.0285C1.42927 28.0866 1.48142 28.1446 1.53515 28.2044C1.63944 28.127 1.74374 28.0496 1.8512 27.9699Z" fill="#B9AB9B"/>
<path d="M21.6042 22.461C21.6564 22.461 21.7085 22.461 21.7623 22.461C21.7166 22.6837 21.5871 22.793 21.382 22.9555C21.3177 23.0069 21.2535 23.0584 21.1873 23.1114C21.1163 23.1675 21.0453 23.2236 20.9721 23.2815C20.857 23.3738 20.7422 23.4664 20.6274 23.5589C20.5063 23.6564 20.3849 23.7537 20.2635 23.851C20.0412 24.0293 19.8202 24.2084 19.5993 24.3877C19.215 24.6991 18.8264 25.0074 18.4372 25.3154C18.2058 25.4991 17.9775 25.6837 17.7573 25.8748C17.5024 26.095 17.2246 26.2972 16.9463 26.5009C16.6896 26.6897 16.4507 26.8854 16.2162 27.0893C16.0441 27.2324 15.8622 27.3664 15.6783 27.5011C15.3021 27.7772 14.9436 28.0611 14.6169 28.3701C14.5274 28.4544 14.4318 28.535 14.3351 28.6146C14.2568 28.6146 14.1786 28.6146 14.098 28.6146C14.2079 28.4297 14.3356 28.3085 14.5314 28.1687C14.5857 28.1293 14.6401 28.0898 14.6962 28.0492C14.8097 27.968 14.9233 27.8868 15.0369 27.8056C15.352 27.5771 15.6291 27.3464 15.887 27.0815C16.0407 26.9271 16.2134 26.7881 16.3894 26.6477C16.6127 26.4682 16.8339 26.2886 17.0462 26.1019C17.2377 25.9342 17.444 25.7812 17.6536 25.6257C18.0736 25.2888 18.0736 25.2888 18.4437 24.9224C18.5037 24.8967 18.5637 24.8709 18.6255 24.8444C18.8847 24.7256 19.0499 24.584 19.2487 24.4133C19.3722 24.3074 19.4982 24.203 19.6289 24.1019C19.6811 24.1019 19.7332 24.1019 19.7869 24.1019C19.8049 24.0609 19.8228 24.0198 19.8413 23.9774C20.0417 23.6517 20.3931 23.4112 20.7351 23.1642C20.7791 23.1292 20.8231 23.0941 20.8684 23.058C20.9721 22.9884 20.9721 22.9884 21.1302 22.9884C21.1302 22.9497 21.1302 22.9111 21.1302 22.8712C21.1823 22.8712 21.2345 22.8712 21.2882 22.8712C21.311 22.8253 21.3338 22.7793 21.3573 22.732C21.4462 22.5782 21.4462 22.5782 21.6042 22.461Z" fill="#B09E88"/>
<path d="M13.94 28.7318C13.7805 29.0009 13.5349 29.1396 13.2289 29.3179C13.1604 29.3578 13.092 29.3977 13.0215 29.4388C12.6859 29.5816 12.3379 29.6754 11.9742 29.7723C11.7412 29.8413 11.5468 29.9253 11.3326 30.0212C11.1725 30.07 11.0111 30.1162 10.8486 30.1603C10.2647 30.3233 9.69665 30.5045 9.1449 30.7208C8.78345 30.8576 8.40159 30.9555 8.02122 31.0588C7.56043 31.1849 7.1139 31.329 6.67081 31.4863C6.64474 31.409 6.61866 31.3316 6.5918 31.2519C6.83375 31.1761 7.07573 31.1005 7.31773 31.0248C7.38602 31.0034 7.45431 30.982 7.52467 30.96C8.06113 30.7923 8.06113 30.7923 8.31465 30.7187C8.50944 30.6593 8.69212 30.5887 8.87823 30.5156C9.17322 30.404 9.4219 30.3456 9.75231 30.3142C9.77838 30.2755 9.80446 30.2368 9.83132 30.197C9.99521 30.1384 9.99521 30.1384 10.2017 30.0798C10.2733 30.0594 10.3449 30.039 10.4187 30.0179C10.7205 29.9355 11.0221 29.8601 11.3326 29.7977C11.5814 29.7365 11.5814 29.7365 11.777 29.5889C12.0648 29.3958 12.4068 29.3403 12.7718 29.2581C13.0228 29.1926 13.1931 29.1004 13.3869 28.9662C13.439 28.9662 13.4912 28.9662 13.5449 28.9662C13.571 28.9082 13.5971 28.8502 13.6239 28.7904C13.782 28.7318 13.782 28.7318 13.94 28.7318Z" fill="#A69176"/>
<path d="M30.2022 2.88018C30.394 2.93743 30.5826 2.99725 30.7698 3.06219C30.7438 3.10087 30.7177 3.13955 30.6908 3.1794C30.6061 3.16489 30.5213 3.15039 30.434 3.13544C30.3363 3.13061 30.2385 3.12577 30.1377 3.12079C30.0307 3.19768 29.9254 3.27588 29.8217 3.35522C29.6373 3.35522 29.453 3.35522 29.2686 3.35522C28.8928 3.51357 28.7872 3.70718 28.6365 3.99989C28.5843 4.05791 28.5322 4.11593 28.4785 4.17571C28.3248 4.19288 28.3248 4.19288 28.1525 4.1867C28.0515 4.18307 27.9505 4.17944 27.8464 4.17571C27.8203 4.29175 27.7942 4.40779 27.7674 4.52735C27.7413 4.52735 27.7152 4.52735 27.6883 4.52735C27.6525 4.14856 27.7204 3.96418 28.0044 3.64825C28.0565 3.64825 28.1087 3.64825 28.1624 3.64825C28.1803 3.60504 28.1983 3.56182 28.2167 3.5173C28.3423 3.32113 28.4837 3.23707 28.7155 3.10614C28.7856 3.06595 28.8557 3.02576 28.9279 2.98435C29.328 2.76975 29.7353 2.77017 30.2022 2.88018Z" fill="#C6BBAE"/>
<path d="M31.0859 3.8827C31.0859 3.92138 31.0859 3.96006 31.0859 3.99992C31.1413 4.00959 31.1967 4.01926 31.2538 4.02922C31.6323 4.17569 31.8766 4.42346 32.0201 4.72105C32.0574 4.83124 32.0861 4.94299 32.113 5.05483C32.0348 5.09351 31.9566 5.13219 31.876 5.17205C31.8662 5.11523 31.8564 5.05842 31.8464 4.99989C31.8301 4.94066 31.8138 4.88143 31.797 4.82041C31.7448 4.80107 31.6927 4.78173 31.6389 4.7618C31.6178 4.71708 31.5966 4.67235 31.5747 4.62627C31.4602 4.43401 31.3081 4.36012 31.0859 4.23434C31.0859 4.19566 31.0859 4.15698 31.0859 4.11713C30.9816 4.09779 30.8773 4.07845 30.7698 4.05852C30.7698 4.0005 30.7698 3.94248 30.7698 3.8827C30.3387 3.88831 30.1293 3.91862 29.8216 4.15009C29.7412 4.2163 29.6617 4.28316 29.5846 4.35155C29.6107 4.39628 29.6368 4.441 29.6636 4.48708C29.7426 4.64459 29.7426 4.64459 29.7426 4.82041C29.8209 4.82041 29.8991 4.82041 29.9797 4.82041C29.9797 4.85909 29.9797 4.89777 29.9797 4.93762C30.0457 4.94306 30.0457 4.94306 30.113 4.94861C30.3748 5.01683 30.5094 5.13656 30.6908 5.28926C30.7169 5.34728 30.7429 5.4053 30.7698 5.46508C30.929 5.50805 30.929 5.50805 31.0859 5.52368C31.0859 5.56236 31.0859 5.60104 31.0859 5.6409C31.1641 5.6409 31.2423 5.6409 31.3229 5.6409C31.3229 5.67958 31.3229 5.71826 31.3229 5.75811C31.4011 5.75811 31.4793 5.75811 31.5599 5.75811C31.5599 5.79679 31.5599 5.83547 31.5599 5.87532C30.9757 5.82718 30.6629 5.68657 30.2957 5.34786C30.2436 5.28984 30.1914 5.23182 30.1377 5.17205C30.0888 5.16479 30.0399 5.15754 29.9895 5.15007C29.7426 5.09619 29.6565 4.96967 29.5056 4.82041C29.4534 4.80107 29.4013 4.78173 29.3476 4.7618C29.2796 4.19499 29.2796 4.19499 29.5204 3.97061C29.9927 3.65921 30.5399 3.62961 31.0859 3.8827Z" fill="#B19E8D"/>
<path d="M31.4019 10.7396C31.4019 10.9472 31.3651 10.966 31.1794 11.1105C31.132 11.1477 31.0845 11.185 31.0357 11.2234C30.9854 11.262 30.9352 11.3006 30.8834 11.3403C30.8353 11.378 30.7871 11.4157 30.7375 11.4546C30.4954 11.6435 30.2493 11.8289 29.9988 12.0118C29.8055 12.1544 29.6365 12.2981 29.4809 12.4649C29.3682 12.5855 29.3682 12.5855 29.2686 12.6736C29.2164 12.6736 29.1643 12.6736 29.1105 12.6736C29.092 12.7059 29.0735 12.7382 29.0544 12.7714C28.7372 13.197 28.174 13.5574 27.6784 13.8687C27.3385 14.0851 27.0281 14.3083 26.7797 14.5857C26.6081 14.7736 26.4154 14.8876 26.1593 15.0097C26.0199 15.0812 25.9084 15.1613 25.792 15.2523C25.792 15.0765 25.792 15.0765 25.8901 14.9824C25.9327 14.9518 25.9753 14.9212 26.0192 14.8897C26.0613 14.8586 26.1035 14.8276 26.1469 14.7956C26.2661 14.7249 26.2661 14.7249 26.4241 14.7249C26.4453 14.691 26.4665 14.6572 26.4883 14.6223C26.5853 14.4859 26.6891 14.3766 26.8192 14.256C26.8553 14.2224 26.8915 14.1888 26.9287 14.1541C26.9692 14.1176 27.0096 14.0812 27.0513 14.0436C27.0895 14.009 27.1276 13.9744 27.167 13.9387C27.2932 13.8458 27.2932 13.8458 27.4408 13.7929C28.0627 13.5555 28.5831 12.9987 29.0118 12.6013C29.4578 12.1947 29.9267 11.8197 30.4686 11.4834C30.6686 11.3449 30.8201 11.1881 30.9735 11.0208C31.0993 10.9029 31.2358 10.8249 31.4019 10.7396Z" fill="#AF9679"/>
<path d="M30.5328 15.4281C30.585 15.4281 30.6371 15.4281 30.6908 15.4281C30.5832 15.6054 30.4607 15.7324 30.2797 15.8725C30.2289 15.9122 30.178 15.9518 30.1256 15.9927C30.071 16.0349 30.0163 16.077 29.96 16.1204C29.8447 16.2102 29.7295 16.3 29.6143 16.3899C29.5562 16.435 29.4982 16.4801 29.4384 16.5266C29.1891 16.7209 28.9422 16.9168 28.6958 17.1131C28.651 17.1487 28.6063 17.1843 28.5603 17.2209C28.4716 17.2915 28.3831 17.3621 28.2945 17.4327C28.2052 17.5039 28.1158 17.5751 28.0264 17.6462C27.8954 17.7504 27.7647 17.8548 27.634 17.9592C27.5756 18.0057 27.5756 18.0057 27.5159 18.0531C27.3605 18.1776 27.2134 18.3007 27.0794 18.4384C27.0457 18.47 27.012 18.5017 26.9772 18.5343C26.9251 18.5343 26.8729 18.5343 26.8192 18.5343C26.975 18.1234 27.4469 17.831 27.8464 17.5416C28.1192 17.3427 28.3479 17.1302 28.5785 16.9043C28.7859 16.7103 29.01 16.5232 29.2686 16.3658C29.3208 16.3658 29.3729 16.3658 29.4266 16.3658C29.4527 16.2885 29.4788 16.2111 29.5057 16.1314C29.5578 16.1314 29.6099 16.1314 29.6637 16.1314C29.6831 16.0972 29.7026 16.063 29.7226 16.0277C29.837 15.8767 29.9641 15.7917 30.1427 15.6809C30.199 15.6456 30.2553 15.6103 30.3134 15.574C30.3597 15.5452 30.4061 15.5164 30.4538 15.4867C30.4799 15.4674 30.506 15.4481 30.5328 15.4281Z" fill="#B3A38E"/>
<path d="M1.69307 28.263C1.74739 28.3619 1.74739 28.3619 1.77208 28.4974C1.69307 28.5951 1.61406 28.6928 1.53505 28.7904C1.48819 28.9187 1.45391 29.0474 1.419 29.1778C1.3773 29.3169 1.3219 29.4471 1.2585 29.5816C1.17593 29.7577 1.11164 29.9301 1.06097 30.1127C1.00117 30.3246 0.914335 30.5176 0.806955 30.7185C0.712817 30.9054 0.642282 31.097 0.568681 31.2888C0.507879 31.4277 0.507879 31.4277 0.364668 31.6328C0.233527 31.9195 0.321152 32.1384 0.428866 32.424C0.211856 32.2771 0.122623 32.1673 0.0995428 31.944C0.0990335 31.8981 0.0985243 31.8522 0.0979996 31.805C0.0968792 31.759 0.0957588 31.713 0.0946045 31.6656C0.112814 31.5449 0.112814 31.5449 0.27084 31.4277C0.29947 31.3087 0.321569 31.1889 0.339976 31.0688C0.393991 30.7824 0.469353 30.5753 0.660349 30.3266C0.814091 30.091 0.888993 29.8356 0.981647 29.5839C1.40514 28.4765 1.40514 28.4765 1.69307 28.263Z" fill="#AB9781"/>
<path d="M39.3032 8.10236C39.3553 8.1217 39.4075 8.14104 39.4612 8.16096C39.3776 8.38822 39.2555 8.48635 39.0167 8.62981C38.8125 8.77169 38.7537 8.83146 38.7306 9.04143C38.7354 9.10625 38.7402 9.17107 38.7451 9.23786C38.7744 9.65053 38.643 9.85028 38.276 10.1536C37.6167 10.6899 37.6167 10.6899 37.2488 10.7983C37.0315 10.8056 37.0315 10.8056 36.8538 10.7983C37.0751 10.6158 37.2539 10.5274 37.5649 10.4466C37.7428 10.4051 37.7428 10.4051 37.8809 10.3294C37.8907 10.2871 37.9005 10.2448 37.9106 10.2012C37.9833 9.95836 38.1895 9.79305 38.434 9.62612C38.4862 9.62612 38.5383 9.62612 38.592 9.62612C38.5809 9.52232 38.5693 9.41854 38.5575 9.31478C38.5511 9.25698 38.5446 9.19919 38.538 9.13964C38.5195 8.97596 38.5195 8.97596 38.434 8.80563C38.4862 8.80563 38.5383 8.80563 38.592 8.80563C38.5953 8.75245 38.5986 8.69926 38.6019 8.64447C38.6711 8.45399 38.6711 8.45399 38.9032 8.32213C39.0229 8.27136 39.0229 8.27136 39.1451 8.21957C39.1973 8.18089 39.2494 8.14221 39.3032 8.10236Z" fill="#A49481"/>
<path d="M36.1427 10.681C36.2991 10.7004 36.4556 10.7197 36.6168 10.7396C36.5458 10.7617 36.5458 10.7617 36.4733 10.7841C36.2758 10.8673 36.1948 10.9441 36.0674 11.0826C36.0253 11.1274 35.9832 11.1723 35.9398 11.2185C35.8959 11.2659 35.8521 11.3134 35.8069 11.3623C35.4923 11.6946 35.1867 12.007 34.7813 12.2824C34.5747 12.4275 34.4017 12.5921 34.2257 12.7577C34.0543 12.8723 33.9192 12.8878 33.6933 12.9081C33.6933 12.9468 33.6933 12.9854 33.6933 13.0253C33.6412 13.0059 33.589 12.9866 33.5353 12.9667C33.5874 12.928 33.6396 12.8893 33.6933 12.8495C33.7294 12.8226 33.7654 12.7957 33.8026 12.768C33.8935 12.7008 33.9854 12.6343 34.0779 12.5683C34.406 12.3316 34.6973 12.0877 34.9729 11.8168C35.1828 11.6116 35.4025 11.4124 35.6211 11.2124C35.7503 11.0969 35.7503 11.0969 35.8267 10.9741C35.8788 10.9741 35.9309 10.9741 35.9847 10.9741C36.0368 10.8774 36.089 10.7807 36.1427 10.681Z" fill="#B19E87"/>
<path d="M2.08813 28.4388C2.36874 28.415 2.46064 28.426 2.69061 28.556C2.75253 28.5947 2.81446 28.6334 2.87826 28.6732C2.95649 28.6732 3.03471 28.6732 3.1153 28.6732C3.27672 28.763 3.27672 28.763 3.44617 28.8783C3.5027 28.9164 3.55922 28.9545 3.61747 28.9937C3.66035 29.0233 3.70323 29.0529 3.7474 29.0835C3.61703 29.1802 3.48666 29.2769 3.35234 29.3765C3.24804 29.3378 3.14375 29.2991 3.03629 29.2593C3.03629 29.2206 3.03629 29.1819 3.03629 29.1421C2.97762 29.1384 2.91895 29.1348 2.85851 29.1311C2.57554 29.0691 2.49516 28.9643 2.32517 28.7904C2.27302 28.7711 2.22088 28.7517 2.16715 28.7318C2.11776 28.5816 2.11776 28.5816 2.08813 28.4388Z" fill="#A8927D"/>
<path d="M26.4241 18.8273C26.226 19.158 25.8996 19.3978 25.555 19.6478C25.1638 19.9325 24.7859 20.2199 24.4293 20.5285C24.2314 20.6937 24.0184 20.8467 23.8062 21.0017C23.6113 21.1487 23.4371 21.3037 23.2636 21.4646C23.2375 21.4259 23.2114 21.3873 23.1846 21.3474C23.7864 20.651 23.7864 20.651 24.1327 20.5306C24.3966 20.4266 24.5554 20.2565 24.6809 20.0581C24.8298 19.8502 25.0472 19.6884 25.3327 19.5856C25.522 19.5129 25.5463 19.4385 25.634 19.2962C26.0965 18.8273 26.0965 18.8273 26.4241 18.8273Z" fill="#AF9E8B"/>
<path d="M34.4044 8.74704C34.5538 8.76307 34.5538 8.76307 34.7205 8.80565C34.7982 8.89951 34.7982 8.89951 34.8587 9.01809C35.0155 9.27823 35.2342 9.4208 35.5337 9.59432C35.6686 9.68474 35.6686 9.68474 35.7476 9.86056C35.8259 9.8799 35.9041 9.89924 35.9847 9.91917C36.039 10.04 36.039 10.04 36.0637 10.1536C36.0958 10.1238 36.1279 10.0939 36.1609 10.0632C36.3007 9.97778 36.3007 9.97778 36.4628 9.98579C36.5217 9.99644 36.5807 10.0071 36.6415 10.0181C36.9187 10.0516 36.9187 10.0516 37.1637 9.96267C37.3101 9.85482 37.3101 9.85482 37.4859 9.68474C37.5381 9.70408 37.5902 9.72342 37.6439 9.74335C37.1377 10.1997 37.1377 10.1997 36.8291 10.2303C36.6563 10.2122 36.6563 10.2122 36.3797 10.1536C36.3537 10.231 36.3276 10.3083 36.3007 10.388C35.9409 10.2694 35.6542 10.1366 35.481 9.86789C35.3349 9.65948 35.1736 9.55728 34.9276 9.41483C34.7995 9.3331 34.7995 9.3331 34.6415 9.15729C34.5632 9.13795 34.485 9.1186 34.4044 9.09868C34.4044 8.98264 34.4044 8.8666 34.4044 8.74704Z" fill="#5D4A35"/>
<path d="M36.0636 6.98883C36.1679 7.00817 36.2722 7.02751 36.3796 7.04744C36.3796 7.08612 36.3796 7.1248 36.3796 7.16465C36.453 7.18157 36.5263 7.1985 36.6019 7.21593C36.8537 7.28186 36.8537 7.28186 37.0908 7.39908C37.0908 7.43776 37.0908 7.47644 37.0908 7.51629C37.1951 7.55497 37.2994 7.59365 37.4068 7.6335C37.4068 7.67218 37.4068 7.71086 37.4068 7.75071C37.4541 7.76522 37.5013 7.77973 37.55 7.79467C37.7517 7.88016 37.8467 7.9521 37.9599 8.10235C37.9352 8.23422 37.9352 8.23422 37.8809 8.33678C37.7459 8.24164 37.6143 8.14378 37.4858 8.04375C37.4858 8.00507 37.4858 7.96639 37.4858 7.92653C37.4337 7.92653 37.3815 7.92653 37.3278 7.92653C37.1783 7.80933 37.0434 7.68504 36.9056 7.56024C36.8408 7.50948 36.8408 7.50948 36.7747 7.45768C36.7226 7.45768 36.6704 7.45768 36.6167 7.45768C36.6428 7.59306 36.6688 7.72844 36.6957 7.86793C36.6436 7.86793 36.5914 7.86793 36.5377 7.86793C36.0636 7.27014 36.0636 7.27014 36.0636 6.98883Z" fill="#6E5840"/>
<path d="M20.4191 19.5892C20.4712 19.6279 20.5234 19.6666 20.5771 19.7064C20.3868 19.851 20.1956 19.9949 20.0043 20.1386C19.9504 20.1796 19.8965 20.2205 19.841 20.2627C19.7885 20.302 19.7361 20.3413 19.682 20.3818C19.634 20.418 19.586 20.4542 19.5366 20.4915C19.3894 20.5871 19.2529 20.6426 19.0759 20.7027C18.5806 20.9499 18.1869 21.2442 17.7996 21.5795C17.6536 21.699 17.6536 21.699 17.4956 21.7576C17.5402 21.539 17.6574 21.4428 17.8709 21.2925C17.9284 21.2515 17.9858 21.2106 18.045 21.1684C18.0984 21.1308 18.1517 21.0931 18.2067 21.0544C18.2719 21.0048 18.3371 20.9552 18.4043 20.9042C18.5747 20.7809 18.7466 20.6602 18.9228 20.5416C18.9742 20.5068 19.0256 20.4721 19.0786 20.4362C19.2339 20.3511 19.2339 20.3511 19.3878 20.3264C19.6641 20.2686 19.8213 20.093 20.0043 19.9372C20.0443 19.9039 20.0843 19.8706 20.1256 19.8363C20.224 19.7544 20.3216 19.6718 20.4191 19.5892Z" fill="#B2987C"/>
<path d="M41.4366 6.22696C41.4366 6.28498 41.4366 6.343 41.4366 6.40278C41.3583 6.44146 41.2801 6.48014 41.1995 6.51999C41.3477 6.29289 41.3477 6.29289 41.4366 6.22696ZM41.1205 6.51999C41.1466 6.57801 41.1727 6.63603 41.1995 6.69581C41.1474 6.73449 41.0952 6.77317 41.0415 6.81302C41.0208 6.86606 41.0001 6.91909 40.9788 6.97373C40.8645 7.20259 40.6878 7.351 40.4637 7.52363C40.4263 7.55362 40.3889 7.58361 40.3503 7.61451C40.1224 7.7944 39.8839 7.95293 39.6193 8.10237C39.6193 7.92655 39.6193 7.92655 39.718 7.85329C39.7637 7.81944 39.8093 7.7856 39.8563 7.75073C39.9692 7.61662 40.07 7.47927 40.1724 7.34048C40.2245 7.34048 40.2766 7.34048 40.3304 7.34048C40.3565 7.26312 40.3825 7.18576 40.4094 7.10606C40.4615 7.10606 40.5137 7.10606 40.5674 7.10606C40.5853 7.07463 40.6033 7.0432 40.6217 7.01082C40.7597 6.82562 40.9341 6.68012 41.1205 6.51999Z" fill="#B4A28E"/>
<path d="M5.01159 31.7207C4.56153 32.011 3.71077 32.3068 3.11528 32.3068C3.08921 32.3648 3.06313 32.4228 3.03627 32.4826C2.89816 32.504 2.75985 32.5246 2.62145 32.5449C2.54445 32.5564 2.46745 32.568 2.38811 32.5799C2.16713 32.5998 2.16713 32.5998 1.85107 32.5412C2.05967 32.5025 2.26826 32.4639 2.48318 32.424C2.48318 32.3853 2.48318 32.3467 2.48318 32.3068C2.52809 32.2961 2.57301 32.2855 2.61929 32.2745C2.91545 32.203 3.20619 32.1303 3.49059 32.0357C3.74738 31.9552 3.74738 31.9552 3.94985 31.9259C4.15702 31.9011 4.15702 31.9011 4.37948 31.805C4.61839 31.7201 4.75172 31.7037 5.01159 31.7207Z" fill="#52422F"/>
<path d="M29.4267 3.2966C29.6222 3.32561 29.6222 3.32561 29.8217 3.35521C29.3919 3.73357 29.3919 3.73357 29.1699 3.89365C29.0247 3.99456 29.0247 3.99456 28.9476 4.12442C28.8736 4.2343 28.8736 4.2343 28.6365 4.35152C28.5436 4.35031 28.4508 4.3491 28.355 4.34785C28.2206 4.34967 28.2206 4.34967 28.0834 4.35152C28.0313 4.40954 27.9791 4.46756 27.9254 4.52734C27.9254 4.43064 27.9254 4.33394 27.9254 4.2343C28.0199 4.23672 28.1145 4.23914 28.2118 4.24163C28.3898 4.23312 28.3898 4.23312 28.5575 4.1757C28.7096 4.03113 28.8173 3.88563 28.927 3.7215C29.0316 3.58963 29.0316 3.58963 29.2686 3.53103C29.3641 3.4138 29.3641 3.4138 29.4267 3.2966Z" fill="#B2A18E"/>
<path d="M8.96218 30.5486C8.96218 30.5873 8.96218 30.626 8.96218 30.6659C8.88396 30.6659 8.80574 30.6659 8.72514 30.6659C8.69907 30.7239 8.67299 30.7819 8.64613 30.8417C8.47285 30.9145 8.47285 30.9145 8.24644 30.985C8.1249 31.0234 8.1249 31.0234 8.00091 31.0626C7.91561 31.0888 7.83031 31.115 7.74242 31.142C7.57462 31.1947 7.40682 31.2473 7.23902 31.3C7.16422 31.3231 7.08941 31.3463 7.01234 31.3701C6.897 31.4063 6.78285 31.4448 6.67081 31.4863C6.64474 31.409 6.61866 31.3316 6.5918 31.2519C6.83375 31.1762 7.07573 31.1005 7.31773 31.0248C7.38602 31.0034 7.45431 30.9821 7.52467 30.96C7.79187 30.8765 8.05891 30.7932 8.32823 30.7135C8.49263 30.6666 8.49263 30.6666 8.66095 30.5999C8.80416 30.5486 8.80416 30.5486 8.96218 30.5486Z" fill="#A28C72"/>
<path d="M33.3772 13.0839C33.4293 13.0839 33.4815 13.0839 33.5352 13.0839C33.4887 13.2872 33.394 13.3882 33.2031 13.5361C33.1517 13.5763 33.1002 13.6165 33.0472 13.658C32.9931 13.6994 32.9391 13.7408 32.8833 13.7835C32.8305 13.8247 32.7776 13.866 32.7231 13.9084C32.5733 14.0249 32.4222 14.1405 32.271 14.2561C32.2311 14.2873 32.1912 14.3186 32.1502 14.3509C32.0618 14.4192 31.9693 14.4845 31.8759 14.5491C31.8238 14.5491 31.7716 14.5491 31.7179 14.5491C31.8289 14.2914 31.9947 14.1491 32.2562 13.963C32.3235 13.9147 32.3908 13.8663 32.4602 13.8165C32.5281 13.7682 32.5961 13.7198 32.666 13.67C32.8702 13.5214 33.0583 13.3796 33.234 13.2121C33.2812 13.1698 33.3285 13.1275 33.3772 13.0839Z" fill="#B1A08B"/>
<path d="M15.0462 17.3036C15.1244 17.3326 15.1244 17.3326 15.2042 17.3622C15.126 17.3912 15.126 17.3912 15.0462 17.4208C15.0462 17.3821 15.0462 17.3434 15.0462 17.3036ZM14.8091 17.538C14.8352 17.5767 14.8613 17.6154 14.8881 17.6552C14.8026 17.7169 14.8026 17.7169 14.7153 17.7798C14.5651 17.8909 14.4322 18.0025 14.2955 18.1241C14.1077 18.2913 13.9128 18.4408 13.7029 18.5929C13.5761 18.6869 13.4493 18.7809 13.3227 18.875C13.2124 18.9568 13.1021 19.0386 12.9918 19.1204C12.9918 18.7144 13.7721 18.3048 14.1486 18.0242C14.368 17.8616 14.5884 17.6997 14.8091 17.538ZM12.6758 19.179C12.754 19.208 12.754 19.208 12.8338 19.2376C12.7556 19.2666 12.7556 19.2666 12.6758 19.2962C12.6758 19.2575 12.6758 19.2188 12.6758 19.179Z" fill="#E2D5C4"/>
<path d="M2.08813 28.4388C2.35445 28.4162 2.46052 28.4273 2.68567 28.5414C2.781 28.6066 2.781 28.6066 2.87826 28.6732C2.93856 28.7131 2.99886 28.753 3.06098 28.7941C3.19431 28.9076 3.19431 28.9076 3.19431 29.0835C2.78039 29.0396 2.50984 28.9013 2.16715 28.7318C2.11283 28.578 2.11283 28.578 2.08813 28.4388Z" fill="#B3A28F"/>
<path d="M38.434 9.62613C38.513 9.74334 38.513 9.74334 38.4439 9.92282C38.2233 10.2851 37.7506 10.6511 37.2488 10.7983C37.0315 10.8056 37.0315 10.8056 36.8538 10.7983C37.0751 10.6158 37.2539 10.5274 37.5649 10.4466C37.7428 10.4051 37.7428 10.4051 37.8809 10.3294C37.8907 10.2871 37.9005 10.2448 37.9106 10.2012C37.9846 9.95408 38.2042 9.80702 38.434 9.62613Z" fill="#908677"/>
<path d="M13.94 28.7318C13.7182 29.106 13.2209 29.3518 12.7548 29.5523C12.5207 29.6188 12.2842 29.6758 12.0437 29.7281C12.0698 29.6508 12.0958 29.5734 12.1227 29.4937C12.3052 29.4937 12.4878 29.4937 12.6758 29.4937C12.6758 29.455 12.6758 29.4163 12.6758 29.3765C12.754 29.3765 12.8322 29.3765 12.9128 29.3765C12.9324 29.3414 12.952 29.3064 12.9721 29.2703C13.0851 29.1235 13.1949 29.0553 13.3869 28.9662C13.4391 28.9662 13.4912 28.9662 13.5449 28.9662C13.571 28.9082 13.5971 28.8502 13.624 28.7904C13.782 28.7318 13.782 28.7318 13.94 28.7318Z" fill="#AB9880"/>
<path d="M22.5524 17.831C22.6306 17.8503 22.7089 17.8697 22.7895 17.8896C22.6133 18.0203 22.4371 18.151 22.2608 18.2815C22.1301 18.3786 22.0002 18.4764 21.8709 18.5746C21.1964 19.0617 21.1964 19.0617 20.9722 19.0617C21.0779 18.8821 21.1862 18.7773 21.3919 18.6551C21.6351 18.5064 21.8581 18.3502 22.0783 18.1826C22.1655 18.1178 22.2527 18.0531 22.3401 17.9885C22.4102 17.9365 22.4802 17.8845 22.5524 17.831Z" fill="#AA8F71"/>
<path d="M36.1425 10.681C36.3772 10.71 36.3772 10.71 36.6166 10.7396C36.5694 10.7542 36.5221 10.7689 36.4735 10.7839C36.2745 10.8678 36.1912 10.947 36.0623 11.0862C36.0205 11.1308 35.9788 11.1754 35.9357 11.2213C35.8932 11.2678 35.8506 11.3144 35.8067 11.3623C35.7629 11.4093 35.7191 11.4563 35.674 11.5047C35.5662 11.6206 35.459 11.7367 35.3524 11.8532C35.3263 11.8145 35.3002 11.7758 35.2734 11.7359C35.2212 11.7166 35.1691 11.6973 35.1154 11.6773C35.1601 11.6364 35.2048 11.5954 35.2509 11.5533C35.3088 11.4999 35.3668 11.4466 35.4265 11.3916C35.4842 11.3386 35.542 11.2856 35.6015 11.2309C35.7477 11.1004 35.7477 11.1004 35.8265 10.9741C35.8786 10.9741 35.9308 10.9741 35.9845 10.9741C36.0366 10.8774 36.0888 10.7807 36.1425 10.681Z" fill="#AD9B84"/>
<path d="M2.16714 31.6622C2.21929 31.6815 2.27143 31.7009 2.32516 31.7208C2.28137 31.7526 2.23757 31.7844 2.19245 31.8172C2.10658 31.8801 2.10658 31.8801 2.01899 31.9442C1.93374 32.0064 1.93374 32.0064 1.84677 32.0699C1.68092 32.1922 1.68092 32.1922 1.53503 32.3654C1.35188 32.4261 1.16749 32.4847 0.981945 32.5413C0.929796 32.5799 0.877648 32.6186 0.823919 32.6585C0.771771 32.5811 0.719622 32.5038 0.665894 32.4241C0.720181 32.4007 0.774468 32.3774 0.830401 32.3533C0.937193 32.3067 0.937193 32.3067 1.04614 32.2592C1.11673 32.2286 1.18731 32.198 1.26003 32.1665C1.43115 32.0844 1.55358 32.0049 1.69306 31.8966C1.82364 31.8366 1.95522 31.7779 2.08812 31.7208C2.1142 31.7014 2.14027 31.6821 2.16714 31.6622Z" fill="#5D4833"/>
<path d="M34.4044 8.74704C34.5538 8.76307 34.5538 8.76307 34.7205 8.80565C34.7982 8.89951 34.7982 8.89951 34.8587 9.01809C35.0155 9.27823 35.2342 9.4208 35.5337 9.59432C35.6686 9.68474 35.6686 9.68474 35.7476 9.86056C35.8259 9.8799 35.9041 9.89924 35.9847 9.91917C35.9847 9.95785 35.9847 9.99653 35.9847 10.0364C35.6533 10.0079 35.5235 9.87831 35.3131 9.69573C34.9252 9.32945 34.9252 9.32945 34.4044 9.09868C34.4044 8.98264 34.4044 8.8666 34.4044 8.74704Z" fill="#59442E"/>
<path d="M30.8488 3.82407C30.927 3.84341 31.0052 3.86275 31.0858 3.88267C31.0858 3.92135 31.0858 3.96003 31.0858 3.99989C31.1689 4.01439 31.1689 4.01439 31.2537 4.02919C31.6322 4.17566 31.8766 4.42343 32.0201 4.72102C32.0573 4.83121 32.086 4.94296 32.113 5.0548C32.0347 5.09348 31.9565 5.13216 31.8759 5.17202C31.8661 5.1152 31.8564 5.05839 31.8463 4.99986C31.83 4.94063 31.8137 4.8814 31.7969 4.82038C31.7448 4.80104 31.6926 4.7817 31.6389 4.76177C31.5862 4.66409 31.5335 4.56641 31.4809 4.46874C31.2981 4.24284 31.1361 4.09349 30.8488 3.94128C30.8488 3.9026 30.8488 3.86392 30.8488 3.82407Z" fill="#A99684"/>
<path d="M35.6685 0.0147277C36.5779 -0.0418021 37.4257 0.113446 38.1969 0.48358C37.9092 0.554702 37.8484 0.522768 37.5746 0.439625C36.714 0.175145 36.714 0.175145 35.8265 0.190547C35.8265 0.151867 35.8265 0.113187 35.8265 0.0733342C35.7743 0.053994 35.7222 0.0346539 35.6685 0.0147277Z" fill="#DFD4C6"/>
<path d="M24.7648 15.9556C24.843 15.9846 24.843 15.9846 24.9228 16.0142C24.8446 16.0432 24.8446 16.0432 24.7648 16.0728C24.7648 16.0341 24.7648 15.9954 24.7648 15.9556ZM24.6067 16.1314C24.6067 16.3711 24.4409 16.481 24.2413 16.6552C24.1907 16.7014 24.1907 16.7014 24.1392 16.7485C23.8276 17.0241 23.4678 17.2111 23.0265 17.3622C23.057 17.3359 23.0876 17.3097 23.1191 17.2827C23.1602 17.2473 23.2014 17.2118 23.2438 17.1753C23.2873 17.1379 23.3308 17.1006 23.3756 17.062C23.4755 16.974 23.5704 16.8828 23.6635 16.7907C23.8166 16.6589 23.8166 16.6589 24.0092 16.5746C24.2742 16.4548 24.4167 16.3127 24.6067 16.1314Z" fill="#AE9478"/>
<path d="M4.9325 30.3728C5.01072 30.3728 5.08894 30.3728 5.16953 30.3728C5.19561 30.4502 5.22168 30.5276 5.24855 30.6073C5.30069 30.6073 5.35284 30.6073 5.40657 30.6073C5.48373 30.7122 5.56089 30.8171 5.63806 30.922C5.71584 31.0272 5.71584 31.0272 5.88065 31.0761C5.88065 31.1535 5.88065 31.2308 5.88065 31.3105C5.80243 31.3105 5.7242 31.3105 5.64361 31.3105C5.61754 31.2332 5.59146 31.1558 5.5646 31.0761C5.51245 31.0761 5.4603 31.0761 5.40657 31.0761C5.28744 30.952 5.28744 30.952 5.15966 30.7904C5.11708 30.7374 5.07451 30.6843 5.03064 30.6297C4.9325 30.49 4.9325 30.49 4.9325 30.3728Z" fill="#513D27"/>
<path d="M36.0636 6.98883C36.1679 7.00817 36.2722 7.02751 36.3796 7.04744C36.3796 7.08612 36.3796 7.1248 36.3796 7.16465C36.4318 7.16465 36.4839 7.16465 36.5377 7.16465C36.6398 7.40609 36.7164 7.61406 36.6957 7.86793C36.6436 7.86793 36.5914 7.86793 36.5377 7.86793C36.0636 7.27014 36.0636 7.27014 36.0636 6.98883Z" fill="#776554"/>
<path d="M1.61399 31.7794C1.66614 31.7987 1.71829 31.8181 1.77202 31.838C1.27411 32.2169 1.27411 32.2169 0.986828 32.3801C0.93305 32.414 0.879272 32.4478 0.823864 32.4827C0.823864 32.5407 0.823864 32.5987 0.823864 32.6585C0.719567 32.6198 0.61527 32.5811 0.507812 32.5413C0.535737 32.3787 0.566002 32.3197 0.738987 32.2132C0.801219 32.1849 0.86345 32.1566 0.927568 32.1274C1.16478 32.0177 1.39256 31.9061 1.61399 31.7794Z" fill="#6C553D"/>
<path d="M1.69305 28.263C1.74737 28.3619 1.74737 28.3619 1.77206 28.4974C1.69305 28.5951 1.61404 28.6928 1.53502 28.7904C1.48496 28.9267 1.44676 29.0627 1.41095 29.2014C1.377 29.3179 1.377 29.3179 1.29798 29.4351C1.24584 29.4351 1.19369 29.4351 1.13996 29.4351C1.11389 29.4931 1.08781 29.5511 1.06095 29.6109C1.03487 29.5722 1.0088 29.5336 0.981934 29.4937C1.01453 29.4466 1.04712 29.3994 1.0807 29.3509C1.23352 29.1201 1.31027 28.8982 1.38934 28.6489C1.45906 28.4905 1.54886 28.3895 1.69305 28.263Z" fill="#AE9985"/>
<path d="M25.7129 15.4868C25.7602 15.5964 25.7602 15.5964 25.7919 15.7212C25.5794 15.9293 25.318 16.0249 25.0018 16.1315C25.1131 15.943 25.247 15.8196 25.4463 15.6773C25.4962 15.6413 25.5461 15.6053 25.5975 15.5683C25.6546 15.5279 25.6546 15.5279 25.7129 15.4868ZM24.6858 16.2487C24.7379 16.268 24.7901 16.2874 24.8438 16.3073C24.7134 16.3846 24.5831 16.462 24.4487 16.5417C24.5969 16.3146 24.5969 16.3146 24.6858 16.2487Z" fill="#A08567"/>
<path d="M41.4365 6.22696C41.4365 6.28498 41.4365 6.343 41.4365 6.40278C41.3583 6.44146 41.28 6.48014 41.1994 6.51999C41.3476 6.29289 41.3476 6.29289 41.4365 6.22696ZM41.1204 6.51999C41.1465 6.57801 41.1726 6.63603 41.1994 6.69581C41.1473 6.73449 41.0951 6.77317 41.0414 6.81302C40.9906 6.93427 40.9906 6.93427 40.9624 7.04745C40.832 7.06679 40.7017 7.08613 40.5673 7.10606C40.6991 6.87507 40.9013 6.70816 41.1204 6.51999ZM40.4093 7.10606C40.4615 7.10606 40.5136 7.10606 40.5673 7.10606C40.5673 7.14474 40.5673 7.18342 40.5673 7.22327C40.5152 7.22327 40.463 7.22327 40.4093 7.22327C40.4093 7.18459 40.4093 7.14591 40.4093 7.10606ZM40.1723 7.34048C40.2244 7.35982 40.2766 7.37916 40.3303 7.39909C40.2521 7.43777 40.1739 7.47645 40.0933 7.5163C40.1193 7.45828 40.1454 7.40026 40.1723 7.34048Z" fill="#AE967E"/>
<path d="M30.2957 5.28925C30.5711 5.35426 30.831 5.42189 31.0858 5.52367C31.0858 5.56235 31.0858 5.60103 31.0858 5.64088C31.164 5.64088 31.2422 5.64088 31.3228 5.64088C31.3228 5.67956 31.3228 5.71824 31.3228 5.7581C31.401 5.7581 31.4793 5.7581 31.5599 5.7581C31.5599 5.79678 31.5599 5.83546 31.5599 5.87531C31.0361 5.83214 30.7485 5.72793 30.3916 5.4392C30.2957 5.34785 30.2957 5.34785 30.2957 5.28925Z" fill="#A18C77"/>
<path d="M20.419 19.5892C20.4712 19.6279 20.5233 19.6666 20.577 19.7064C20.1859 19.9965 19.7948 20.2866 19.3918 20.5855C19.3918 20.3775 19.4302 20.3579 19.6165 20.213C19.6629 20.1766 19.7092 20.1401 19.757 20.1026C19.806 20.0649 19.855 20.0273 19.9054 19.9885C19.9544 19.9501 20.0034 19.9118 20.0539 19.8723C20.1751 19.7775 20.2968 19.6832 20.419 19.5892Z" fill="#A4896A"/>
<path d="M2.79928 32.5413C2.7006 32.5695 2.60182 32.5975 2.50299 32.6255C2.42049 32.649 2.42049 32.649 2.33632 32.6729C2.04031 32.7502 1.79047 32.7828 1.47582 32.7793C1.41267 32.7788 1.34952 32.7783 1.28446 32.7777C1.23679 32.7771 1.18913 32.7764 1.14001 32.7757C1.4072 32.6644 1.67212 32.6114 1.96965 32.5596C2.05846 32.5436 2.14728 32.5277 2.23879 32.5113C2.46494 32.4848 2.58772 32.4839 2.79928 32.5413Z" fill="#6A5F4D"/>
<path d="M5.01169 31.7208C4.75455 31.8866 4.46986 31.9764 4.15983 32.0745C3.98366 32.1283 3.98366 32.1283 3.82402 32.2004C3.63167 32.2595 3.54754 32.2321 3.35242 32.1896C3.55442 32.1107 3.7569 32.0327 3.95983 31.9552C4.01681 31.9328 4.0738 31.9105 4.13251 31.8874C4.43532 31.7726 4.66195 31.688 5.01169 31.7208Z" fill="#5B4B38"/>
<path d="M1.61408 27.5597C1.83405 27.6413 1.84946 27.7446 1.93014 27.9113C1.87799 27.9113 1.82584 27.9113 1.77211 27.9113C1.73789 27.982 1.73789 27.982 1.70297 28.0542C1.61408 28.2044 1.61408 28.2044 1.45606 28.263C1.39289 28.0703 1.36941 27.9869 1.45606 27.7941C1.50821 27.7941 1.56036 27.7941 1.61408 27.7941C1.61408 27.7168 1.61408 27.6394 1.61408 27.5597Z" fill="#CEC0B1"/>
<path d="M19.7078 13.7285C19.7339 13.7866 19.76 13.8446 19.7869 13.9044C19.7488 13.9277 19.7107 13.9511 19.6714 13.9751C19.6215 14.0062 19.5716 14.0372 19.5202 14.0692C19.4707 14.0998 19.4212 14.1304 19.3702 14.1619C19.2162 14.2608 19.2162 14.2608 19.0757 14.4318C19.0236 14.4318 18.9714 14.4318 18.9177 14.4318C19.0344 14.2295 19.1894 14.1007 19.4017 13.9483C19.4589 13.9069 19.5161 13.8655 19.5751 13.8229C19.6189 13.7917 19.6627 13.7606 19.7078 13.7285ZM18.6017 14.6076C18.6017 14.7835 18.6017 14.7835 18.6017 14.7835V14.6076ZM18.3646 14.7835C18.4428 14.8125 18.4428 14.8125 18.5226 14.8421C18.4444 14.8711 18.4444 14.8711 18.3646 14.9007C18.3646 14.862 18.3646 14.8233 18.3646 14.7835Z" fill="#E2D4C2"/>
<path d="M0.349884 31.3105C0.402032 31.3492 0.454181 31.3879 0.507909 31.4278C0.465539 31.4834 0.423168 31.539 0.379514 31.5963C0.209531 31.8818 0.319646 32.1343 0.428897 32.4241C0.213753 32.2784 0.125296 32.1689 0.0967957 31.9481C0.0867008 31.5781 0.0867008 31.5781 0.231364 31.3948C0.290031 31.3531 0.290031 31.3531 0.349884 31.3105Z" fill="#988671"/>
<path d="M39.3031 8.10236C39.3553 8.1217 39.4074 8.14104 39.4611 8.16096C39.3464 8.47316 39.0597 8.65115 38.75 8.86424C38.724 8.80622 38.6979 8.7482 38.671 8.68842C38.8016 8.54305 38.8016 8.54305 38.9821 8.3844C39.0415 8.33159 39.1009 8.27878 39.1621 8.22438C39.2319 8.16398 39.2319 8.16398 39.3031 8.10236Z" fill="#AC9B87"/>
<path d="M41.5945 6.05115C41.6206 6.05115 41.6467 6.05115 41.6735 6.05115C41.7195 6.33859 41.5767 6.48287 41.3575 6.71413C41.2988 6.77676 41.2401 6.83939 41.1797 6.90392C41.1112 6.97497 41.1112 6.97497 41.0414 7.04746C40.988 6.94467 40.988 6.94467 40.9624 6.81303C41.0528 6.69788 41.0528 6.69788 41.1846 6.58227C41.3706 6.41104 41.5049 6.26376 41.5945 6.05115Z" fill="#B6A390"/>
<path d="M2.3252 28.556C2.50297 28.5377 2.50297 28.5377 2.72026 28.556C3.03631 28.7968 3.03631 28.7968 3.03631 28.9662C2.73734 28.912 2.59645 28.8846 2.41408 28.6952C2.38475 28.6493 2.35542 28.6033 2.3252 28.556Z" fill="#C6B8A8"/>
<path d="M29.7426 4.82037C29.8208 4.82037 29.899 4.82037 29.9796 4.82037C29.9796 4.85905 29.9796 4.89773 29.9796 4.93759C30.0236 4.94121 30.0676 4.94484 30.1129 4.94858C30.4128 5.02674 30.6284 5.19683 30.7697 5.40644C30.5277 5.37069 30.3588 5.314 30.1574 5.20864C30.1089 5.18401 30.0604 5.15938 30.0105 5.13401C29.9742 5.10787 29.9379 5.08173 29.9006 5.0548C29.9006 4.99678 29.9006 4.93876 29.9006 4.87898C29.8484 4.85964 29.7963 4.8403 29.7426 4.82037Z" fill="#BAAA9C"/>
<path d="M4.6166 32.0724C4.41101 32.1314 4.20524 32.1899 3.99931 32.2482C3.91185 32.2734 3.91185 32.2734 3.82261 32.299C3.76634 32.3149 3.71007 32.3308 3.65209 32.3471C3.60037 32.3618 3.54864 32.3766 3.49535 32.3918C3.35239 32.424 3.35239 32.424 3.11536 32.424C3.11536 32.3854 3.11536 32.3467 3.11536 32.3068C3.30599 32.256 3.49691 32.2061 3.6882 32.1566C3.74208 32.1422 3.79596 32.1277 3.85147 32.1128C4.14273 32.0383 4.32329 32.0033 4.6166 32.0724Z" fill="#7C6F5D"/>
<path d="M1.61405 32.0724C1.6662 32.0918 1.71834 32.1111 1.77207 32.131C1.5767 32.3782 1.3318 32.4375 0.981945 32.5413C0.929796 32.58 0.877648 32.6186 0.823919 32.6585C0.771771 32.5811 0.719622 32.5038 0.665894 32.4241C0.721098 32.4085 0.776302 32.3929 0.833179 32.3769C0.905086 32.3562 0.976994 32.3355 1.05108 32.3142C1.12258 32.2938 1.19408 32.2734 1.26775 32.2524C1.46567 32.1964 1.46567 32.1964 1.61405 32.0724Z" fill="#55402A"/>
<path d="M9.75242 30.49C9.59808 30.5504 9.44326 30.6101 9.28822 30.6695C9.20205 30.7028 9.11589 30.7361 9.02711 30.7705C8.95357 30.794 8.88003 30.8175 8.80427 30.8417C8.75212 30.8223 8.69997 30.803 8.64624 30.7831C8.67231 30.7444 8.69839 30.7057 8.72525 30.6658C8.80348 30.6658 8.8817 30.6658 8.96229 30.6658C8.96229 30.6078 8.96229 30.5498 8.96229 30.49C9.25746 30.4452 9.46387 30.4272 9.75242 30.49Z" fill="#B09F8A"/>
<path d="M3.35218 28.9076C3.45648 28.9463 3.56078 28.985 3.66824 29.0248C3.66824 29.0829 3.66824 29.1409 3.66824 29.2007C3.51021 29.2996 3.51021 29.2996 3.35218 29.3765C3.24789 29.3378 3.14359 29.2991 3.03613 29.2593C3.14043 29.2399 3.24473 29.2206 3.35218 29.2007C3.35218 29.104 3.35218 29.0073 3.35218 28.9076Z" fill="#9B8169"/>
<path d="M34.8785 9.21585C34.9659 9.2707 35.0531 9.32567 35.1403 9.38068C35.1889 9.41128 35.2374 9.44187 35.2875 9.4734C35.4202 9.56004 35.5451 9.64959 35.6687 9.74331C35.8142 9.86361 35.8142 9.86361 35.9847 9.91913C35.9847 9.95781 35.9847 9.99649 35.9847 10.0363C35.6392 10.0118 35.4691 9.84172 35.2539 9.65906C35.2176 9.62956 35.1813 9.60006 35.144 9.56966C34.8785 9.34905 34.8785 9.34905 34.8785 9.21585Z" fill="#4E3922"/>
<path d="M0.744918 30.49C0.797066 30.5287 0.849215 30.5674 0.902943 30.6072C0.707387 30.9554 0.707387 30.9554 0.507879 31.3105C0.455731 31.3105 0.403582 31.3105 0.349854 31.3105C0.389923 31.0926 0.438038 30.9158 0.586892 30.7244C0.63904 30.7244 0.691189 30.7244 0.744918 30.7244C0.744918 30.6471 0.744918 30.5697 0.744918 30.49Z" fill="#A6907A"/>
<path d="M35.1946 6.05115C35.2673 6.07902 35.2673 6.07902 35.3415 6.10746C35.5035 6.1658 35.6512 6.19908 35.8267 6.22697C35.8267 6.26565 35.8267 6.30433 35.8267 6.34418C35.8788 6.34418 35.931 6.34418 35.9847 6.34418C35.9847 6.42154 35.9847 6.4989 35.9847 6.57861C35.731 6.49762 35.5857 6.40723 35.4119 6.24894C35.3707 6.21193 35.3296 6.17491 35.2872 6.13677C35.2566 6.10851 35.2261 6.08026 35.1946 6.05115Z" fill="#A8896E"/>
<path d="M14.4931 24.2191C14.5453 24.2578 14.5974 24.2965 14.6512 24.3363C14.5729 24.375 14.4947 24.4137 14.4141 24.4535C14.4402 24.3762 14.4663 24.2988 14.4931 24.2191ZM14.2561 24.5121C14.2561 24.688 14.2561 24.688 14.0586 24.8455C13.9934 24.8902 13.9282 24.9349 13.861 24.981C13.8089 24.9617 13.7567 24.9423 13.703 24.9224C13.8855 24.787 14.068 24.6516 14.2561 24.5121Z" fill="#A58B6E"/>
<path d="M34.0884 8.5126C34.2448 8.57062 34.2448 8.57062 34.4044 8.62982C34.3784 8.74586 34.3523 8.8619 34.3254 8.98146C34.2472 8.96212 34.169 8.94278 34.0884 8.92285C34.0884 8.78747 34.0884 8.65209 34.0884 8.5126Z" fill="#79644A"/>
<path d="M2.79923 32.2482C2.79923 32.3256 2.79923 32.403 2.79923 32.4827C2.20663 32.6072 2.20663 32.6072 1.85107 32.5413C2.05967 32.5026 2.26826 32.4639 2.48318 32.424C2.48318 32.3854 2.48318 32.3467 2.48318 32.3068C2.6412 32.2482 2.6412 32.2482 2.79923 32.2482Z" fill="#50422F"/>
<path d="M23.0265 21.4646C23.0265 21.6723 22.9783 21.705 22.7993 21.8565C22.7572 21.893 22.715 21.9295 22.6716 21.9671C22.5524 22.0507 22.5524 22.0507 22.3944 22.0507C22.4697 21.805 22.5234 21.7154 22.7993 21.5598C22.8743 21.5284 22.9493 21.497 23.0265 21.4646Z" fill="#AD9D87"/>
<path d="M36.2216 7.28183C36.4713 7.36211 36.537 7.3984 36.6956 7.57486C36.7055 7.73237 36.7055 7.73237 36.6956 7.86789C36.6435 7.86789 36.5913 7.86789 36.5376 7.86789C36.2216 7.47963 36.2216 7.47963 36.2216 7.28183Z" fill="#665648"/>
<path d="M29.6635 3.35522C29.7157 3.37456 29.7678 3.3939 29.8215 3.41383C29.5608 3.60723 29.3 3.80063 29.0314 3.9999C29.0053 3.94188 28.9793 3.88386 28.9524 3.82408C29.1871 3.66936 29.4217 3.51463 29.6635 3.35522Z" fill="#AD9983"/>
<path d="M0.270814 31.0761C0.296888 31.0761 0.322963 31.0761 0.349827 31.0761C0.359703 31.2446 0.359703 31.2446 0.349827 31.4277C0.297678 31.4664 0.24553 31.5051 0.191801 31.5449C0.160159 31.6811 0.133355 31.8179 0.112788 31.9552C0.0867141 31.9552 0.0606399 31.9552 0.0337755 31.9552C0.00608115 31.6128 0.0205588 31.3777 0.270814 31.0761Z" fill="#B6A796"/>
<path d="M35.7477 10.2708C35.9041 10.3288 35.9041 10.3288 36.0637 10.388C36.0637 10.4267 36.0637 10.4654 36.0637 10.5052C36.1941 10.5052 36.3245 10.5052 36.4588 10.5052C36.4327 10.5826 36.4066 10.6599 36.3798 10.7396C36.3016 10.7203 36.2233 10.701 36.1427 10.681C36.1427 10.6423 36.1427 10.6037 36.1427 10.5638C36.0922 10.5481 36.0417 10.5324 35.9897 10.5162C35.8267 10.4466 35.8267 10.4466 35.7477 10.2708Z" fill="#856E51"/>
<path d="M26.4241 18.8273C26.3013 19.051 26.1053 19.1902 25.8711 19.3548C25.8464 19.2229 25.8464 19.2229 25.8711 19.0618C26.1957 18.8273 26.1957 18.8273 26.4241 18.8273Z" fill="#B3A28D"/>
<path d="M38.5131 8.62982C38.5392 8.68784 38.5653 8.74586 38.5921 8.80564C38.54 8.80564 38.4879 8.80564 38.4341 8.80564C38.5123 8.89267 38.5123 8.89267 38.5921 8.98146C38.6076 9.13965 38.6076 9.13965 38.602 9.31478C38.6006 9.37303 38.5992 9.43128 38.5977 9.49129C38.595 9.55804 38.595 9.55804 38.5921 9.62613C38.5661 9.62613 38.54 9.62613 38.5131 9.62613C38.4863 9.53464 38.4601 9.44304 38.4341 9.35141C38.4195 9.30042 38.4048 9.24942 38.3897 9.19689C38.3559 9.04375 38.3491 8.90187 38.3551 8.74703C38.4073 8.74703 38.4594 8.74703 38.5131 8.74703C38.5131 8.70835 38.5131 8.66967 38.5131 8.62982Z" fill="#897965"/>
<path d="M30.1376 3.82407C30.3201 3.82407 30.5026 3.82407 30.6907 3.82407C30.6907 3.84341 30.6907 3.86275 30.6907 3.88267C30.5082 3.88267 30.3256 3.88267 30.1376 3.88267C30.1376 3.86333 30.1376 3.84399 30.1376 3.82407ZM29.9796 3.88267C30.0317 3.90201 30.0839 3.92135 30.1376 3.94128C29.9551 4.07666 29.7726 4.21204 29.5845 4.35152C29.5584 4.2935 29.5324 4.23548 29.5055 4.17571C29.6619 4.079 29.8184 3.9823 29.9796 3.88267Z" fill="#B7A99A"/>
<path d="M40.7255 7.04745C40.8037 7.06679 40.8819 7.08614 40.9625 7.10606C40.8854 7.17461 40.808 7.24294 40.7304 7.31118C40.6873 7.34926 40.6442 7.38734 40.5999 7.42657C40.5631 7.45618 40.5263 7.48579 40.4884 7.51631C40.4624 7.51631 40.4363 7.51631 40.4094 7.51631C40.4094 7.41961 40.4094 7.32291 40.4094 7.22327C40.4616 7.22327 40.5137 7.22327 40.5674 7.22327C40.5674 7.18459 40.5674 7.14591 40.5674 7.10606C40.6196 7.08672 40.6717 7.06738 40.7255 7.04745Z" fill="#B9A896"/>
<path d="M32.113 14.0802C32.1722 14.1827 32.1722 14.1827 32.192 14.3146C32.0488 14.4465 32.0488 14.4465 31.8759 14.549C31.8238 14.549 31.7716 14.549 31.7179 14.549C31.8116 14.3512 31.8977 14.2181 32.113 14.0802Z" fill="#AF9B86"/>
<path d="M36.7156 10.7799C36.8408 10.7846 36.966 10.7903 37.0909 10.7982C37.0909 10.8176 37.0909 10.8369 37.0909 10.8568C36.9931 10.8617 36.8954 10.8665 36.7946 10.8715C36.5387 10.894 36.4684 10.9096 36.2613 11.0363C36.2222 11.0738 36.1831 11.1113 36.1428 11.1499C36.0906 11.1305 36.0385 11.1112 35.9847 11.0913C36.1803 10.8275 36.3249 10.7779 36.7156 10.7799Z" fill="#DFD9D0"/>
<path d="M15.9153 23.2228C15.9675 23.2421 16.0196 23.2615 16.0733 23.2814C15.8647 23.4361 15.6561 23.5909 15.4412 23.7503C15.3891 23.7309 15.3369 23.7116 15.2832 23.6917C15.4939 23.5354 15.7046 23.3791 15.9153 23.2228Z" fill="#A38A6A"/>
<path d="M25.555 15.4281C25.555 15.604 25.555 15.604 25.4512 15.698C25.4072 15.7286 25.3632 15.7592 25.3179 15.7908C25.2739 15.8218 25.2299 15.8529 25.1846 15.8848C25.1504 15.9082 25.1161 15.9315 25.0809 15.9556C25.0287 15.9362 24.9766 15.9169 24.9229 15.897C25.1137 15.7099 25.2926 15.5602 25.555 15.4281Z" fill="#AE9376"/>
<path d="M38.4339 9.62613C38.513 9.74334 38.513 9.74334 38.4685 9.88986C38.3549 10.0364 38.3549 10.0364 38.108 10.1133C38.0331 10.1266 37.9581 10.1399 37.8809 10.1536C37.9581 10.0766 38.0355 9.99971 38.113 9.92282C38.156 9.87999 38.1991 9.83715 38.2435 9.79302C38.3549 9.68474 38.3549 9.68474 38.4339 9.62613Z" fill="#847764"/>
<path d="M36.7747 7.75073C36.892 7.80875 36.892 7.80875 37.0117 7.86795C37.0265 8.05109 37.0265 8.05109 37.0117 8.21958C36.9596 8.21958 36.9074 8.21958 36.8537 8.21958C36.796 8.10369 36.7435 7.98629 36.6957 7.86795C36.7218 7.82927 36.7478 7.79058 36.7747 7.75073Z" fill="#645343"/>
<path d="M5.16974 31.838C5.06545 31.8573 4.96115 31.8766 4.85369 31.8966C4.85369 31.9352 4.85369 31.9739 4.85369 32.0138C4.50169 32.0428 4.50169 32.0428 4.14258 32.0724C4.22159 31.9552 4.22159 31.9552 4.43394 31.8892C4.69234 31.8386 4.90403 31.8286 5.16974 31.838Z" fill="#695B49"/>
<path d="M5.88065 31.1933C6.01102 31.2126 6.14139 31.232 6.27571 31.2519C6.27571 31.2906 6.27571 31.3293 6.27571 31.3691C6.32786 31.3885 6.38001 31.4078 6.43374 31.4277C6.20658 31.4351 6.20658 31.4351 5.95966 31.4277C5.90751 31.389 5.85536 31.3504 5.80164 31.3105C5.82771 31.2718 5.85378 31.2332 5.88065 31.1933Z" fill="#655238"/>
<path d="M36.1428 10.681C36.3774 10.71 36.3774 10.71 36.6168 10.7396C36.5484 10.7614 36.5484 10.7614 36.4786 10.7836C36.2771 10.8666 36.1414 10.9668 35.9847 11.0913C36.0539 10.8129 36.0539 10.8129 36.1428 10.681Z" fill="#A0917D"/>
<path d="M36.5376 10.3294C36.5898 10.3294 36.6419 10.3294 36.6957 10.3294C36.7217 10.3874 36.7478 10.4454 36.7747 10.5052C36.7225 10.5052 36.6704 10.5052 36.6166 10.5052C36.6949 10.6019 36.7731 10.6986 36.8537 10.7982C36.7233 10.7789 36.5929 10.7595 36.4586 10.7396C36.4847 10.6042 36.5108 10.4689 36.5376 10.3294Z" fill="#766755"/>
<path d="M4.45862 29.8454C4.7276 29.9119 4.79178 29.9607 4.9327 30.1384C4.90662 30.1964 4.88055 30.2544 4.85368 30.3142C4.63843 30.1763 4.55231 30.0432 4.45862 29.8454Z" fill="#614A33"/>
<path d="M0.902965 29.6696C0.92904 29.7276 0.955114 29.7856 0.981978 29.8454C0.903755 29.8744 0.903755 29.8744 0.823953 29.904C0.850027 29.8266 0.876101 29.7493 0.902965 29.6696ZM0.665927 29.8454C0.718075 29.8647 0.770224 29.8841 0.823953 29.904C0.823953 30.0007 0.823953 30.0974 0.823953 30.197C0.74573 30.197 0.667507 30.197 0.586914 30.197C0.612988 30.081 0.639063 29.9649 0.665927 29.8454Z" fill="#B3A392"/>
<path d="M12.1227 29.4937C12.3313 29.4937 12.5399 29.4937 12.7548 29.4937C12.5227 29.583 12.2873 29.6579 12.0437 29.7281C12.0698 29.6508 12.0958 29.5734 12.1227 29.4937Z" fill="#B1A28C"/>
<path d="M30.7698 3.94128C31.0364 4.01078 31.216 4.07466 31.4019 4.23432C31.3758 4.273 31.3497 4.31168 31.3229 4.35153C31.2446 4.31285 31.1664 4.27417 31.0858 4.23432C31.0858 4.19564 31.0858 4.15696 31.0858 4.1171C30.9815 4.09776 30.8772 4.07842 30.7698 4.0585C30.7698 4.01982 30.7698 3.98114 30.7698 3.94128Z" fill="#BAA99B"/>
<path d="M1.85113 32.5999C1.85113 32.6579 1.85113 32.7159 1.85113 32.7757C1.61646 32.7757 1.38179 32.7757 1.14001 32.7757C1.61409 32.5999 1.61409 32.5999 1.85113 32.5999Z" fill="#584C3A"/>
<path d="M2.87833 32.2482C3.03477 32.2482 3.19122 32.2482 3.35241 32.2482C3.27418 32.2676 3.19596 32.2869 3.11537 32.3068C3.08929 32.3649 3.06322 32.4229 3.03635 32.4827C2.95813 32.4827 2.87991 32.4827 2.79932 32.4827C2.82539 32.4053 2.85146 32.3279 2.87833 32.2482Z" fill="#5D4F3C"/>
<path d="M5.5647 30.9589C5.72114 31.0169 5.72114 31.0169 5.88075 31.0761C5.88075 31.1535 5.88075 31.2308 5.88075 31.3105C5.80253 31.3105 5.7243 31.3105 5.64371 31.3105C5.61764 31.1945 5.59156 31.0785 5.5647 30.9589Z" fill="#56442D"/>
<path d="M29.0314 16.5417C29.0575 16.619 29.0836 16.6964 29.1104 16.7761C29.0322 16.8051 29.0322 16.8051 28.9524 16.8347C28.9003 16.796 28.8481 16.7573 28.7944 16.7175C28.8726 16.6595 28.9508 16.6014 29.0314 16.5417ZM28.7154 16.7761C28.7414 16.8148 28.7675 16.8534 28.7944 16.8933C28.7422 16.874 28.6901 16.8546 28.6364 16.8347C28.6624 16.8153 28.6885 16.796 28.7154 16.7761Z" fill="#AF9B83"/>
<path d="M31.3229 14.7249C31.3751 14.7249 31.4272 14.7249 31.4809 14.7249C31.4381 14.9473 31.307 15.0456 31.0859 15.1937C31.0337 15.1744 30.9816 15.1551 30.9279 15.1351C30.9784 15.0892 31.0289 15.0433 31.0809 14.9959C31.2424 14.8541 31.2424 14.8541 31.3229 14.7249Z" fill="#B09F8A"/>
</svg>
