<svg width="78" height="60" viewBox="0 0 78 60" fill="none" xmlns="http://www.w3.org/2000/svg">
<path d="M50.4014 8.82562C50.4256 8.82562 50.4498 8.82562 50.4747 8.82562C50.4413 9.58796 50.3346 10.3185 50.1969 11.0657C50.1636 11.2472 50.1315 11.429 50.0995 11.6107C49.9699 12.3322 49.8054 13.0332 49.604 13.7354C49.5306 13.9969 49.4665 14.2582 49.4079 14.5239C49.3219 14.9045 49.2126 15.2708 49.0948 15.6412C48.9262 16.1878 48.7759 16.7404 48.6251 17.2929C48.5728 17.4834 48.5192 17.6734 48.4655 17.8633C47.8422 20.1088 47.755 22.7548 48.7831 24.881C48.9127 25.1388 49.0478 25.3929 49.1844 25.6464C49.4102 26.0656 49.6267 26.4902 49.8428 26.9152C49.8991 27.0249 49.8991 27.0249 49.9565 27.1368C50.1488 27.515 50.3231 27.8904 50.4747 28.2893C50.5293 28.4176 50.5842 28.5456 50.6395 28.6735C50.8065 29.0678 50.9651 29.4655 51.1203 29.8653C51.1433 29.9238 51.1663 29.9823 51.19 30.0426C51.2828 30.2837 51.3538 30.4685 51.3538 30.7321C51.4021 30.7321 51.4505 30.7321 51.5003 30.7321C51.507 30.6692 51.5137 30.6064 51.5206 30.5416C51.5878 30.1832 51.7063 29.8631 51.8346 29.5255C51.8608 29.456 51.887 29.3864 51.914 29.3148C52.4828 27.8235 53.1781 26.3981 53.9211 24.9994C54.2798 24.3231 54.5042 23.7172 54.6138 22.9506C54.6674 22.5831 54.7232 22.2173 54.7932 21.8529C54.8675 21.4564 54.9289 21.0589 54.9864 20.6592C55.0077 20.5127 55.0291 20.3661 55.0505 20.2196C55.0614 20.1443 55.0724 20.069 55.0836 19.9915C55.3577 18.1088 55.6428 16.2593 56.1156 14.4204C56.1881 14.4204 56.2606 14.4204 56.3354 14.4204C56.3537 15.0632 56.3264 15.6875 56.2667 16.3264C56.0954 18.2082 56.1049 20.0967 56.1156 21.9853C56.2445 21.8343 56.3733 21.6832 56.5022 21.5322C56.5384 21.4897 56.5747 21.4473 56.612 21.4035C57.3211 20.5721 57.9897 19.7039 58.651 18.8283C58.7746 18.665 58.8989 18.5026 59.0242 18.3408C59.4717 17.7569 59.8844 17.1526 60.2821 16.5284C60.3274 16.4576 60.3727 16.3868 60.4194 16.3139C60.6823 15.896 60.9157 15.4706 61.1363 15.0255C61.3063 14.6912 61.4965 14.3716 61.6878 14.0511C61.7619 13.926 61.836 13.8009 61.9101 13.6758C61.9456 13.6164 61.981 13.5569 62.0175 13.4957C62.1534 13.2652 62.2856 13.0324 62.417 12.7989C62.4408 12.7619 62.4646 12.725 62.489 12.6868C62.5132 12.6868 62.5374 12.6868 62.5623 12.6868C62.5818 13.0598 62.5246 13.3154 62.3906 13.6586C62.3356 13.8007 62.3356 13.8007 62.2795 13.9457C62.2395 14.0465 62.1995 14.1473 62.1594 14.2481C62.1186 14.3518 62.0779 14.4556 62.0372 14.5593C61.5487 15.8 61.0213 16.9756 60.3646 18.1241C60.3226 18.198 60.2807 18.272 60.2375 18.3482C59.6024 19.4439 58.9099 20.499 58.1668 21.5125C57.3911 22.586 56.6345 23.6649 55.9691 24.8221C55.9231 24.9005 55.8771 24.9789 55.8297 25.0597C55.5645 25.5266 55.3583 26.0014 55.1778 26.5117C55.0677 26.8212 54.9427 27.1111 54.7969 27.4028C54.4952 28.0351 54.3216 28.7125 54.1376 29.3925C54.1211 29.4529 54.1045 29.5134 54.0875 29.5756C53.524 31.6455 53.2207 33.6342 53.2448 35.795C53.2459 35.9701 53.2469 36.1451 53.2478 36.3202C53.2502 36.7427 53.2538 37.1652 53.2585 37.5878C53.3521 37.5002 53.4455 37.4126 53.539 37.3249C53.5911 37.2761 53.6431 37.2273 53.6968 37.1771C53.8811 37.0013 54.0568 36.8166 54.2338 36.6323C54.8056 36.0557 55.4634 35.6079 56.1156 35.1449C56.2191 35.0706 56.3226 34.9961 56.4261 34.9215C56.474 34.887 56.5218 34.8525 56.5712 34.817C56.6632 34.7507 56.7552 34.6844 56.8471 34.6179C57.0309 34.4857 57.2148 34.3567 57.4056 34.2366C58.8977 33.2819 59.4346 30.8782 59.8441 29.2028C59.9248 28.8602 60.004 28.5174 60.0787 28.1732C60.095 28.0988 60.1114 28.0243 60.1282 27.9476C60.1421 27.8822 60.156 27.8167 60.1704 27.7493C60.218 27.5801 60.218 27.5801 60.3646 27.3437C60.4129 27.3437 60.4613 27.3437 60.5111 27.3437C60.5624 29.1928 60.4123 31.1244 59.7785 32.8597C60.1455 32.5983 60.5117 32.3354 60.8774 32.0717C60.9342 32.0308 60.991 31.99 61.0495 31.9478C61.8231 31.3896 62.5722 30.8129 63.2949 30.1805C63.3663 30.119 63.4377 30.0574 63.5112 29.994C64.4425 29.1853 65.317 28.3275 66.0644 27.3191C66.2139 27.1222 66.3701 26.9378 66.532 26.7527C67.2972 25.8489 67.9274 24.8037 68.5695 23.7977C68.6998 23.5935 68.8312 23.39 68.9632 23.187C68.9938 23.139 69.0244 23.0909 69.0559 23.0415C69.277 22.7035 69.277 22.7035 69.5218 22.6157C69.4799 23.0136 69.3575 23.3423 69.1967 23.6992C69.1708 23.7573 69.145 23.8154 69.1183 23.8753C68.6656 24.8767 68.154 25.8347 67.5798 26.7612C67.5475 26.8135 67.5151 26.8659 67.4818 26.9198C67.4387 26.9886 67.4387 26.9886 67.3947 27.0588C67.3115 27.1983 67.3115 27.1983 67.2508 27.4225C67.2907 27.4028 67.3307 27.383 67.3718 27.3627C68.262 26.9259 69.1604 26.5344 70.085 26.1913C70.1316 26.1738 70.1781 26.1564 70.2261 26.1384C71.0082 25.8465 71.0082 25.8465 71.3533 25.8465C71.3533 25.8985 71.3533 25.9505 71.3533 26.0041C69.9882 26.8318 69.9882 26.8318 69.2746 27.1812C67.6242 27.9957 66.2608 28.8859 65.0439 30.3349C64.5384 30.927 64.0051 31.5032 63.4342 32.0225C63.2693 32.174 63.1109 32.3323 62.9515 32.4904C62.3461 33.0771 61.6863 33.5893 61.0293 34.1064C60.9792 34.1459 60.929 34.1854 60.8773 34.2261C60.7553 34.3223 60.6332 34.4184 60.5111 34.5145C61.0964 34.5164 61.6817 34.5178 62.267 34.5186C62.5389 34.519 62.8108 34.5196 63.0826 34.5205C63.3458 34.5214 63.6089 34.5218 63.8721 34.522C64.0196 34.5222 64.1672 34.5228 64.3148 34.5235C65.069 34.5235 65.8222 34.5007 66.5657 34.3529C66.6464 34.337 66.727 34.3211 66.8101 34.3047C66.8921 34.2878 66.974 34.2709 67.0585 34.2535C67.1877 34.2274 67.1877 34.2274 67.3194 34.2008C67.8675 34.0876 68.406 33.9573 68.9418 33.7893C69.1586 33.7256 69.3729 33.6835 69.5951 33.6477C69.5951 33.6997 69.5951 33.7518 69.5951 33.8053C69.4061 33.9159 69.2168 34.0258 69.0273 34.1353C68.9753 34.1658 68.9233 34.1964 68.8697 34.2278C68.1118 34.6643 67.3404 34.9679 66.5091 35.1991C66.4283 35.2223 66.3476 35.2455 66.2644 35.2695C64.9806 35.6339 63.6794 35.8509 62.3517 35.8935C60.283 35.9638 58.2188 36.2003 56.6284 37.7454C56.5728 37.7987 56.5171 37.852 56.4598 37.907C55.229 39.1557 54.3888 40.8225 53.9178 42.5522C53.8914 42.6472 53.865 42.7421 53.8377 42.84C53.4337 44.5963 53.7282 46.5709 53.8626 48.3529C53.8693 48.4426 53.8692 48.4426 53.876 48.534C53.9011 48.8551 53.9401 49.1693 53.9911 49.4866C54.0089 49.7559 54.023 50.025 54.0354 50.2946C54.049 50.5613 54.0765 50.8047 54.1376 51.0626C54.1508 51.2463 54.1611 51.4302 54.1697 51.6142C54.1943 52.0885 54.2295 52.5602 54.275 53.0326C54.3423 53.7349 54.4059 54.4376 54.4673 55.1405C54.4743 55.2214 54.4743 55.2214 54.4816 55.3039C54.5521 56.1109 54.6179 56.9183 54.6763 57.7264C54.6971 58.0075 54.7188 58.2824 54.7643 58.5603C54.7969 58.7851 54.7969 58.7851 54.7969 59.4155C52.6453 59.4155 50.4937 59.4155 48.277 59.4155C48.277 58.5288 48.277 58.5288 48.3027 58.2272C48.3083 58.1594 48.314 58.0916 48.3198 58.0217C48.3259 57.9514 48.3321 57.8811 48.3385 57.8087C48.3448 57.7339 48.3511 57.6592 48.3577 57.5822C48.371 57.4257 48.3845 57.2691 48.3981 57.1126C48.4189 56.8737 48.4392 56.6348 48.4594 56.3958C48.4725 56.2429 48.4856 56.09 48.4987 55.9372C48.5048 55.8662 48.5108 55.7953 48.517 55.7222C48.5403 55.4568 48.5644 55.195 48.6068 54.9322C48.6639 54.5489 48.6853 54.1629 48.7119 53.776C48.7247 53.5962 48.7375 53.4164 48.7503 53.2366C48.7701 52.9542 48.7899 52.6718 48.8096 52.3894C48.8287 52.1161 48.8482 51.8428 48.8676 51.5696C48.8734 51.4852 48.8792 51.4008 48.8852 51.3139C48.8908 51.235 48.8964 51.1561 48.9022 51.0748C48.907 51.0057 48.9119 50.9366 48.9168 50.8654C48.9367 50.6648 48.9728 50.4723 49.0095 50.2746C49.0208 50.1515 49.0299 50.0281 49.0369 49.9046C49.041 49.8336 49.0452 49.7626 49.0495 49.6894C49.0537 49.6137 49.0579 49.5379 49.0622 49.4598C49.0668 49.3811 49.0714 49.3023 49.0761 49.2211C49.0908 48.9698 49.1051 48.7185 49.1194 48.4671C49.1382 48.1364 49.1574 47.8057 49.1767 47.475C49.1809 47.3994 49.1851 47.3238 49.1894 47.2459C49.2105 46.8839 49.2464 46.5349 49.3026 46.177C49.3722 44.8416 49.4238 43.4884 48.9363 42.237C48.9098 42.157 48.8834 42.0771 48.8562 41.9947C48.1856 40.0653 46.8322 38.2274 45.1269 37.2726C43.8238 36.6464 42.2337 36.6189 40.831 36.5326C38.4906 36.3845 35.3926 36.0125 33.4788 34.3569C33.4788 34.3049 33.4788 34.2529 33.4788 34.1993C33.8993 34.2785 34.3058 34.3835 34.715 34.5145C35.1093 34.639 35.496 34.7292 35.9026 34.791C36.1161 34.8297 36.1161 34.8297 36.3836 34.903C37.7012 35.2591 39.0243 35.2539 40.3734 35.24C40.6377 35.2375 40.902 35.2365 41.1663 35.2353C41.6807 35.2328 42.195 35.2288 42.7093 35.2237C42.649 35.1807 42.5886 35.1377 42.5264 35.0933C42.4472 35.0367 42.368 34.9801 42.2864 34.9218C42.2079 34.8658 42.1294 34.8097 42.0486 34.752C41.6641 34.4726 41.3053 34.1613 40.9446 33.8478C40.7993 33.7219 40.6529 33.5974 40.5064 33.4729C39.8186 32.8819 39.1918 32.2475 38.5783 31.5688C38.4278 31.403 38.2837 31.258 38.1144 31.1135C37.8605 30.8929 37.6854 30.6142 37.4911 30.3341C37.0442 29.7723 36.364 29.4147 35.7727 29.0576C35.7002 29.0136 35.6277 28.9696 35.553 28.9242C34.9801 28.5811 34.3949 28.2749 33.8005 27.9778C33.1501 27.6494 32.5334 27.2683 31.9199 26.8669C31.7828 26.7802 31.7828 26.7802 31.5741 26.7133C31.5741 26.6613 31.5741 26.6093 31.5741 26.5557C31.9162 26.6074 32.2363 26.6992 32.5631 26.8167C32.6177 26.8363 32.6723 26.8558 32.7286 26.8759C33.4213 27.1308 34.0987 27.4303 34.7767 27.7267C34.8464 27.7571 34.8464 27.7571 34.9175 27.7882C35.0448 27.8438 35.1721 27.8998 35.2993 27.9557C35.5207 28.049 35.7433 28.132 35.9696 28.2105C35.9278 28.151 35.8859 28.0915 35.8428 28.0301C35.26 27.1849 34.7712 26.2855 34.2846 25.3737C34.2503 25.3095 34.2159 25.2452 34.1804 25.179C34.088 25.0062 33.9962 24.833 33.9046 24.6596C33.8781 24.6095 33.8515 24.5593 33.8242 24.5077C33.6259 24.1277 33.4788 23.8435 33.4788 23.4037C33.7272 23.5152 33.8479 23.64 34.0042 23.8737C34.0465 23.9363 34.0889 23.9989 34.1325 24.0635C34.1987 24.1635 34.1987 24.1635 34.2663 24.2656C34.3352 24.3678 34.3352 24.3678 34.4055 24.472C34.5939 24.7517 34.7805 25.0328 34.9666 25.3143C35.2883 25.7985 35.6341 26.2516 35.9942 26.7028C36.165 26.9173 36.3292 27.1365 36.4916 27.3585C36.7419 27.6983 37.0068 28.0206 37.2788 28.3404C37.4112 28.4977 37.5376 28.6582 37.6637 28.8212C38.7107 30.108 40.0151 31.1513 41.3162 32.1185C41.5017 32.2577 41.6847 32.4005 41.8677 32.5436C42.377 32.9411 42.9009 33.3017 43.4419 33.6477C43.4233 33.6037 43.4047 33.5596 43.3855 33.5141C42.9957 32.5372 42.8435 31.4904 42.8461 30.4323C42.8461 30.3689 42.846 30.3054 42.8459 30.24C42.8459 30.1072 42.846 29.9744 42.8463 29.8415C42.8467 29.6377 42.8463 29.4338 42.8458 29.23C42.8459 29.1005 42.846 28.971 42.8461 28.8415C42.846 28.7805 42.8458 28.7196 42.8457 28.6567C42.8474 28.2286 42.8474 28.2286 42.9291 28.0529C42.9775 28.0529 43.0258 28.0529 43.0756 28.0529C43.1337 28.3517 43.1916 28.6505 43.2496 28.9493C43.2659 29.0329 43.2821 29.1165 43.2988 29.2026C43.3738 29.5889 43.4481 29.9753 43.5195 30.3624C43.8052 31.9014 44.3389 33.9134 45.5664 34.9085C45.8044 35.0786 46.0505 35.2299 46.299 35.3813C47.4875 36.1355 48.5714 36.9875 49.5956 37.9818C49.6485 35.8466 49.5013 33.7508 49.0095 31.6777C48.9818 31.5577 48.9818 31.5577 48.9536 31.4352C48.7809 30.6881 48.6092 29.9533 48.3502 29.2349C48.3135 29.1107 48.2782 28.986 48.2449 28.8606C48.1625 28.5607 48.0777 28.2619 47.9885 27.9643C47.9667 27.8909 47.9449 27.8176 47.9224 27.742C47.8157 27.4398 47.6814 27.1582 47.5444 26.8709C47.4808 26.7313 47.4808 26.7313 47.4159 26.5889C46.5936 24.7864 46.5936 24.7864 45.5245 23.1482C45.3581 22.9279 45.1979 22.7025 45.0367 22.4777C44.5574 21.8097 44.0703 21.15 43.563 20.5062C43.0971 19.9131 42.6609 19.3013 42.2324 18.6767C42.1278 18.5246 42.0223 18.3732 41.9167 18.222C41.2366 17.2437 40.6318 16.2189 40.0446 15.174C40.0088 15.1106 39.9731 15.0473 39.9363 14.982C39.2341 13.7203 39.2341 13.7203 39.1929 13.1596C39.2413 13.1596 39.2896 13.1596 39.3395 13.1596C39.4692 13.3209 39.5904 13.4827 39.7103 13.6521C39.7466 13.7025 39.7828 13.7528 39.8201 13.8047C40.0372 14.1074 40.2498 14.4135 40.4612 14.7209C41.4223 16.1073 42.4798 17.4848 43.6185 18.7077C43.8338 18.9397 44.0412 19.1783 44.2478 19.4193C44.285 19.4625 44.3222 19.5056 44.3605 19.55C44.5401 19.7593 44.715 19.9704 44.8825 20.191C45.0172 20.3629 45.1381 20.4984 45.3008 20.6358C45.677 20.9718 45.9768 21.3777 46.2852 21.7834C46.4264 21.9878 46.4264 21.9878 46.592 22.0641C46.5903 21.9868 46.5886 21.9095 46.5869 21.8298C46.5523 19.6117 47.1844 17.5985 48.0159 15.596C48.192 15.1686 48.3467 14.7344 48.4937 14.2945C48.5989 13.9828 48.7234 13.6914 48.863 13.396C49.0836 12.8112 49.2584 12.2054 49.4413 11.6059C49.5334 11.3052 49.6304 11.0099 49.7421 10.7168C49.7767 10.6121 49.8103 10.5071 49.8428 10.4016C49.8615 10.3414 49.8801 10.2812 49.8992 10.2191C49.9996 9.88041 50.0918 9.53906 50.1842 9.19777C50.2549 8.98322 50.2549 8.98322 50.4014 8.82562Z" fill="#7FC59F"/>
<path d="M54.6505 0C54.8675 0.466788 54.7817 1.21665 54.797 1.73361C54.7996 1.81896 54.8022 1.90431 54.8049 1.99225C54.8539 3.8549 54.7685 5.59316 53.5242 7.01816C53.0081 7.52251 52.4195 7.87106 51.7934 8.19031C51.7223 8.2266 51.7223 8.2266 51.6498 8.26361C51.4399 8.36692 51.2944 8.43164 51.0609 8.43164C51.2003 7.95314 51.3654 7.49821 51.5599 7.04278C51.7557 6.57658 51.9458 6.10895 52.1231 5.63423C52.1586 5.53915 52.1941 5.44407 52.2307 5.34611C52.3146 5.13706 52.3146 5.13706 52.3063 4.96442C51.8288 5.74025 51.3723 6.52239 50.9532 7.33669C50.9055 7.42783 50.9055 7.42783 50.8568 7.52082C50.829 7.57502 50.8011 7.62922 50.7724 7.68506C50.7467 7.7234 50.721 7.76174 50.6946 7.80124C50.6462 7.80124 50.5979 7.80124 50.5481 7.80124C50.0757 6.98831 50.2679 5.44181 50.4351 4.54264C50.6512 3.54695 51.208 2.82664 51.8667 2.12761C51.9322 2.0564 51.9976 1.9852 52.065 1.91183C53.9041 0 53.9041 0 54.6505 0Z" fill="#7DC39D"/>
<path d="M26.0065 18.8333C27.9705 18.7664 30.0498 18.9302 31.5741 20.4093C32.2316 21.1547 32.8157 22.0538 32.966 23.0886C32.4676 22.9377 32.0305 22.6558 31.5778 22.3923C31.1468 22.1446 30.7132 21.9332 30.2554 21.749C30.7982 22.2248 31.3426 22.6955 31.9129 23.1329C31.9544 23.1648 31.9959 23.1966 32.0387 23.2295C32.2195 23.3667 32.3999 23.4948 32.5923 23.6128C32.6431 23.6478 32.6939 23.6829 32.7462 23.719C32.7462 23.771 32.7462 23.823 32.7462 23.8766C31.7342 24.1094 30.4719 24.1092 29.5229 23.6402C29.4562 23.6104 29.3895 23.5806 29.3208 23.55C27.9274 22.8432 27.1605 21.2479 26.4626 19.8574C26.3612 19.6562 26.2539 19.4667 26.1318 19.2794C26.0065 19.0697 26.0065 19.0697 26.0065 18.8333Z" fill="#7EC49E"/>
<path d="M76.1609 18.0403C76.2205 18.0407 76.2801 18.041 76.3415 18.0414C76.4858 18.0423 76.6301 18.0437 76.7744 18.0453C75.9411 20.0512 75.0204 22.1191 73.0383 23.0097C72.1634 23.3545 71.1468 23.3677 70.2544 23.0885C70.5116 22.8006 70.7815 22.5502 71.0786 22.3103C71.1631 22.2413 71.2476 22.1722 71.3321 22.1032C71.3732 22.0697 71.4142 22.0363 71.4565 22.0019C71.6157 21.8716 71.773 21.7389 71.9302 21.6061C72.1967 21.3825 72.4687 21.1697 72.7452 20.9609C72.4335 21.0643 72.1551 21.1931 71.8673 21.358C71.7867 21.4037 71.7062 21.4494 71.6232 21.4965C71.5402 21.544 71.4572 21.5915 71.3716 21.6405C71.2058 21.7354 71.0398 21.83 70.8737 21.9243C70.8005 21.9662 70.7274 22.0082 70.652 22.0513C70.4742 22.1429 70.4742 22.1429 70.3277 22.1429C70.3277 22.1949 70.3277 22.2469 70.3277 22.3005C70.231 22.3005 70.1343 22.3005 70.0347 22.3005C70.1171 21.8035 70.2474 21.3807 70.4696 20.9362C70.5129 20.8497 70.5129 20.8497 70.557 20.7614C71.1106 19.6981 71.9264 18.9012 73.0125 18.5107C74.0467 18.2099 75.0888 18.0279 76.1609 18.0403Z" fill="#7DC39D"/>
<path d="M62.7088 3.78238C62.7571 3.78238 62.8055 3.78238 62.8553 3.78238C63.0566 4.34062 63.2558 4.89935 63.4436 5.46304C63.4911 5.60394 63.54 5.74431 63.5901 5.88413C64.1154 7.36507 64.2559 8.78956 63.6492 10.2597C63.3756 10.8923 63.0358 11.3474 62.5622 11.82C62.4917 11.8968 62.4215 11.9739 62.3516 12.0515C62.196 12.214 62.196 12.214 62.0494 12.2928C62.0494 11.2006 62.0494 10.1085 62.0494 8.9832C61.9769 9.42527 61.9044 9.86734 61.8297 10.3228C61.7152 10.8104 61.7152 10.8104 61.6608 11.0317C61.5658 11.4731 61.5159 11.9225 61.4634 12.3716C61.0878 12.237 60.9756 11.8707 60.804 11.5048C60.4649 10.7551 60.3252 10.0596 60.3233 9.22453C60.3231 9.14995 60.3229 9.07537 60.3228 8.99854C60.3608 7.26785 61.3555 5.75945 62.2692 4.41278C62.3089 4.35299 62.3485 4.2932 62.3894 4.2316C62.4283 4.17386 62.4672 4.11613 62.5073 4.05664C62.56 3.97774 62.56 3.97774 62.6138 3.89725C62.6451 3.85934 62.6765 3.82144 62.7088 3.78238Z" fill="#7EC49E"/>
<path d="M37.2359 12.2079C37.6998 12.5898 38.0499 12.9598 38.3872 13.4748C38.4276 13.5283 38.468 13.5817 38.5097 13.6368C38.607 13.79 38.607 13.79 38.607 14.0264C38.1451 13.9825 37.7234 13.8961 37.2792 13.7556C37.1957 13.7299 37.1957 13.7299 37.1106 13.7037C36.8578 13.6258 36.606 13.546 36.3548 13.4622C36.1377 13.402 35.9715 13.3906 35.7499 13.396C35.9908 13.5212 36.2321 13.6458 36.4733 13.7703C36.5742 13.8228 36.5742 13.8228 36.6771 13.8762C37.0662 14.0767 37.4566 14.262 37.8598 14.4275C38.0986 14.5338 38.3131 14.67 38.5337 14.8144C38.2648 15.2483 37.6537 15.3065 37.1951 15.409C36.015 15.621 34.8512 15.4504 33.8452 14.7356C33.5669 14.5106 33.302 14.2721 33.0393 14.0264C32.9839 13.9756 32.9285 13.9247 32.8714 13.8722C32.4288 13.4623 32.0241 13.0163 31.6245 12.5588C31.5843 12.5137 31.544 12.4686 31.5025 12.4221C31.2079 12.0836 31.2079 12.0836 31.2079 11.82C33.1177 11.0909 35.5431 10.8489 37.2359 12.2079Z" fill="#7DC49E"/>
<path d="M67.4164 9.76078C67.4739 9.7607 67.5313 9.76063 67.5905 9.76055C67.7118 9.7605 67.8331 9.76064 67.9544 9.76097C68.1372 9.76139 68.3199 9.76098 68.5027 9.76047C69.1391 9.76021 69.7676 9.77558 70.4011 9.85004C70.3088 10.124 70.2043 10.3368 70.0365 10.5651C69.9937 10.6238 69.9509 10.6826 69.9068 10.7431C69.8614 10.8043 69.816 10.8655 69.7692 10.9286C69.7229 10.9918 69.6766 11.0551 69.6289 11.1202C69.496 11.3013 69.3625 11.4819 69.229 11.6625C69.1681 11.7453 69.1072 11.8282 69.0464 11.9112C68.9131 12.092 68.7783 12.2715 68.6429 12.4505C68.5874 12.5262 68.5874 12.5262 68.5307 12.6034C67.9301 13.399 66.9314 14.0182 66.0056 14.2629C65.7367 14.2869 65.4695 14.289 65.1998 14.2875C65.1253 14.2874 65.0507 14.2873 64.974 14.2872C64.3901 14.2792 63.8576 14.2026 63.2951 14.0265C63.5702 13.6812 63.9234 13.4835 64.284 13.2582C64.7928 12.9363 65.2878 12.6061 65.7701 12.2399C65.9324 12.1353 65.9324 12.1353 66.1521 12.1353C66.1521 12.0832 66.1521 12.0312 66.1521 11.9777C65.9337 12.0626 65.7155 12.1481 65.4974 12.2338C65.4365 12.2574 65.3757 12.2811 65.313 12.3055C64.8311 12.495 64.3656 12.713 63.9 12.9442C63.8227 12.9826 63.8227 12.9826 63.7438 13.0218C63.6911 13.0482 63.6384 13.0746 63.5841 13.1018C63.4416 13.1597 63.4416 13.1597 63.2218 13.1597C63.5065 12.0606 64.1666 11.1257 65.0435 10.4844C65.2389 10.3663 65.4342 10.2625 65.6393 10.1652C65.7046 10.1339 65.7698 10.1025 65.8371 10.0701C66.3657 9.82957 66.8423 9.75909 67.4164 9.76078Z" fill="#7EC49F"/>
<path d="M37.2883 4.80685C37.5054 4.91332 37.6699 5.03436 37.8469 5.20578C37.8978 5.25484 37.9487 5.30391 38.0012 5.35446C38.0835 5.43445 38.0835 5.43445 38.1674 5.51606C38.2261 5.57182 38.2847 5.62759 38.3451 5.68505C38.5317 5.86328 38.7163 6.04363 38.9 6.22526C38.9561 6.28032 39.0122 6.33537 39.07 6.3921C40.0824 7.42801 40.7791 8.73986 40.8343 10.2609C40.8468 11.12 40.6731 11.8931 40.3652 12.6869C40.3168 12.6869 40.2685 12.6869 40.2187 12.6869C40.1984 12.6313 40.1781 12.5758 40.1572 12.5186C40.0636 12.2626 39.9694 12.0069 39.8753 11.7511C39.8434 11.6638 39.8115 11.5764 39.7787 11.4864C39.6015 11.0065 39.4134 10.5431 39.1862 10.088C39.1198 9.92888 39.1198 9.92888 39.1198 9.69248C39.0714 9.69248 39.0231 9.69248 38.9733 9.69248C38.9854 9.74201 38.9976 9.79155 39.0101 9.84259C39.1459 10.3963 39.2801 10.9504 39.4128 11.5049C39.4272 11.5647 39.4416 11.6245 39.4564 11.6862C39.49 11.8275 39.5224 11.969 39.5548 12.1107C39.572 12.1857 39.5893 12.2608 39.6071 12.3381C39.6333 12.5346 39.6182 12.6581 39.5593 12.8445C38.3189 12.0464 37.5034 11.0504 37.0039 9.58105C36.8417 8.88573 36.9048 8.11822 36.922 7.40727C36.9242 7.31006 36.9264 7.21284 36.9286 7.11269C36.9638 6.32673 37.1254 5.57146 37.2883 4.80685Z" fill="#7DC49E"/>
<path d="M67.9835 35.2238C70.3312 35.1476 70.3312 35.1476 71.4266 36.0906C71.4823 36.1358 71.538 36.181 71.5954 36.2276C72.5404 37.0489 73.2735 38.5832 73.6976 39.7942C73.6976 39.8982 73.6976 40.0022 73.6976 40.1094C72.0727 40.1711 70.0836 39.9526 68.8073 38.7775C68.0677 38.0345 67.5097 37.1522 67.4569 36.0364C67.4614 35.9763 67.466 35.9161 67.4706 35.8542C67.8414 35.897 68.1113 36.0883 68.423 36.2925C68.4774 36.3275 68.5318 36.3626 68.5878 36.3987C68.7531 36.5054 68.9178 36.613 69.0823 36.721C69.1321 36.7536 69.1819 36.7862 69.2332 36.8198C69.5011 36.9957 69.7682 37.1729 70.0347 37.3514C69.4538 36.5418 68.677 35.9697 67.9102 35.3814C67.9344 35.3294 67.9585 35.2774 67.9835 35.2238Z" fill="#7FC49F"/>
<path d="M35.1638 35.8542C34.8227 36.2501 34.4295 36.5339 34.0155 36.8353C33.7567 37.0272 33.5212 37.2165 33.3023 37.4601C33.2397 37.5282 33.177 37.5964 33.1125 37.6666C33.0642 37.6666 33.0158 37.6666 32.966 37.6666C32.966 37.7186 32.966 37.7706 32.966 37.8242C33.013 37.7928 33.0599 37.7614 33.1082 37.7291C33.1716 37.6873 33.235 37.6456 33.3003 37.6026C33.3933 37.5409 33.3933 37.5409 33.4883 37.4779C33.7232 37.3366 33.9637 37.2281 34.2114 37.115C34.465 36.9823 34.7155 36.843 34.9662 36.7041C35.0406 36.6634 35.0406 36.6634 35.1166 36.6219C35.1609 36.5974 35.2052 36.5729 35.2508 36.5477C35.391 36.4811 35.5272 36.4413 35.6766 36.4058C35.533 37.5061 34.8663 38.6786 34.058 39.3688C34.0119 39.4052 33.9659 39.4415 33.9184 39.479C33.8693 39.5186 33.8202 39.5582 33.7696 39.5991C32.5809 40.4617 30.6398 40.6866 29.2299 40.661C29.5483 38.9984 30.7167 37.1686 32.0094 36.2239C32.9754 35.6492 34.1077 35.4864 35.1638 35.8542Z" fill="#7EC49D"/>
<path d="M31.5231 32.3213C32.0487 32.6809 32.7274 33.1689 32.966 33.8054C32.4865 33.8194 32.054 33.7541 31.5851 33.653C31.0924 33.5553 30.6088 33.5577 30.1089 33.569C30.1639 33.5844 30.2189 33.5999 30.2756 33.6159C30.5269 33.6868 30.7781 33.7584 31.0292 33.83C31.1158 33.8543 31.2023 33.8787 31.2915 33.9037C31.7204 34.0265 32.1236 34.157 32.5264 34.357C32.73 34.4115 32.73 34.4115 32.8927 34.4358C32.8927 34.4878 32.8927 34.5398 32.8927 34.5934C32.8115 34.6314 32.7303 34.6694 32.6466 34.7085C32.5394 34.7588 32.4322 34.809 32.325 34.8593C32.2715 34.8843 32.2181 34.9093 32.163 34.935C32.1111 34.9594 32.0591 34.9838 32.0056 35.0089C31.958 35.0312 31.9105 35.0535 31.8615 35.0765C31.7618 35.1249 31.6633 35.1761 31.5657 35.2292C30.8952 35.5856 29.8648 35.5983 29.1614 35.3614C29.1115 35.342 29.0615 35.3226 29.01 35.3026C28.9045 35.2649 28.9045 35.2649 28.7969 35.2265C27.7163 34.8151 26.8263 34.0862 25.9332 33.3326C25.8896 33.296 25.8459 33.2595 25.801 33.2219C25.6956 33.1312 25.5942 33.0353 25.4937 32.9386C25.4937 32.8866 25.4937 32.8346 25.4937 32.781C26.2932 32.3634 27.1518 32.1392 28.007 31.8936C28.1638 31.8473 28.3191 31.7955 28.4738 31.7418C29.5639 31.4548 30.5844 31.7108 31.5231 32.3213Z" fill="#7FC49F"/>
<path d="M77.4337 32.2293C77.4337 32.4657 77.4337 32.4657 77.2692 32.648C77.192 32.7195 77.114 32.7901 77.0354 32.8597C76.9932 32.8975 76.951 32.9353 76.9075 32.9742C76.1069 33.6735 75.2382 34.2512 74.2836 34.6722C74.2236 34.7005 74.1635 34.7288 74.1016 34.758C73.068 35.1603 71.8565 34.9365 70.8851 34.4755C70.284 34.1682 70.284 34.1682 70.1079 33.8842C70.1685 33.8669 70.2292 33.8496 70.2916 33.8318C71.135 33.5908 71.9768 33.3438 72.8185 33.0961C71.9045 33.0732 71.0157 33.1407 70.1079 33.2537C70.1079 33.0961 70.1079 33.0961 70.2155 32.9795C70.2646 32.9351 70.3137 32.8907 70.3643 32.845C70.6019 32.6293 70.6019 32.6293 70.8325 32.4051C72.8032 30.4322 75.2006 31.3085 77.4337 32.2293Z" fill="#7FC59F"/>
<path d="M42.7093 2.36404C42.7577 2.36404 42.806 2.36404 42.8558 2.36404C42.9881 2.54839 43.1107 2.73257 43.2313 2.9255C43.2672 2.9825 43.3031 3.03951 43.3401 3.09824C44.2265 4.52204 44.9022 5.98413 44.5812 7.74502C44.3801 8.54545 43.9765 9.1961 43.5152 9.85008C43.4668 9.92809 43.4185 10.0061 43.3687 10.0865C43.0941 10.0775 42.951 9.97886 42.7597 9.78113C41.8693 8.75866 41.2471 7.49985 41.2834 6.07197C41.3916 4.78914 41.9114 3.33874 42.7093 2.36404Z" fill="#7FC49E"/>
<path d="M46.1525 2.6004C46.4472 2.66777 46.6566 2.81819 46.8988 3.00425C46.9621 3.05224 46.9621 3.05224 47.0267 3.1012C48.2152 4.00831 49.4398 4.98869 49.7881 6.59714C49.8424 6.95439 49.8394 7.31202 49.8383 7.67318C49.8395 7.75017 49.8407 7.82717 49.8419 7.9065C49.8422 8.4343 49.7629 8.88132 49.5956 9.37723C49.5473 9.37723 49.4989 9.37723 49.4491 9.37723C49.4136 9.29902 49.3781 9.2208 49.3415 9.14022C49.01 8.41547 48.6573 7.70963 48.277 7.01322C48.333 7.38678 48.45 7.73105 48.5654 8.08688C48.7342 8.61692 48.8701 9.13476 48.9363 9.69244C48.0533 9.5523 47.3622 8.81421 46.8256 8.09642C46.3151 7.32914 46.0534 6.36627 46.0624 5.42767C46.0624 5.36903 46.0624 5.31039 46.0625 5.24997C46.0627 5.12687 46.0633 5.00377 46.0642 4.88067C46.0655 4.69429 46.0657 4.50793 46.0656 4.32154C46.0669 3.74339 46.076 3.1738 46.1525 2.6004Z" fill="#7CC29C"/>
<path d="M68.423 16.3117C68.4714 16.3117 68.5197 16.3117 68.5695 16.3117C68.6774 16.6466 68.7813 16.9826 68.8825 17.3198C68.9333 17.4853 68.9873 17.6491 69.0417 17.8132C69.2704 18.5433 69.338 19.2353 69.3433 20.0054C69.3444 20.0934 69.3455 20.1814 69.3466 20.2721C69.3332 21.4458 68.933 22.3893 68.2121 23.2458C68.0567 23.4037 68.0567 23.4037 67.837 23.4825C67.837 23.5345 67.837 23.5865 67.837 23.6401C67.7088 23.7589 67.7088 23.7589 67.5439 23.8864C67.4895 23.9288 67.4351 23.9713 67.3791 24.015C67.3368 24.0473 67.2945 24.0796 67.2509 24.1129C66.7753 23.905 66.6101 23.3846 66.4087 22.9078C65.9937 21.7483 66.0026 20.458 66.445 19.3061C66.5709 19.0257 66.7209 18.7746 66.8846 18.5181C66.9478 18.4159 67.0109 18.3137 67.074 18.2115C67.3915 17.702 67.7076 17.2005 68.0979 16.7512C68.2104 16.6235 68.2104 16.6235 68.3177 16.4533C68.3525 16.4065 68.3872 16.3598 68.423 16.3117Z" fill="#7DC49D"/>
<path d="M57.0681 1.97C57.6932 2.08256 58.1428 2.90312 58.4992 3.42288C59.2457 4.55527 59.6425 5.7745 59.4856 7.17083C59.3579 7.86669 59.0943 8.58502 58.6797 9.14083C58.6314 9.14083 58.583 9.14083 58.5332 9.14083C58.5182 9.05825 58.5032 8.97567 58.4877 8.89058C58.4678 8.78192 58.4479 8.67326 58.4279 8.56461C58.4181 8.51021 58.4082 8.45582 58.398 8.39977C58.3554 8.16821 58.3097 7.94665 58.2402 7.72243C58.216 8.26851 58.1918 8.8146 58.1669 9.37724C57.2321 8.87446 56.6589 7.89802 56.3355 6.85562C55.882 5.22559 56.3817 3.4466 57.0681 1.97Z" fill="#7EC49D"/>
<path d="M34.2848 17.1784C35.332 18.0844 36.6607 19.6306 36.8489 21.1185C36.9165 22.009 36.9473 22.8817 36.6291 23.7189C36.6034 23.7893 36.5777 23.8597 36.5512 23.9322C36.3019 24.5345 36.3019 24.5345 36.1163 24.7433C36.0679 24.7433 36.0196 24.7433 35.9698 24.7433C35.9536 24.6243 35.9536 24.6243 35.9371 24.5029C35.8069 23.6058 35.5813 22.7654 35.3104 21.9065C35.3208 22.1068 35.3316 22.307 35.3425 22.5073C35.3454 22.5635 35.3482 22.6197 35.3512 22.6775C35.3651 22.9276 35.3839 23.1686 35.4226 23.416C35.4584 23.6493 35.4642 23.8668 35.4615 24.103C35.4609 24.1792 35.4602 24.2554 35.4595 24.3339C35.4587 24.391 35.4578 24.4481 35.4569 24.5069C35.025 24.4472 34.7323 24.0389 34.4596 23.7027C33.8468 22.8487 33.5981 21.8772 33.6026 20.818C33.6029 20.7232 33.6031 20.6283 33.6034 20.5306C33.6166 19.359 33.7621 18.2226 34.2848 17.1784Z" fill="#7DC39D"/>
<path d="M64.4672 21.1973C64.5089 23.1795 64.5089 23.1795 64.371 24.044C64.3581 24.1255 64.3581 24.1255 64.3449 24.2086C64.1285 25.417 63.5131 26.3188 62.5762 27.0089C62.1993 27.2505 61.6876 27.5014 61.2438 27.5014C61.3779 27.1028 61.567 26.7367 61.752 26.3637C61.9529 25.9569 62.1534 25.5505 62.3427 25.1373C62.3064 25.0983 62.3064 25.0983 62.2694 25.0585C61.799 25.6423 61.3477 26.2254 60.9508 26.871C60.9024 26.8449 60.8541 26.8189 60.8042 26.7922C60.5355 25.7656 60.7504 24.6257 61.2238 23.7109C61.8558 22.7177 62.7174 22.1118 63.6681 21.5218C63.7848 21.4483 63.8988 21.37 64.0121 21.2906C64.1741 21.1973 64.1741 21.1973 64.4672 21.1973Z" fill="#7EC39E"/>
<path d="M53.6249 18.8333C53.5691 19.147 53.5124 19.4605 53.4555 19.7739C53.4398 19.862 53.4242 19.95 53.4081 20.0407C53.1602 21.3979 52.7498 22.7415 51.7202 23.6401C51.3941 23.8574 51.0457 24.027 50.6945 24.1917C50.6327 24.2216 50.5708 24.2516 50.5071 24.2825C50.3025 24.3589 50.1182 24.3818 49.9024 24.3985C49.7952 24.4074 49.7952 24.4074 49.6858 24.4164C49.6319 24.4202 49.578 24.4241 49.5224 24.4281C49.6246 24.1053 49.7656 23.8883 49.9711 23.6302C50.3619 23.129 50.7235 22.6084 51.0608 22.0641C50.6187 22.4432 50.1873 22.8312 49.7697 23.2412C49.7315 23.2784 49.6934 23.3156 49.6541 23.3539C49.4509 23.5524 49.4509 23.5524 49.3026 23.7977C49.2543 23.7977 49.2059 23.7977 49.1561 23.7977C49.0754 22.7942 49.3329 21.769 49.8887 20.9609C49.9383 20.8862 49.9383 20.8862 49.9889 20.81C50.7113 19.8134 52.4409 18.8081 53.6249 18.8333Z" fill="#7DC39D"/>
<path d="M43.4419 10.8745C43.7884 10.9866 44.1002 11.1426 44.4172 11.3276C44.4657 11.3558 44.5143 11.3841 44.5644 11.4132C45.506 11.9672 46.5008 12.6277 46.9583 13.7113C46.9883 13.7796 47.0184 13.848 47.0493 13.9184C47.3171 14.6325 47.4086 15.6468 47.1781 16.3905C46.8961 16.274 46.8012 16.1208 46.6515 15.8438C46.2112 15.0236 46.2112 15.0236 45.5664 14.4205C45.5893 14.4673 45.6122 14.5141 45.6357 14.5624C45.7409 14.7777 45.846 14.9931 45.951 15.2085C46.005 15.3189 46.005 15.3189 46.06 15.4316C46.1645 15.6459 46.2684 15.8606 46.3723 16.0753C46.4025 16.1368 46.4328 16.1984 46.464 16.2618C46.6653 16.6789 46.6653 16.6789 46.6653 16.9421C45.8159 16.8313 45.0278 16.2807 44.4675 15.6025C44.295 15.351 44.1565 15.0944 44.028 14.8145C44.0003 14.7558 43.9727 14.697 43.9441 14.6366C43.4639 13.4951 43.4258 12.1042 43.4419 10.8745Z" fill="#7EC49E"/>
<path d="M77.8733 24.5857C77.8143 25.0639 77.3912 25.3208 77.0674 25.6101C76.9996 25.671 76.9318 25.7318 76.862 25.7945C75.8469 26.66 74.8565 27.0512 73.551 26.9497C72.9916 26.8198 72.4976 26.562 72.0126 26.2405C72.0859 26.0041 72.0859 26.0041 72.205 25.9339C72.2554 25.9153 72.3058 25.8967 72.3577 25.8776C72.4402 25.8467 72.4402 25.8467 72.5243 25.8153C72.611 25.7844 72.611 25.7844 72.6994 25.7529C72.7566 25.7314 72.8139 25.71 72.8728 25.6878C73.2988 25.5313 73.2988 25.5313 73.551 25.5313C73.551 25.4793 73.551 25.4273 73.551 25.3737C72.995 25.4517 72.439 25.5297 71.8661 25.6101C71.8661 25.4525 71.8661 25.4525 71.9806 25.3245C72.0395 25.2627 72.0984 25.2009 72.1591 25.1373C72.2355 25.0372 72.3118 24.9371 72.3881 24.8369C73.8896 22.9954 76.1099 23.5025 77.8733 24.5857Z" fill="#7FC49E"/>
<path d="M51.427 11.2684C51.8722 11.3554 52.2095 11.5791 52.5991 11.82C52.6916 11.8752 52.6916 11.8752 52.786 11.9315C53.8266 12.5706 54.6555 13.3571 54.9984 14.6125C55.0881 15.0251 55.1107 15.422 55.1128 15.8438C55.1132 15.902 55.1136 15.9602 55.114 16.0201C55.1103 16.3161 55.0995 16.4538 54.9434 16.7057C54.9043 16.6475 54.8652 16.5892 54.8249 16.5293C54.4295 15.9501 54.0099 15.4162 53.5515 14.8932C53.6229 15.1237 53.7119 15.3092 53.8216 15.5209C53.8607 15.5969 53.8998 15.6729 53.9401 15.7513C54.0228 15.9112 54.1056 16.0711 54.1885 16.2309C54.2276 16.307 54.2667 16.3831 54.307 16.4616C54.3609 16.5658 54.3609 16.5658 54.416 16.6721C54.4946 16.8431 54.5429 16.9922 54.5771 17.1785C53.8258 17.1623 53.0413 16.7035 52.5067 16.1482C51.5819 15.0461 51.3983 13.6785 51.4179 12.2387C51.4185 12.1449 51.4192 12.051 51.4199 11.9544C51.4216 11.7257 51.424 11.4971 51.427 11.2684Z" fill="#7DC49E"/>
<path d="M29.8175 24.9052C30.2226 25.2424 30.5752 25.609 30.8416 26.0829C30.8416 26.1089 30.8416 26.1349 30.8416 26.1617C30.4218 26.1739 30.0436 26.1343 29.6329 26.0435C29.5796 26.0323 29.5264 26.021 29.4715 26.0094C29.342 25.9819 29.2127 25.9537 29.0834 25.9253C29.0834 25.9773 29.0834 26.0293 29.0834 26.0829C29.1801 26.1089 29.2768 26.1349 29.3765 26.1617C29.3765 26.2137 29.3765 26.2657 29.3765 26.3193C29.443 26.3096 29.5094 26.2998 29.5779 26.2898C30.0153 26.284 30.3966 26.5715 30.7684 26.7921C30.5716 27.0493 30.3306 27.1466 30.0495 27.2748C29.9614 27.3156 29.8733 27.3565 29.7825 27.3985C29.0093 27.7048 28.0902 27.6904 27.323 27.3742C26.6677 27.045 26.1128 26.6257 25.5891 26.0919C25.384 25.8892 25.1655 25.7169 24.9369 25.5464C24.8862 25.4999 24.8862 25.4999 24.8345 25.4525C24.8345 25.4005 24.8345 25.3485 24.8345 25.2949C26.3988 24.4556 28.22 23.736 29.8175 24.9052Z" fill="#7EC49E"/>
<path d="M39.5593 36.7998C39.4612 37.0328 39.3511 37.2002 39.1884 37.3859C38.8301 37.8144 38.539 38.2925 38.2407 38.7698C38.7257 38.3539 39.1924 37.9269 39.6409 37.4661C39.9101 37.1938 39.9101 37.1938 40.0721 37.1938C40.1242 38.3479 39.939 39.1977 39.2248 40.0962C38.4695 40.9014 36.9482 41.5608 35.893 41.619C35.8457 41.6149 35.7985 41.6108 35.7499 41.6066C35.8222 40.1813 36.3412 38.6268 37.3158 37.6469C37.9527 37.0625 38.7191 36.7496 39.5593 36.7998Z" fill="#7FC49E"/>
<path d="M63.5149 36.2482C64.3649 36.1631 65.2126 36.5983 65.8588 37.1642C66.7112 38.016 67.0787 39.4577 67.251 40.661C67.251 40.765 67.251 40.869 67.251 40.9762C66.7944 41.0089 66.4308 40.8946 66.0011 40.7349C65.8996 40.6977 65.8996 40.6977 65.7962 40.6598C64.8998 40.3226 63.9705 39.9502 63.4599 39.0357C63.418 38.9616 63.3761 38.8874 63.3329 38.811C63.2779 38.7126 63.2779 38.7126 63.2218 38.6122C63.1735 38.5342 63.1251 38.4562 63.0753 38.3758C62.9125 37.8062 62.9118 37.2327 62.9288 36.6422C63.2035 36.7432 63.3651 36.8511 63.5607 37.0805C63.9083 37.4709 64.2939 37.8036 64.687 38.1394C64.5668 37.8504 64.4018 37.6131 64.2246 37.3612C64.1952 37.3193 64.1658 37.2774 64.1356 37.2343C63.9812 37.0153 63.8235 36.8011 63.6568 36.5929C63.5149 36.4058 63.5149 36.4058 63.5149 36.2482Z" fill="#7FC49F"/>
<path d="M33.259 28.1317C33.2155 28.2761 33.2155 28.2761 33.1125 28.4469C32.895 28.5611 32.895 28.5611 32.6363 28.6587C32.551 28.6915 32.4656 28.7243 32.3776 28.7581C32.3059 28.7855 32.2341 28.8128 32.1602 28.8409C32.1118 28.8669 32.0635 28.8929 32.0136 28.9197C32.0739 28.9093 32.1341 28.8988 32.1962 28.888C32.6962 28.803 33.1942 28.7299 33.6986 28.6833C33.3999 29.5598 32.8073 30.2558 32.032 30.6672C31.5675 30.8502 31.14 30.918 30.6492 30.9144C30.5906 30.9143 30.5321 30.9142 30.4717 30.9141C29.7333 30.9019 29.0054 30.7789 28.2775 30.6533C28.2412 30.5363 28.2412 30.5363 28.2042 30.4169C28.2989 30.2499 28.3935 30.1059 28.5064 29.954C28.5555 29.8869 28.5555 29.8869 28.6055 29.8186C29.9082 28.0786 31.2108 27.2785 33.259 28.1317Z" fill="#7DC39D"/>
<path d="M72.7814 27.5496C72.9467 27.6846 73.1024 27.8268 73.2582 27.9741C73.2998 28.0077 73.3415 28.0413 73.3844 28.076C73.9493 28.5429 74.4615 29.2701 74.7966 29.9441C74.7966 29.9961 74.7966 30.0481 74.7966 30.1017C73.9884 30.2105 73.1847 30.2784 72.3699 30.2889C72.2568 30.2919 72.2568 30.2919 72.1414 30.295C71.3162 30.2973 70.7115 29.9862 70.1081 29.3925C69.3755 28.6014 69.3755 28.6014 69.3755 28.0529C69.9844 28.0866 70.5469 28.1902 71.1337 28.3681C71.077 28.3376 71.0204 28.3071 70.962 28.2757C70.5308 28.0439 70.0997 27.812 69.6685 27.5801C70.3852 26.7333 71.9795 26.9912 72.7814 27.5496Z" fill="#7EC39E"/>
<path d="M65.4177 17.2074C65.6368 17.2812 65.8576 17.348 66.0787 17.4149C65.8811 17.9394 65.4145 18.3531 65.0531 18.7545C64.9975 18.8165 64.9418 18.8785 64.8845 18.9423C64.1524 19.6987 63.2883 20.0464 62.2836 20.0443C61.789 20.015 61.3335 19.8162 60.8774 19.6213C60.8774 19.5433 60.8774 19.4653 60.8774 19.3849C61.3658 19.1223 61.8541 18.8596 62.3425 18.5969C61.9722 18.6299 61.6608 18.6761 61.3169 18.8333C61.0983 18.892 60.8783 18.9423 60.6576 18.9909C60.9705 18.0817 61.5188 17.5952 62.2739 17.1145C63.337 16.6522 64.3627 16.8482 65.4177 17.2074Z" fill="#7EC39E"/>
<path d="M41.6839 19.0696C42.3246 19.7114 42.3246 19.7114 42.4165 20.1729C42.3736 20.1633 42.3308 20.1538 42.2866 20.1439C42.0919 20.1007 41.897 20.058 41.7022 20.0152C41.6348 20.0002 41.5673 19.9852 41.4979 19.9697C41.4327 19.9555 41.3676 19.9413 41.3004 19.9266C41.2406 19.9134 41.1807 19.9002 41.1191 19.8866C40.9314 19.8493 40.9314 19.8493 40.6583 19.8576C41.4876 20.285 41.4876 20.285 42.3432 20.6457C42.1568 20.8829 41.9537 20.9739 41.6885 21.0889C41.5741 21.1392 41.5741 21.1392 41.4575 21.1905C40.8443 21.4366 40.0874 21.4825 39.4678 21.2317C38.5295 20.7547 37.4416 19.9601 36.9954 18.912C37.3456 18.7444 37.7098 18.6514 38.0805 18.5525C38.1755 18.5264 38.1755 18.5264 38.2724 18.4997C39.5548 18.1551 40.5804 18.2136 41.6839 19.0696Z" fill="#7EC39D"/>
<path d="M40.6581 22.0641C41.0297 22.1906 41.3059 22.4326 41.6105 22.6847C41.6872 22.7473 41.6872 22.7473 41.7656 22.8112C41.9098 22.9291 42.0532 23.0481 42.1965 23.1673C42.263 23.222 42.3295 23.2766 42.398 23.3329C43.0089 23.8874 43.4564 24.6446 43.5449 25.5058C43.5596 26.149 43.4737 26.7308 43.2954 27.3437C43.247 27.3437 43.1987 27.3437 43.1489 27.3437C43.1091 27.2507 43.0694 27.1577 43.0284 27.0618C42.9755 26.9391 42.9225 26.8163 42.8696 26.6936C42.8435 26.6324 42.8174 26.5711 42.7905 26.508C42.6625 26.2125 42.5413 25.9392 42.343 25.6889C42.3735 25.8343 42.3735 25.8343 42.4046 25.9826C42.4314 26.1113 42.4582 26.2399 42.485 26.3686C42.4983 26.4323 42.5117 26.496 42.5255 26.5616C42.5958 26.9 42.6603 27.2372 42.7093 27.5801C42.4544 27.4787 42.2381 27.3602 42.0134 27.196C41.9597 27.1572 41.9061 27.1184 41.8508 27.0784C41.7957 27.0359 41.7405 26.9935 41.6837 26.9497C41.6227 26.9032 41.5617 26.8567 41.4988 26.8088C41.2875 26.6058 41.1516 26.3857 41.0152 26.1223C40.9899 26.0735 40.9646 26.0246 40.9385 25.9742C40.3221 24.737 40.473 23.4011 40.6581 22.0641Z" fill="#7EC29D"/>
<path d="M70.8406 12.7657C71.5093 13.376 71.9433 14.3765 72.029 15.307C72.0948 16.4008 71.9694 17.2773 71.2801 18.1241C71.2166 18.2021 71.1532 18.2801 71.0878 18.3605C70.9138 18.5181 70.9138 18.5181 70.6208 18.5181C69.901 17.7003 69.5633 16.8439 69.5751 15.7204C69.6548 14.6253 70.201 13.5998 70.8406 12.7657Z" fill="#7EC39E"/>
<path d="M57.6542 23.3249C58.2274 23.623 58.6478 24.1412 59.0461 24.6645C59.0846 24.7139 59.1231 24.7633 59.1628 24.8141C59.7498 25.6034 59.9459 26.3431 59.8714 27.3397C59.8176 27.7859 59.6718 28.2041 59.4856 28.6045C59.4373 28.6045 59.3889 28.6045 59.3391 28.6045C59.3152 28.5247 59.2913 28.4449 59.2667 28.3626C59.2344 28.2561 59.202 28.1496 59.1697 28.0431C59.1541 27.9907 59.1384 27.9383 59.1223 27.8843C59.0224 27.5569 58.9038 27.2551 58.753 26.9497C58.7871 27.3285 58.8301 27.6955 58.9041 28.0677C58.9608 28.3571 58.9873 28.6227 58.9728 28.9197C58.3252 28.6761 57.8032 28.0807 57.5076 27.4225C57.05 26.0388 57.3386 24.6987 57.6542 23.3249Z" fill="#7EC29D"/>
<path d="M30.6219 14.7356C30.8642 14.7821 30.9903 14.8634 31.1685 15.0441C31.2151 15.0911 31.2618 15.1381 31.3098 15.1866C31.3578 15.236 31.4058 15.2855 31.4552 15.3365C31.5263 15.4079 31.5263 15.4079 31.5989 15.4808C32.4007 16.2964 32.9353 17.0806 32.9982 18.2964C32.9916 18.8535 32.7933 19.3488 32.5999 19.8577C32.3709 19.7345 32.3525 19.5291 32.2656 19.2765C32.2338 19.1849 32.202 19.0933 32.1692 18.9988C32.1156 18.8393 32.0637 18.679 32.0138 18.518C31.9655 18.518 31.9171 18.518 31.8673 18.518C31.899 18.6392 31.899 18.6392 31.9314 18.7628C31.9589 18.87 31.9864 18.9772 32.0138 19.0844C32.0278 19.1375 32.0418 19.1906 32.0562 19.2453C32.1298 19.535 32.1777 19.7934 32.1603 20.0941C31.3462 19.7755 30.8874 19.1282 30.5258 18.3112C30.113 17.239 30.288 15.813 30.6219 14.7356Z" fill="#7EC49D"/>
<path d="M60.5844 12.9232C60.3128 14.3422 59.8592 15.7314 58.7529 16.6269C58.2155 17.0001 57.6279 17.1286 56.9947 17.0997C57.1111 16.801 57.2884 16.6 57.4938 16.3658C57.7693 16.0459 58.0154 15.7286 58.2401 15.3661C58.0888 15.4888 57.9377 15.612 57.7869 15.7354C57.7233 15.7869 57.7233 15.7869 57.6585 15.8393C57.4513 16.0093 57.2667 16.177 57.0826 16.3772C56.9215 16.5481 56.9215 16.5481 56.775 16.5481C56.7345 15.7646 56.9365 15.1329 57.361 14.4993C57.4139 14.418 57.4668 14.3367 57.5213 14.253C58.1411 13.4964 59.6451 12.8601 60.5844 12.9232Z" fill="#7CC29C"/>
<path d="M54.7969 8.51041C55.1403 8.62576 55.3727 8.8413 55.6302 9.10141C55.6933 9.16486 55.6933 9.16486 55.7576 9.22959C56.1032 9.58586 56.3872 9.95496 56.6284 10.4016C56.6653 10.4658 56.7022 10.53 56.7403 10.5962C57.0746 11.2577 57.1211 12.0371 56.9595 12.7669C56.8748 13.0686 56.7695 13.3564 56.6284 13.6324C56.5558 13.6714 56.5558 13.6714 56.4819 13.7112C56.4619 13.6297 56.4619 13.6297 56.4415 13.5466C56.3359 13.1219 56.2209 12.7046 56.0884 12.2888C56.0343 12.1085 55.9971 11.9283 55.969 11.7412C55.9207 11.7412 55.8723 11.7412 55.8225 11.7412C55.8384 11.8165 55.8543 11.8918 55.8706 11.9693C55.9954 12.5843 56.0754 13.1568 56.0423 13.79C55.7158 13.6609 55.5458 13.5171 55.3097 13.2384C55.2733 13.1986 55.2368 13.1588 55.1993 13.1178C54.4366 12.2438 54.4566 11.131 54.4888 10.0037C54.5222 9.48801 54.6489 9.00014 54.7969 8.51041Z" fill="#7FC49E"/>
<path d="M55.6762 28.2893C56.5658 28.4689 57.4732 29.2091 57.9909 29.9934C58.3235 30.5992 58.4786 31.2125 58.3867 31.9142C58.1786 32.7684 58.1786 32.7684 58.0204 32.9386C57.4098 32.9246 56.9156 32.5522 56.4866 32.1062C56.0424 31.5958 56.0424 31.5958 56.0424 31.205C55.9941 31.205 55.9457 31.205 55.8959 31.205C55.6044 30.2494 55.6541 29.2827 55.6762 28.2893Z" fill="#80C49F"/>
<path d="M37.8744 26.871C38.174 26.865 38.4735 26.8608 38.7731 26.858C38.8747 26.8568 38.9763 26.8552 39.0779 26.8531C40.0429 26.834 40.7411 26.9351 41.464 27.659C41.8265 28.0593 42.2073 28.5055 42.2699 29.0774C41.9003 29.0176 41.5808 28.8546 41.244 28.69C41.0347 28.59 40.89 28.5258 40.6582 28.5258C40.7365 28.5786 40.7365 28.5786 40.8164 28.6326C41.6539 29.2012 41.6539 29.2012 41.9768 29.4714C41.9768 29.5234 41.9768 29.5754 41.9768 29.629C41.3572 29.8511 40.4505 29.8072 39.8638 29.496C38.9996 28.9302 38.3439 28.0686 37.8744 27.1074C37.8744 27.0293 37.8744 26.9513 37.8744 26.871Z" fill="#7CC39D"/>
<path d="M46.9585 27.5802C47.004 28.8414 46.93 30.2208 46.1435 31.2247C45.7341 31.6861 45.2823 32.0496 44.6875 32.1506C44.7296 31.7406 44.8556 31.4225 45.0217 31.0572C45.0459 31.003 45.07 30.9487 45.0948 30.8928C45.1539 30.7602 45.2137 30.628 45.2736 30.4958C45.2494 30.4698 45.2252 30.4438 45.2003 30.417C45.0796 30.5975 44.959 30.7781 44.8386 30.9587C44.7871 31.0357 44.7871 31.0357 44.7346 31.1142C44.5504 31.3865 44.5504 31.3865 44.3945 31.6778C44.3461 31.6778 44.2978 31.6778 44.2479 31.6778C44.1805 29.7622 44.1805 29.7622 44.8065 28.9444C45.1224 28.587 45.4736 28.316 45.8596 28.053C45.9245 28.007 45.9894 27.9611 46.0562 27.9138C46.5864 27.5511 46.5864 27.5511 46.9585 27.5802Z" fill="#7CC39C"/>
<path d="M35.6765 13.3173C36.3064 13.3657 36.8995 13.5386 37.508 13.7113C37.5538 13.8541 37.5538 13.8541 37.5812 14.0265C37.5087 14.1435 37.5087 14.1435 37.4347 14.2629C36.7998 14.0711 36.25 13.7382 35.6765 13.3961C35.6765 13.3701 35.6765 13.3441 35.6765 13.3173Z" fill="#ECF8EB"/>
<path d="M52.3795 4.80685C52.4037 4.85886 52.4279 4.91087 52.4528 4.96445C52.4087 5.09897 52.4087 5.09897 52.3337 5.26488C52.1303 5.73305 51.9629 6.21476 51.7934 6.69806C51.7209 6.64605 51.6484 6.59405 51.5737 6.54046C51.416 6.56476 51.416 6.56476 51.2806 6.61926C51.611 5.98297 51.9703 5.38772 52.3795 4.80685Z" fill="#E7F6E9"/>
<path d="M33.4789 23.4037C33.7639 23.5217 33.8796 23.6956 34.0466 23.9651C34.1141 24.0727 34.1141 24.0727 34.1828 24.1825C34.2333 24.265 34.2333 24.265 34.2847 24.3493C34.2122 24.3883 34.2122 24.3883 34.1382 24.4281C34.1776 24.6942 34.2196 24.9558 34.2847 25.2161C34.0334 24.9656 33.9085 24.6809 33.7582 24.3542C33.7312 24.2978 33.7043 24.2414 33.6765 24.1832C33.651 24.1284 33.6256 24.0736 33.5994 24.0172C33.5762 23.9675 33.553 23.9178 33.5292 23.8667C33.4789 23.7189 33.4789 23.7189 33.4789 23.4037Z" fill="#8BC2A1"/>
<path d="M30.0357 28.3681C29.9358 28.6096 29.8232 28.7723 29.6474 28.9561C29.5999 29.0062 29.5524 29.0564 29.5036 29.1081C29.454 29.1597 29.4045 29.2113 29.3535 29.2645C28.7515 29.8449 28.7515 29.8449 28.3507 30.5745C28.4233 30.6005 28.4958 30.6266 28.5705 30.6533C28.4496 30.6273 28.3288 30.6013 28.2042 30.5745C28.4335 29.8639 28.9978 29.3131 29.4817 28.7868C29.5198 28.7451 29.5578 28.7034 29.5971 28.6604C29.8711 28.3681 29.8711 28.3681 30.0357 28.3681Z" fill="#94C9AB"/>
<path d="M60.8043 34.1993C60.8526 34.2253 60.901 34.2513 60.9508 34.2781C60.9024 34.3301 60.8541 34.3822 60.8043 34.4357C62.9438 34.4747 62.9438 34.4747 65.1265 34.5145C65.1265 34.5405 65.1265 34.5666 65.1265 34.5933C63.5793 34.5933 62.0321 34.5933 60.438 34.5933C60.5589 34.4633 60.6797 34.3333 60.8043 34.1993Z" fill="#DBF4E3"/>
<path d="M33.4789 34.1993C33.9998 34.3027 34.5079 34.4371 35.0173 34.5933C34.9206 34.6193 34.8239 34.6454 34.7243 34.6721C34.7001 34.7762 34.6759 34.8802 34.651 34.9873C34.2446 34.801 33.8586 34.6002 33.4789 34.3569C33.4789 34.3049 33.4789 34.2529 33.4789 34.1993Z" fill="#86C5A3"/>
<path d="M56.9947 37.4302C56.8783 37.7401 56.6897 37.929 56.4682 38.1591C56.1382 38.5057 55.8263 38.8624 55.5296 39.2426C55.4812 39.2166 55.4329 39.1906 55.3831 39.1638C56.7157 37.4302 56.7157 37.4302 56.9947 37.4302Z" fill="#DCF2E4"/>
<path d="M40.585 28.4469C41.0414 28.4867 41.4241 28.709 41.8303 28.9197C41.8062 29.0237 41.782 29.1277 41.7571 29.2349C41.46 29.1853 41.252 29.0197 41.0062 28.8409C40.9272 28.784 40.8483 28.7271 40.767 28.6685C40.7069 28.6214 40.6468 28.5743 40.585 28.5257C40.585 28.4997 40.585 28.4737 40.585 28.4469Z" fill="#E8F8EF"/>
<path d="M58.2402 15.3661C58.1354 15.6152 58.0076 15.8091 57.8419 16.0162C57.7982 16.0718 57.7544 16.1275 57.7094 16.1848C57.5809 16.3117 57.5809 16.3117 57.3611 16.3117C57.2886 16.3637 57.2161 16.4157 57.1414 16.4693C57.1601 16.2083 57.2301 16.1379 57.4089 15.9509C57.4886 15.88 57.5688 15.8098 57.6496 15.7404C57.69 15.7042 57.7303 15.668 57.7719 15.6308C58.0733 15.3661 58.0733 15.3661 58.2402 15.3661Z" fill="#E1F4E7"/>
<path d="M34.1382 36.6422C34.1865 36.6682 34.2349 36.6942 34.2847 36.721C33.7691 37.3955 33.7691 37.3955 33.401 37.6419C33.325 37.6936 33.325 37.6936 33.2474 37.7463C33.1126 37.8242 33.1126 37.8242 32.9661 37.8242C32.9661 37.6666 32.9661 37.6666 33.0737 37.5471C33.4188 37.2302 33.771 36.929 34.1382 36.6422Z" fill="#DDF5E7"/>
<path d="M56.2621 4.57043C56.2863 4.57043 56.3105 4.57043 56.3354 4.57043C56.4035 5.33446 56.4169 6.08919 56.4086 6.85565C56.1931 6.42288 56.1774 6.04166 56.1797 5.55544C56.1794 5.49561 56.1791 5.43578 56.1788 5.37414C56.1793 5.09287 56.1915 4.84093 56.2621 4.57043Z" fill="#9CCBAE"/>
<path d="M62.0496 8.90445C62.0738 8.90445 62.0979 8.90445 62.1229 8.90445C62.1229 9.76259 62.1229 10.6207 62.1229 11.5049C62.0987 11.5049 62.0745 11.5049 62.0496 11.5049C62.0254 10.9588 62.0012 10.4127 61.9763 9.85005C61.9522 9.85005 61.928 9.85005 61.9031 9.85005C61.9134 9.70719 61.9241 9.56438 61.9351 9.42158C61.9411 9.34204 61.947 9.2625 61.9532 9.18056C61.9763 8.98325 61.9763 8.98325 62.0496 8.90445Z" fill="#DDF5E6"/>
<path d="M52.4527 1.65479C52.3531 1.8946 52.2413 2.05849 52.0675 2.24209C52.0217 2.29085 51.9759 2.33961 51.9287 2.38984C51.881 2.43982 51.8333 2.4898 51.7842 2.54129C51.7359 2.59248 51.6877 2.64368 51.638 2.69643C51.5191 2.82238 51.4 2.94795 51.2805 3.07319C51.2564 3.02118 51.2322 2.96918 51.2073 2.91559C52.2048 1.65479 52.2048 1.65479 52.4527 1.65479Z" fill="#88C1A2"/>
<path d="M56.1158 14.4205C56.1883 14.4205 56.2609 14.4205 56.3356 14.4205C56.3356 14.7846 56.3356 15.1486 56.3356 15.5237C56.2872 15.5237 56.2389 15.5237 56.1891 15.5237C56.0157 15.2441 56.0346 15.1631 56.07 14.8391C56.0781 14.7608 56.0863 14.6825 56.0946 14.6018C56.1016 14.542 56.1086 14.4821 56.1158 14.4205Z" fill="#8CC2A4"/>
<path d="M50.4016 8.82562C50.4257 8.82562 50.4499 8.82562 50.4748 8.82562C50.4664 8.98984 50.4571 9.154 50.4473 9.31812C50.4422 9.40955 50.4371 9.50097 50.4319 9.59516C50.4043 9.82693 50.3666 9.96819 50.255 10.1652C50.255 10.0092 50.255 9.85318 50.255 9.69243C50.2067 9.69243 50.1583 9.69243 50.1085 9.69243C50.1404 9.33622 50.1662 9.08928 50.4016 8.82562Z" fill="#91C7A6"/>
<path d="M45.2735 30.2593C45.3468 30.4957 45.3468 30.4957 45.2643 30.6829C45.1135 30.91 44.9485 31.0913 44.7607 31.2837C44.6927 31.3568 44.6247 31.43 44.5547 31.5053C44.5018 31.5622 44.4489 31.6191 44.3944 31.6777C44.5066 31.3096 44.6953 31.0456 44.9164 30.7469C44.9507 30.6998 44.9849 30.6527 45.0203 30.6042C45.1043 30.4889 45.1888 30.3741 45.2735 30.2593Z" fill="#D8F1E0"/>
<path d="M66.3718 28.8409C66.4202 28.8669 66.4685 28.893 66.5183 28.9197C66.1799 29.2838 65.8414 29.6479 65.4927 30.0229C65.4444 29.9969 65.396 29.9709 65.3462 29.9441C65.4619 29.8043 65.5779 29.6648 65.6942 29.5255C65.7267 29.4862 65.7591 29.4468 65.7926 29.4062C65.9723 29.1917 66.15 29.0042 66.3718 28.8409Z" fill="#DBF2E3"/>
<path d="M69.3752 22.6157C69.4236 22.6157 69.4719 22.6157 69.5218 22.6157C69.4872 22.9423 69.4491 23.1667 69.2287 23.4037C69.0089 23.4037 69.0089 23.4037 68.8624 23.3249C68.9443 23.2062 69.0268 23.0881 69.1097 22.9703C69.1556 22.9045 69.2015 22.8386 69.2487 22.7708C69.2905 22.7196 69.3322 22.6684 69.3752 22.6157Z" fill="#95C6AC"/>
<path d="M66.0055 27.4225C66.0539 27.4485 66.1022 27.4745 66.152 27.5013C66.0117 27.6656 65.8713 27.8297 65.7308 27.9938C65.6913 28.04 65.6518 28.0863 65.6112 28.1339C65.405 28.3745 65.1972 28.6117 64.9799 28.8409C64.9315 28.8149 64.8832 28.7889 64.8334 28.7621C64.8812 28.7116 64.9289 28.6612 64.9782 28.6091C65.3376 28.2265 65.6834 27.8419 66.0055 27.4225Z" fill="#8FC3A4"/>
<path d="M33.4055 35.6966C33.6024 35.6923 33.7992 35.6892 33.9962 35.6867C34.0513 35.6854 34.1064 35.6841 34.1631 35.6827C34.5259 35.6793 34.8197 35.7293 35.1637 35.8542C35.0912 35.9322 35.0187 36.0102 34.9439 36.0906C34.9439 36.0126 34.9439 35.9345 34.9439 35.8542C34.4363 35.8282 33.9286 35.8022 33.4055 35.7754C33.4055 35.7494 33.4055 35.7234 33.4055 35.6966Z" fill="#99C8AE"/>
<path d="M57.5807 20.2517C57.6291 20.2517 57.6774 20.2517 57.7273 20.2517C57.6147 20.5417 57.4502 20.7235 57.2419 20.9412C57.1521 21.0356 57.1521 21.0356 57.0605 21.132C57.0146 21.1796 56.9687 21.2271 56.9214 21.2761C56.8731 21.2501 56.8247 21.2241 56.7749 21.1973C56.9057 21.0392 57.037 20.8817 57.1687 20.7245C57.2059 20.6794 57.2431 20.6343 57.2814 20.5878C57.3782 20.4728 57.4792 20.3619 57.5807 20.2517Z" fill="#91C3A7"/>
<path d="M45.127 28.6045C45.1753 28.6045 45.2237 28.6045 45.2735 28.6045C45.1755 28.8352 45.0642 29.0117 44.9072 29.2005C44.7697 29.3665 44.6565 29.5212 44.5409 29.7077C44.5167 29.6297 44.4926 29.5517 44.4677 29.4713C44.5675 29.2986 44.5675 29.2986 44.7103 29.1118C44.7569 29.0499 44.8034 28.9881 44.8514 28.9243C44.9805 28.7621 44.9805 28.7621 45.127 28.6045Z" fill="#94C7A8"/>
<path d="M58.0204 13.7901C58.0687 13.8161 58.1171 13.8421 58.1669 13.8689C58.0863 13.971 58.0054 14.0727 57.9242 14.1743C57.8792 14.2309 57.8341 14.2876 57.7877 14.346C57.6541 14.4993 57.6541 14.4993 57.4343 14.6569C57.4343 14.3436 57.5354 14.2559 57.7274 14.0265C57.8922 13.8837 57.8922 13.8837 58.0204 13.7901Z" fill="#8DC5A7"/>
<path d="M35.2372 21.8277C35.3097 21.8667 35.3097 21.8667 35.3837 21.9065C35.4301 22.0866 35.4301 22.0866 35.4661 22.3054C35.4784 22.3779 35.4907 22.4503 35.5033 22.5249C35.5122 22.5809 35.5211 22.6368 35.5302 22.6945C35.4819 22.6945 35.4335 22.6945 35.3837 22.6945C35.3596 22.7725 35.3354 22.8505 35.3105 22.9309C35.2221 22.5627 35.2303 22.2048 35.2372 21.8277Z" fill="#DDF4E3"/>
<path d="M68.423 16.3117C68.4713 16.3117 68.5197 16.3117 68.5695 16.3117C68.5695 16.6269 68.5695 16.6269 68.449 16.7783C68.3966 16.8259 68.3442 16.8734 68.2902 16.9224C68.2124 16.9949 68.2124 16.9949 68.1331 17.0689C67.9834 17.1785 67.9834 17.1785 67.7637 17.1785C67.87 17.0336 67.9769 16.8892 68.0842 16.7451C68.1437 16.6646 68.2032 16.5842 68.2645 16.5013C68.3168 16.4387 68.3691 16.3761 68.423 16.3117Z" fill="#96C4A9"/>
<path d="M30.0358 33.4902C30.3742 33.4902 30.7127 33.4902 31.0614 33.4902C31.0614 33.5162 31.0614 33.5422 31.0614 33.569C30.9405 33.569 30.8196 33.569 30.6951 33.569C30.6951 33.621 30.6951 33.673 30.6951 33.7266C30.7918 33.7526 30.8885 33.7786 30.9881 33.8054C30.7838 33.9153 30.6862 33.8511 30.4707 33.7807C30.372 33.7495 30.372 33.7495 30.2713 33.7176C30.109 33.6478 30.109 33.6478 30.0358 33.4902Z" fill="#D1F0DC"/>
<path d="M63.7346 19.7001C63.334 19.9874 62.9717 20.038 62.4984 20.0252C62.448 20.0244 62.3975 20.0237 62.3456 20.023C62.2225 20.0212 62.0995 20.0183 61.9764 20.0153C61.9764 19.9893 61.9764 19.9633 61.9764 19.9365C62.0409 19.9326 62.1054 19.9288 62.1719 19.9248C62.257 19.9189 62.3421 19.913 62.4297 19.907C62.5559 19.8987 62.5559 19.8987 62.6847 19.8903C63.0646 19.8395 63.3413 19.6804 63.7346 19.7001Z" fill="#9ACAAE"/>
<path d="M62.4891 12.6868C62.5133 12.6868 62.5375 12.6868 62.5624 12.6868C62.5853 12.8986 62.5853 12.8986 62.5624 13.1596C62.3792 13.3862 62.3792 13.3862 62.1961 13.5536C62.1477 13.5276 62.0994 13.5016 62.0496 13.4748C62.1089 13.3582 62.1685 13.2416 62.2281 13.1252C62.2778 13.0278 62.2778 13.0278 62.3286 12.9285C62.4159 12.7656 62.4159 12.7656 62.4891 12.6868Z" fill="#8FBEA2"/>
<path d="M0 12.3716C0.280954 12.4948 0.447143 12.695 0.659323 12.9232C0.818016 13.0253 0.818016 13.0253 0.952356 13.0808C0.952356 13.1329 0.952356 13.1849 0.952356 13.2384C0.517889 13.1519 0.248615 12.9155 0 12.5292C0 12.4772 0 12.4252 0 12.3716Z" fill="#DFDFD7"/>
<path d="M55.8225 11.7413C55.8709 11.7413 55.9192 11.7413 55.969 11.7413C56.2076 12.362 56.2076 12.362 56.1293 12.7312C56.0862 12.8263 56.0862 12.8263 56.0423 12.9233C56.0181 12.9233 55.9939 12.9233 55.969 12.9233C55.9207 12.5332 55.8723 12.1432 55.8225 11.7413Z" fill="#D1EED9"/>
<path d="M64.3206 31.0474C64.3206 31.2838 64.3206 31.2838 64.1867 31.4592C64.0989 31.5528 64.0989 31.5528 64.0093 31.6482C63.9515 31.711 63.8937 31.7738 63.8342 31.8385C63.6687 31.9864 63.5779 32.0418 63.3683 32.0718C63.6516 31.6813 63.9682 31.3654 64.3206 31.0474Z" fill="#D8F1E1"/>
<path d="M71.5731 19.3849C71.5973 19.4629 71.6215 19.5409 71.6464 19.6213C71.4046 19.8814 71.1629 20.1414 70.9138 20.4093C70.9138 20.0833 71.0395 19.9988 71.2435 19.7641C71.3047 19.6931 71.3659 19.6221 71.4289 19.549C71.5003 19.4678 71.5003 19.4678 71.5731 19.3849Z" fill="#96C8AB"/>
<path d="M32.5266 34.4357C32.6475 34.4357 32.7684 34.4357 32.8929 34.4357C32.8929 34.4877 32.8929 34.5397 32.8929 34.5933C32.4215 34.8274 32.4215 34.8274 31.9406 35.0661C31.9164 35.0141 31.8922 34.9621 31.8673 34.9085C31.9088 34.8876 31.9502 34.8667 31.9929 34.8451C32.0467 34.8173 32.1004 34.7895 32.1558 34.7608C32.2093 34.7334 32.2629 34.7059 32.318 34.6777C32.4653 34.6037 32.4653 34.6037 32.5266 34.4357Z" fill="#90C2A6"/>
<path d="M46.9584 27.5801C46.9584 27.9702 46.9584 28.3602 46.9584 28.7621C46.9342 28.7621 46.91 28.7621 46.8851 28.7621C46.8851 28.424 46.8851 28.086 46.8851 27.7377C46.7159 27.7637 46.5467 27.7897 46.3723 27.8165C46.5712 27.5462 46.597 27.5801 46.9584 27.5801Z" fill="#95C8A9"/>
<path d="M31.5741 26.5557C31.9027 26.6074 32.2092 26.6897 32.5265 26.7921C32.5265 26.8181 32.5265 26.8441 32.5265 26.8709C32.1273 26.9654 31.9241 26.9429 31.5741 26.7133C31.5741 26.6613 31.5741 26.6093 31.5741 26.5557Z" fill="#91C5AA"/>
<path d="M72.3057 21.2761C72.3541 21.3021 72.4024 21.3281 72.4522 21.3549C72.1552 21.6915 71.8689 21.9797 71.4999 22.2217C71.5259 21.9953 71.5638 21.9159 71.7219 21.7579C71.7816 21.711 71.8413 21.6642 71.9028 21.6159C71.9625 21.5685 72.0222 21.5211 72.0837 21.4722C72.1328 21.4335 72.1819 21.3948 72.2325 21.3549C72.2566 21.3289 72.2808 21.3029 72.3057 21.2761Z" fill="#92C4A7"/>
<path d="M64.4672 11.0321C64.4672 11.3581 64.3415 11.4426 64.1375 11.6773C64.0763 11.7483 64.0151 11.8193 63.9521 11.8924C63.9045 11.9466 63.8569 12.0007 63.8079 12.0565C63.8079 11.7619 63.8741 11.7125 64.0551 11.5C64.101 11.4454 64.1469 11.3909 64.1942 11.3347C64.2836 11.2322 64.3748 11.1315 64.4672 11.0321Z" fill="#94C5AA"/>
<path d="M29.0835 25.9253C29.3978 25.9513 29.7121 25.9773 30.0359 26.0041C30.0359 26.0301 30.0359 26.0561 30.0359 26.0829C29.8666 26.1089 29.6974 26.1349 29.523 26.1617C29.5956 26.2137 29.6681 26.2657 29.7428 26.3193C29.6219 26.3193 29.5011 26.3193 29.3765 26.3193C29.3524 26.2673 29.3282 26.2153 29.3033 26.1617C29.2307 26.1357 29.1582 26.1097 29.0835 26.0829C29.0835 26.0309 29.0835 25.9789 29.0835 25.9253Z" fill="#C3E5D0"/>
<path d="M62.3427 24.9009C62.4159 25.1373 62.4159 25.1373 62.3106 25.3885C62.2539 25.4982 62.2539 25.4982 62.1961 25.6101C62.0496 25.6101 61.9031 25.6101 61.7566 25.6101C61.95 25.376 62.1434 25.142 62.3427 24.9009Z" fill="#E0F5E7"/>
<path d="M59.1925 18.1241C59.2167 18.1761 59.2409 18.2281 59.2658 18.2817C59.1994 18.384 59.1321 18.4857 59.0643 18.587C59.0082 18.6721 59.0082 18.6721 58.951 18.7588C58.8207 18.9188 58.7144 18.9892 58.5332 19.0697C58.7345 18.7329 58.9502 18.4282 59.1925 18.1241Z" fill="#95C6AA"/>
<path d="M64.3205 37.5878C64.6135 37.6929 64.6749 37.8633 64.8333 38.1394C64.8091 38.1914 64.7849 38.2434 64.76 38.297C64.5908 38.141 64.4215 37.985 64.2472 37.8242C64.2714 37.7462 64.2955 37.6682 64.3205 37.5878Z" fill="#D2F3E1"/>
<path d="M39.5593 36.7998C39.4311 37.1051 39.4311 37.1051 39.2662 37.1938C39.2662 37.1158 39.2662 37.0378 39.2662 36.9574C39.0728 36.9574 38.8794 36.9574 38.6802 36.9574C38.9659 36.7525 39.2277 36.7879 39.5593 36.7998Z" fill="#ADD2BB"/>
<path d="M69.5951 33.6478C69.5951 33.6998 69.5951 33.7518 69.5951 33.8054C69.305 33.9614 69.305 33.9614 69.009 34.1206C68.9849 34.0166 68.9607 33.9126 68.9358 33.8054C69.1827 33.6873 69.3171 33.6478 69.5951 33.6478Z" fill="#8EC0A3"/>
<path d="M32.5999 33.4902C32.6724 33.4902 32.7449 33.4902 32.8196 33.4902C32.868 33.5942 32.9164 33.6982 32.9662 33.8054C32.6121 33.8119 32.2895 33.8016 31.9406 33.7266C31.9406 33.7006 31.9406 33.6746 31.9406 33.6478C32.2669 33.6088 32.2669 33.6088 32.5999 33.569C32.5999 33.543 32.5999 33.517 32.5999 33.4902Z" fill="#A2CAB1"/>
<path d="M73.0431 25.366C73.1336 25.3673 73.1336 25.3673 73.226 25.3687C73.2865 25.3694 73.347 25.3702 73.4094 25.3709C73.4562 25.3718 73.5029 25.3727 73.5511 25.3737C73.5511 25.4257 73.5511 25.4777 73.5511 25.5313C73.3577 25.5833 73.1643 25.6353 72.965 25.6889C72.965 25.6369 72.965 25.5848 72.965 25.5313C72.9166 25.5053 72.8683 25.4793 72.8185 25.4525C72.8917 25.3737 72.8917 25.3737 73.0431 25.366Z" fill="#DBF3E4"/>
<path d="M72.0127 15.4449C72.2229 15.671 72.2297 15.9253 72.2325 16.2329C72.1638 16.4693 72.1638 16.4693 72.086 16.6269C72.0618 16.6269 72.0376 16.6269 72.0127 16.6269C72.0127 16.2368 72.0127 15.8468 72.0127 15.4449Z" fill="#D2EDDD"/>
<path d="M68.2764 23.0885C68.3248 23.1145 68.3731 23.1405 68.4229 23.1673C68.1812 23.4273 67.9394 23.6874 67.6903 23.9553C67.642 23.9033 67.5936 23.8513 67.5438 23.7977C67.6405 23.7457 67.7372 23.6937 67.8369 23.6401C67.8369 23.5881 67.8369 23.5361 67.8369 23.4825C67.9804 23.3474 68.1269 23.2158 68.2764 23.0885Z" fill="#E5F4E7"/>
<path d="M50.6945 20.0941C50.7428 20.1201 50.7912 20.1461 50.841 20.1729C50.5993 20.4329 50.3575 20.6929 50.1084 20.9609C50.0601 20.9349 50.0117 20.9089 49.9619 20.8821C50.1875 20.5771 50.4015 20.3282 50.6945 20.0941Z" fill="#93C5A5"/>
<path d="M44.2478 30.4169C44.272 30.4169 44.2962 30.4169 44.3211 30.4169C44.3255 30.4702 44.3299 30.5234 44.3345 30.5782C44.3406 30.6485 44.3468 30.7188 44.3531 30.7912C44.3591 30.8607 44.365 30.9302 44.3711 31.0018C44.3894 31.2018 44.3894 31.2018 44.4381 31.3785C44.4676 31.5201 44.4676 31.5201 44.3943 31.6777C44.346 31.6777 44.2976 31.6777 44.2478 31.6777C44.2478 31.2617 44.2478 30.8456 44.2478 30.4169Z" fill="#81B594"/>
<path d="M49.7422 23.9554C49.7664 24.0594 49.7906 24.1634 49.8155 24.2706C49.9847 24.2706 50.1539 24.2706 50.3283 24.2706C50.3283 24.2966 50.3283 24.3226 50.3283 24.3494C50.0624 24.3754 49.7964 24.4014 49.5225 24.4282C49.669 24.0342 49.669 24.0342 49.7422 23.9554Z" fill="#98C8AE"/>
<path d="M26.0065 18.8333C26.3449 18.8333 26.6834 18.8333 27.0321 18.8333C27.0321 18.8593 27.0321 18.8853 27.0321 18.9121C26.7662 18.9121 26.5002 18.9121 26.2262 18.9121C26.2262 19.0421 26.2262 19.1722 26.2262 19.3061C26.1164 19.2027 26.1164 19.2027 26.0065 19.0697C26.0065 18.9917 26.0065 18.9137 26.0065 18.8333Z" fill="#94C6AB"/>
<path d="M59.8518 17.1784C59.876 17.2825 59.9002 17.3865 59.9251 17.4936C59.82 17.6451 59.82 17.6451 59.6732 17.7891C59.625 17.8375 59.5767 17.8858 59.527 17.9357C59.4702 17.9899 59.4702 17.9899 59.4123 18.0452C59.3639 18.0192 59.3156 17.9932 59.2657 17.9664C59.4591 17.7064 59.6526 17.4464 59.8518 17.1784Z" fill="#92C6A9"/>
<path d="M53.4052 14.6569C53.6199 14.8817 53.8186 15.1022 53.9912 15.3661C53.8945 15.3921 53.7978 15.4181 53.6982 15.4449C53.4052 14.9228 53.4052 14.9228 53.4052 14.6569Z" fill="#D8F4E5"/>
<path d="M66.152 11.9777C66.152 12.0297 66.152 12.0817 66.152 12.1353C65.7643 12.3777 65.7643 12.3777 65.5019 12.347C65.4505 12.3292 65.3991 12.3113 65.3462 12.2929C65.5742 12.0476 65.8335 11.9777 66.152 11.9777Z" fill="#CFEDDA"/>
<path d="M55.6761 28.2893C55.8575 28.3283 55.8575 28.3283 56.0424 28.3681C56.0424 28.4201 56.0424 28.4722 56.0424 28.5257C55.9699 28.5517 55.8974 28.5777 55.8227 28.6045C55.7985 28.8126 55.7743 29.0206 55.7494 29.2349C55.7252 29.2349 55.7011 29.2349 55.6761 29.2349C55.6761 28.9229 55.6761 28.6108 55.6761 28.2893Z" fill="#8ABDA0"/>
<path d="M42.2698 25.6101C42.6779 26.0154 42.6779 26.0154 42.7093 26.3193C42.572 26.3045 42.572 26.3045 42.4163 26.2405C42.3048 26.0127 42.2698 25.8687 42.2698 25.6101Z" fill="#E0F6E8"/>
<path d="M31.8673 18.5181C31.9157 18.5181 31.964 18.5181 32.0138 18.5181C32.2336 18.9712 32.2336 18.9712 32.2336 19.1485C32.1852 19.1485 32.1369 19.1485 32.0871 19.1485C32.0629 19.2005 32.0387 19.2525 32.0138 19.3061C31.9655 19.0461 31.9171 18.786 31.8673 18.5181Z" fill="#D2EFDC"/>
<path d="M60.5845 12.9233C60.5361 13.1573 60.4878 13.3913 60.438 13.6325C60.4138 13.6325 60.3896 13.6325 60.3647 13.6325C60.3647 13.4504 60.3647 13.2684 60.3647 13.0809C60.2438 13.0809 60.123 13.0809 59.9984 13.0809C60.2349 12.9113 60.3123 12.9074 60.5845 12.9233Z" fill="#98C7AA"/>
<path d="M43.5153 10.9533C43.6966 10.9923 43.6966 10.9923 43.8815 11.0321C43.8815 11.0841 43.8815 11.1361 43.8815 11.1897C43.809 11.1897 43.7365 11.1897 43.6618 11.1897C43.6618 11.3197 43.6618 11.4498 43.6618 11.5837C43.6134 11.5837 43.5651 11.5837 43.5153 11.5837C43.5153 11.3757 43.5153 11.1676 43.5153 10.9533Z" fill="#77BA97"/>
<path d="M31.501 36.6422C31.5493 36.6682 31.5977 36.6942 31.6475 36.721C31.5024 36.903 31.3574 37.085 31.2079 37.2726C31.1354 37.2465 31.0629 37.2205 30.9882 37.1938C31.1574 37.0117 31.3266 36.8297 31.501 36.6422Z" fill="#91C5A6"/>
<path d="M62.0497 25.4525C62.0955 25.6002 62.0955 25.6002 62.1229 25.7677C62.0746 25.8197 62.0262 25.8717 61.9764 25.9253C61.9306 25.7775 61.9306 25.7775 61.9032 25.6101C61.9515 25.5581 61.9999 25.5061 62.0497 25.4525ZM61.6834 25.6889C61.7559 25.7149 61.8284 25.7409 61.9032 25.7677C61.8065 25.8717 61.7098 25.9757 61.6101 26.0829C61.5618 26.0569 61.5134 26.0309 61.4636 26.0041C61.5361 25.9001 61.6087 25.7961 61.6834 25.6889Z" fill="#E9F8ED"/>
<path d="M72.6721 24.5069C72.7205 24.5329 72.7688 24.5589 72.8186 24.5857C72.6494 24.7938 72.4802 25.0018 72.3058 25.2161C72.2575 25.1901 72.2091 25.1641 72.1593 25.1373C72.3285 24.9293 72.4978 24.7213 72.6721 24.5069Z" fill="#97C8AA"/>
<path d="M48.2038 6.93445C48.4088 7.13365 48.5304 7.26573 48.5701 7.56485C48.4976 7.59086 48.425 7.61686 48.3503 7.64365C48.2142 7.39661 48.189 7.22012 48.2038 6.93445Z" fill="#D8F3E1"/>
<path d="M58.1669 15.5237C58.2152 15.5497 58.2636 15.5757 58.3134 15.6025C58.12 15.8365 57.9266 16.0706 57.7273 16.3117C57.679 16.2857 57.6306 16.2597 57.5808 16.2329C57.7742 15.9989 57.9676 15.7648 58.1669 15.5237Z" fill="#8CC2A6"/>
<path d="M56.9216 12.6081C56.9457 12.6081 56.9699 12.6081 56.9948 12.6081C57.0452 12.8691 57.0452 12.8691 57.0681 13.1597C56.9719 13.3123 56.9719 13.3123 56.8483 13.3961C56.7999 13.3961 56.7516 13.3961 56.7018 13.3961C56.7743 13.136 56.8468 12.876 56.9216 12.6081Z" fill="#DCF2E3"/>
<path d="M58.6798 26.8709C58.9582 27.1704 58.9582 27.1704 58.9728 27.4225C58.9003 27.5006 58.8278 27.5786 58.7531 27.6589C58.7289 27.3989 58.7047 27.1389 58.6798 26.8709Z" fill="#D2F2DC"/>
<path d="M40.5116 19.7789C40.9237 19.7592 40.9237 19.7592 41.1709 19.9365C41.1709 19.9885 41.1709 20.0405 41.1709 20.0941C40.891 20.0523 40.7269 19.9761 40.5116 19.7789Z" fill="#D8F3E3"/>
<path d="M61.3171 17.8088C61.3654 17.8088 61.4138 17.8088 61.4636 17.8088C61.3415 18.1194 61.1539 18.3438 60.9508 18.5968C60.9508 18.3333 60.9856 18.2762 61.1248 18.0699C61.1571 18.0208 61.1894 17.9717 61.2227 17.9212C61.2538 17.8841 61.285 17.847 61.3171 17.8088Z" fill="#92C4A8"/>
<path d="M38.9731 9.69244C39.0215 9.69244 39.0698 9.69244 39.1197 9.69244C39.168 9.87447 39.2164 10.0565 39.2662 10.244C39.2178 10.244 39.1695 10.244 39.1197 10.244C39.0955 10.2961 39.0713 10.3481 39.0464 10.4016C39.0222 10.1676 38.9981 9.93357 38.9731 9.69244Z" fill="#D4F2E2"/>
<path d="M69.6684 36.8785C69.8376 37.0346 70.0068 37.1906 70.1812 37.3513C70.1086 37.3903 70.1086 37.3903 70.0346 37.4301C69.8896 37.3261 69.7445 37.2221 69.5951 37.1149C69.6193 37.0369 69.6434 36.9589 69.6684 36.8785Z" fill="#D0F0DC"/>
<path d="M42.1967 34.9086C42.5538 35.0465 42.5538 35.0465 42.6362 35.2238C42.467 35.2238 42.2978 35.2238 42.1234 35.2238C42.1476 35.1198 42.1718 35.0158 42.1967 34.9086Z" fill="#F0FCF5"/>
<path d="M32.5404 28.7572C32.6061 28.7987 32.6061 28.7987 32.6731 28.841C32.6731 28.867 32.6731 28.893 32.6731 28.9198C32.4314 28.9458 32.1896 28.9718 31.9406 28.9986C32.2775 28.6361 32.2775 28.6361 32.5404 28.7572Z" fill="#D7F4E2"/>
<path d="M40.585 28.4469C40.8586 28.4861 41.0108 28.5158 41.2443 28.6833C41.2201 28.7353 41.1959 28.7873 41.171 28.8409C40.9238 28.7475 40.7573 28.6616 40.585 28.4469Z" fill="#D2F2E1"/>
<path d="M60.2913 27.4225C60.3155 27.4225 60.3396 27.4225 60.3645 27.4225C60.386 27.8996 60.386 27.8996 60.3645 28.0529C60.292 28.1049 60.2195 28.1569 60.1448 28.2105C60.2089 27.5998 60.2089 27.5998 60.2913 27.4225Z" fill="#9CD0AF"/>
<path d="M70.3278 27.3437C70.2809 27.3665 70.2341 27.3892 70.1858 27.4127C70.0236 27.4878 70.0236 27.4878 69.9615 27.6589C69.8648 27.6329 69.7681 27.6069 69.6685 27.5801C69.9003 27.3195 69.9979 27.2373 70.3278 27.3437Z" fill="#9CC7AD"/>
<path d="M61.9764 22.7733C61.9764 23.1192 61.8205 23.2279 61.6101 23.4825C61.5618 23.4565 61.5134 23.4305 61.4636 23.4037C61.6328 23.1957 61.8021 22.9877 61.9764 22.7733Z" fill="#91C6A8"/>
<path d="M72.8186 20.9609C72.6977 21.0649 72.5769 21.1689 72.4523 21.2761C72.3556 21.2241 72.2589 21.1721 72.1593 21.1185C72.5714 20.8723 72.5714 20.8723 72.8186 20.9609Z" fill="#D7F4E2"/>
<path d="M33.4789 34.1993C33.8415 34.2774 33.8415 34.2774 34.2115 34.3569C33.7231 34.4883 33.7231 34.4883 33.4789 34.3569C33.4789 34.3049 33.4789 34.2529 33.4789 34.1993Z" fill="#97C5AB"/>
<path d="M58.4599 33.0174C58.5083 33.0954 58.5566 33.1734 58.6065 33.2538C58.4614 33.4098 58.3163 33.5658 58.1669 33.7266C58.1186 33.7006 58.0702 33.6746 58.0204 33.6478C58.1654 33.4397 58.3105 33.2317 58.4599 33.0174Z" fill="#98CAAB"/>
<path d="M33.4789 29.0773C33.5515 29.1033 33.624 29.1293 33.6987 29.1561C33.6511 29.2025 33.6511 29.2025 33.6026 29.2497C33.4596 29.4148 33.3625 29.5908 33.2592 29.7865C33.235 29.7085 33.2108 29.6305 33.1859 29.5501C33.3279 29.299 33.3279 29.299 33.4789 29.0773Z" fill="#DFF3E5"/>
<path d="M33.6986 28.6833C33.6503 28.8134 33.6019 28.9434 33.5521 29.0774C33.528 28.9993 33.5038 28.9213 33.4789 28.841C33.3096 28.841 33.1404 28.841 32.9661 28.841C32.9661 28.8149 32.9661 28.7889 32.9661 28.7621C33.4514 28.6833 33.4514 28.6833 33.6986 28.6833Z" fill="#ACCEB9"/>
<path d="M62.0496 25.7677C62.1 25.9007 62.1 25.9007 62.1229 26.0829C62.0267 26.2996 62.0267 26.2996 61.9031 26.4769C61.8548 26.4769 61.8064 26.4769 61.7566 26.4769C61.8342 26.2087 61.9038 26.003 62.0496 25.7677Z" fill="#97C7A7"/>
<path d="M54.3574 16.8633C54.4299 16.8893 54.5024 16.9153 54.5772 16.9421C54.5772 17.0201 54.5772 17.0981 54.5772 17.1785C54.3838 17.1525 54.1904 17.1265 53.9911 17.0997C53.9911 17.0737 53.9911 17.0477 53.9911 17.0209C54.112 17.0209 54.2328 17.0209 54.3574 17.0209C54.3574 16.9689 54.3574 16.9169 54.3574 16.8633Z" fill="#98C8AC"/>
<path d="M63.588 13.7112C63.6363 13.7372 63.6847 13.7633 63.7345 13.79C63.7345 13.8421 63.7345 13.8941 63.7345 13.9476C63.7828 13.9997 63.8312 14.0517 63.881 14.1052C63.6876 14.0792 63.4942 14.0532 63.2949 14.0264C63.3916 13.9224 63.4883 13.8184 63.588 13.7112Z" fill="#A7CBB5"/>
<path d="M49.8155 12.3716C49.9221 12.7279 49.8353 12.9639 49.7422 13.3172C49.718 13.3172 49.6939 13.3172 49.6689 13.3172C49.6689 13.0572 49.6689 12.7972 49.6689 12.5292C49.7173 12.5292 49.7656 12.5292 49.8155 12.5292C49.8155 12.4772 49.8155 12.4252 49.8155 12.3716Z" fill="#99CEB0"/>
<path d="M62.0496 11.5049C62.0737 11.5049 62.0979 11.5049 62.1228 11.5049C62.147 11.6349 62.1712 11.7649 62.1961 11.8989C62.2444 11.8989 62.2928 11.8989 62.3426 11.8989C62.2144 12.2042 62.2144 12.2042 62.0496 12.2929C62.0496 12.0328 62.0496 11.7728 62.0496 11.5049Z" fill="#92C3A7"/>
<path d="M74.5034 29.5502C74.6866 29.7215 74.7552 29.8441 74.7965 30.1018C74.6514 30.1018 74.5064 30.1018 74.3569 30.1018C74.4295 30.0758 74.502 30.0498 74.5767 30.023C74.5525 29.8669 74.5284 29.7109 74.5034 29.5502Z" fill="#A5CDB5"/>
<path d="M30.1823 21.6701C30.6035 21.808 30.6035 21.808 30.7683 21.9853C30.72 22.0373 30.6716 22.0893 30.6218 22.1429C30.4738 22.0135 30.3273 21.8821 30.1823 21.7489C30.1823 21.7229 30.1823 21.6969 30.1823 21.6701Z" fill="#DCF7E7"/>
<path d="M35.6765 13.3173C35.8941 13.3433 36.1117 13.3693 36.3358 13.3961C36.1161 13.5537 36.1161 13.5537 35.9238 13.534C35.8663 13.5145 35.8089 13.495 35.7498 13.4749C35.7256 13.4229 35.7014 13.3708 35.6765 13.3173Z" fill="#D4F2DE"/>
<path d="M50.2551 8.66806C50.4002 8.70707 50.4002 8.70707 50.5482 8.74686C50.524 8.85088 50.4998 8.95489 50.4749 9.06206C50.4507 9.01005 50.4266 8.95805 50.4017 8.90446C50.3291 8.98247 50.2566 9.06049 50.1819 9.14086C50.2061 8.98484 50.2302 8.82881 50.2551 8.66806Z" fill="#DCEFE1"/>
</svg>
